%TF.GenerationSoftware,KiCad,Pcbnew,5.1.12-84ad8e8a86~92~ubuntu20.04.1*%
%TF.CreationDate,2022-08-08T17:47:05+02:00*%
%TF.ProjectId,saba-fernbedienung-anschlussstecker,73616261-2d66-4657-926e-62656469656e,1*%
%TF.SameCoordinates,Original*%
%TF.FileFunction,Soldermask,Top*%
%TF.FilePolarity,Negative*%
%FSLAX46Y46*%
G04 Gerber Fmt 4.6, Leading zero omitted, Abs format (unit mm)*
G04 Created by KiCad (PCBNEW 5.1.12-84ad8e8a86~92~ubuntu20.04.1) date 2022-08-08 17:47:05*
%MOMM*%
%LPD*%
G01*
G04 APERTURE LIST*
%ADD10C,9.000000*%
%ADD11C,6.500000*%
%ADD12O,1.700000X1.700000*%
%ADD13R,1.700000X1.700000*%
G04 APERTURE END LIST*
%TO.C,X101*%
G36*
G01*
X137750000Y-93625000D02*
X137750000Y-90375000D01*
G75*
G02*
X138625000Y-89500000I875000J0D01*
G01*
X140375000Y-89500000D01*
G75*
G02*
X141250000Y-90375000I0J-875000D01*
G01*
X141250000Y-93625000D01*
G75*
G02*
X140375000Y-94500000I-875000J0D01*
G01*
X138625000Y-94500000D01*
G75*
G02*
X137750000Y-93625000I0J875000D01*
G01*
G37*
G36*
G01*
X133250000Y-90625000D02*
X133250000Y-87375000D01*
G75*
G02*
X134125000Y-86500000I875000J0D01*
G01*
X135875000Y-86500000D01*
G75*
G02*
X136750000Y-87375000I0J-875000D01*
G01*
X136750000Y-90625000D01*
G75*
G02*
X135875000Y-91500000I-875000J0D01*
G01*
X134125000Y-91500000D01*
G75*
G02*
X133250000Y-90625000I0J875000D01*
G01*
G37*
G36*
G01*
X137750000Y-69625000D02*
X137750000Y-66375000D01*
G75*
G02*
X138625000Y-65500000I875000J0D01*
G01*
X140375000Y-65500000D01*
G75*
G02*
X141250000Y-66375000I0J-875000D01*
G01*
X141250000Y-69625000D01*
G75*
G02*
X140375000Y-70500000I-875000J0D01*
G01*
X138625000Y-70500000D01*
G75*
G02*
X137750000Y-69625000I0J875000D01*
G01*
G37*
G36*
G01*
X128850000Y-96625000D02*
X128850000Y-93375000D01*
G75*
G02*
X129725000Y-92500000I875000J0D01*
G01*
X131475000Y-92500000D01*
G75*
G02*
X132350000Y-93375000I0J-875000D01*
G01*
X132350000Y-96625000D01*
G75*
G02*
X131475000Y-97500000I-875000J0D01*
G01*
X129725000Y-97500000D01*
G75*
G02*
X128850000Y-96625000I0J875000D01*
G01*
G37*
G36*
G01*
X128850000Y-66625000D02*
X128850000Y-63375000D01*
G75*
G02*
X129725000Y-62500000I875000J0D01*
G01*
X131475000Y-62500000D01*
G75*
G02*
X132350000Y-63375000I0J-875000D01*
G01*
X132350000Y-66625000D01*
G75*
G02*
X131475000Y-67500000I-875000J0D01*
G01*
X129725000Y-67500000D01*
G75*
G02*
X128850000Y-66625000I0J875000D01*
G01*
G37*
G36*
G01*
X124350000Y-96625000D02*
X124350000Y-93375000D01*
G75*
G02*
X125225000Y-92500000I875000J0D01*
G01*
X126975000Y-92500000D01*
G75*
G02*
X127850000Y-93375000I0J-875000D01*
G01*
X127850000Y-96625000D01*
G75*
G02*
X126975000Y-97500000I-875000J0D01*
G01*
X125225000Y-97500000D01*
G75*
G02*
X124350000Y-96625000I0J875000D01*
G01*
G37*
G36*
G01*
X124350000Y-90625000D02*
X124350000Y-87375000D01*
G75*
G02*
X125225000Y-86500000I875000J0D01*
G01*
X126975000Y-86500000D01*
G75*
G02*
X127850000Y-87375000I0J-875000D01*
G01*
X127850000Y-90625000D01*
G75*
G02*
X126975000Y-91500000I-875000J0D01*
G01*
X125225000Y-91500000D01*
G75*
G02*
X124350000Y-90625000I0J875000D01*
G01*
G37*
G36*
G01*
X124350000Y-72625000D02*
X124350000Y-69375000D01*
G75*
G02*
X125225000Y-68500000I875000J0D01*
G01*
X126975000Y-68500000D01*
G75*
G02*
X127850000Y-69375000I0J-875000D01*
G01*
X127850000Y-72625000D01*
G75*
G02*
X126975000Y-73500000I-875000J0D01*
G01*
X125225000Y-73500000D01*
G75*
G02*
X124350000Y-72625000I0J875000D01*
G01*
G37*
G36*
G01*
X120450000Y-81625000D02*
X120450000Y-78375000D01*
G75*
G02*
X121325000Y-77500000I875000J0D01*
G01*
X123075000Y-77500000D01*
G75*
G02*
X123950000Y-78375000I0J-875000D01*
G01*
X123950000Y-81625000D01*
G75*
G02*
X123075000Y-82500000I-875000J0D01*
G01*
X121325000Y-82500000D01*
G75*
G02*
X120450000Y-81625000I0J875000D01*
G01*
G37*
G36*
G01*
X116350000Y-90625000D02*
X116350000Y-87375000D01*
G75*
G02*
X117225000Y-86500000I875000J0D01*
G01*
X118975000Y-86500000D01*
G75*
G02*
X119850000Y-87375000I0J-875000D01*
G01*
X119850000Y-90625000D01*
G75*
G02*
X118975000Y-91500000I-875000J0D01*
G01*
X117225000Y-91500000D01*
G75*
G02*
X116350000Y-90625000I0J875000D01*
G01*
G37*
G36*
G01*
X116350000Y-72625000D02*
X116350000Y-69375000D01*
G75*
G02*
X117225000Y-68500000I875000J0D01*
G01*
X118975000Y-68500000D01*
G75*
G02*
X119850000Y-69375000I0J-875000D01*
G01*
X119850000Y-72625000D01*
G75*
G02*
X118975000Y-73500000I-875000J0D01*
G01*
X117225000Y-73500000D01*
G75*
G02*
X116350000Y-72625000I0J875000D01*
G01*
G37*
G36*
G01*
X112450000Y-81625000D02*
X112450000Y-78375000D01*
G75*
G02*
X113325000Y-77500000I875000J0D01*
G01*
X115075000Y-77500000D01*
G75*
G02*
X115950000Y-78375000I0J-875000D01*
G01*
X115950000Y-81625000D01*
G75*
G02*
X115075000Y-82500000I-875000J0D01*
G01*
X113325000Y-82500000D01*
G75*
G02*
X112450000Y-81625000I0J875000D01*
G01*
G37*
D10*
X140750000Y-80000000D03*
D11*
X130000000Y-80000000D03*
G36*
G01*
X124350000Y-66625000D02*
X124350000Y-63375000D01*
G75*
G02*
X125225000Y-62500000I875000J0D01*
G01*
X126975000Y-62500000D01*
G75*
G02*
X127850000Y-63375000I0J-875000D01*
G01*
X127850000Y-66625000D01*
G75*
G02*
X126975000Y-67500000I-875000J0D01*
G01*
X125225000Y-67500000D01*
G75*
G02*
X124350000Y-66625000I0J875000D01*
G01*
G37*
%TD*%
D12*
%TO.C,J101*%
X124120000Y-75500000D03*
X121580000Y-75500000D03*
X119040000Y-75500000D03*
D13*
X116500000Y-75500000D03*
%TD*%
D12*
%TO.C,J104*%
X142040000Y-87500000D03*
D13*
X139500000Y-87500000D03*
%TD*%
D12*
%TO.C,J106*%
X122900000Y-95720000D03*
X122900000Y-93180000D03*
X122900000Y-90640000D03*
D13*
X122900000Y-88100000D03*
%TD*%
D12*
%TO.C,J105*%
X142020000Y-72500000D03*
X139480000Y-72500000D03*
X136940000Y-72500000D03*
D13*
X134400000Y-72500000D03*
%TD*%
D12*
%TO.C,J103*%
X124120000Y-84500000D03*
X121580000Y-84500000D03*
X119040000Y-84500000D03*
D13*
X116500000Y-84500000D03*
%TD*%
D12*
%TO.C,J102*%
X122900000Y-71900000D03*
X122900000Y-69360000D03*
X122900000Y-66820000D03*
D13*
X122900000Y-64280000D03*
%TD*%
M02*
