%TF.GenerationSoftware,KiCad,Pcbnew,5.1.12-84ad8e8a86~92~ubuntu20.04.1*%
%TF.CreationDate,2022-08-08T17:47:05+02:00*%
%TF.ProjectId,saba-fernbedienung-anschlussstecker,73616261-2d66-4657-926e-62656469656e,1*%
%TF.SameCoordinates,Original*%
%TF.FileFunction,Copper,L2,Bot*%
%TF.FilePolarity,Positive*%
%FSLAX46Y46*%
G04 Gerber Fmt 4.6, Leading zero omitted, Abs format (unit mm)*
G04 Created by KiCad (PCBNEW 5.1.12-84ad8e8a86~92~ubuntu20.04.1) date 2022-08-08 17:47:05*
%MOMM*%
%LPD*%
G01*
G04 APERTURE LIST*
%TA.AperFunction,ComponentPad*%
%ADD10O,1.700000X1.700000*%
%TD*%
%TA.AperFunction,ComponentPad*%
%ADD11R,1.700000X1.700000*%
%TD*%
%TA.AperFunction,Conductor*%
%ADD12C,1.500000*%
%TD*%
%TA.AperFunction,Conductor*%
%ADD13C,0.800000*%
%TD*%
%TA.AperFunction,Conductor*%
%ADD14C,0.254000*%
%TD*%
%TA.AperFunction,Conductor*%
%ADD15C,0.100000*%
%TD*%
G04 APERTURE END LIST*
%TO.P,X101,24*%
%TO.N,Net-(J104-Pad1)*%
%TA.AperFunction,ComponentPad*%
G36*
G01*
X137750000Y-93625000D02*
X137750000Y-90375000D01*
G75*
G02*
X138625000Y-89500000I875000J0D01*
G01*
X140375000Y-89500000D01*
G75*
G02*
X141250000Y-90375000I0J-875000D01*
G01*
X141250000Y-93625000D01*
G75*
G02*
X140375000Y-94500000I-875000J0D01*
G01*
X138625000Y-94500000D01*
G75*
G02*
X137750000Y-93625000I0J875000D01*
G01*
G37*
%TD.AperFunction*%
%TO.P,X101,21*%
%TO.N,Net-(J105-Pad1)*%
%TA.AperFunction,ComponentPad*%
G36*
G01*
X133250000Y-90625000D02*
X133250000Y-87375000D01*
G75*
G02*
X134125000Y-86500000I875000J0D01*
G01*
X135875000Y-86500000D01*
G75*
G02*
X136750000Y-87375000I0J-875000D01*
G01*
X136750000Y-90625000D01*
G75*
G02*
X135875000Y-91500000I-875000J0D01*
G01*
X134125000Y-91500000D01*
G75*
G02*
X133250000Y-90625000I0J875000D01*
G01*
G37*
%TD.AperFunction*%
%TO.P,X101,23*%
%TO.N,Net-(J105-Pad3)*%
%TA.AperFunction,ComponentPad*%
G36*
G01*
X137750000Y-69625000D02*
X137750000Y-66375000D01*
G75*
G02*
X138625000Y-65500000I875000J0D01*
G01*
X140375000Y-65500000D01*
G75*
G02*
X141250000Y-66375000I0J-875000D01*
G01*
X141250000Y-69625000D01*
G75*
G02*
X140375000Y-70500000I-875000J0D01*
G01*
X138625000Y-70500000D01*
G75*
G02*
X137750000Y-69625000I0J875000D01*
G01*
G37*
%TD.AperFunction*%
%TO.P,X101,18*%
%TO.N,Net-(J103-Pad4)*%
%TA.AperFunction,ComponentPad*%
G36*
G01*
X128850000Y-96625000D02*
X128850000Y-93375000D01*
G75*
G02*
X129725000Y-92500000I875000J0D01*
G01*
X131475000Y-92500000D01*
G75*
G02*
X132350000Y-93375000I0J-875000D01*
G01*
X132350000Y-96625000D01*
G75*
G02*
X131475000Y-97500000I-875000J0D01*
G01*
X129725000Y-97500000D01*
G75*
G02*
X128850000Y-96625000I0J875000D01*
G01*
G37*
%TD.AperFunction*%
%TO.P,X101,15*%
%TO.N,Net-(J102-Pad1)*%
%TA.AperFunction,ComponentPad*%
G36*
G01*
X128850000Y-66625000D02*
X128850000Y-63375000D01*
G75*
G02*
X129725000Y-62500000I875000J0D01*
G01*
X131475000Y-62500000D01*
G75*
G02*
X132350000Y-63375000I0J-875000D01*
G01*
X132350000Y-66625000D01*
G75*
G02*
X131475000Y-67500000I-875000J0D01*
G01*
X129725000Y-67500000D01*
G75*
G02*
X128850000Y-66625000I0J875000D01*
G01*
G37*
%TD.AperFunction*%
%TO.P,X101,14*%
%TO.N,Net-(J103-Pad3)*%
%TA.AperFunction,ComponentPad*%
G36*
G01*
X124350000Y-96625000D02*
X124350000Y-93375000D01*
G75*
G02*
X125225000Y-92500000I875000J0D01*
G01*
X126975000Y-92500000D01*
G75*
G02*
X127850000Y-93375000I0J-875000D01*
G01*
X127850000Y-96625000D01*
G75*
G02*
X126975000Y-97500000I-875000J0D01*
G01*
X125225000Y-97500000D01*
G75*
G02*
X124350000Y-96625000I0J875000D01*
G01*
G37*
%TD.AperFunction*%
%TO.P,X101,13*%
%TO.N,Net-(J101-Pad2)*%
%TA.AperFunction,ComponentPad*%
G36*
G01*
X124350000Y-90625000D02*
X124350000Y-87375000D01*
G75*
G02*
X125225000Y-86500000I875000J0D01*
G01*
X126975000Y-86500000D01*
G75*
G02*
X127850000Y-87375000I0J-875000D01*
G01*
X127850000Y-90625000D01*
G75*
G02*
X126975000Y-91500000I-875000J0D01*
G01*
X125225000Y-91500000D01*
G75*
G02*
X124350000Y-90625000I0J875000D01*
G01*
G37*
%TD.AperFunction*%
%TO.P,X101,12*%
%TO.N,Net-(J101-Pad4)*%
%TA.AperFunction,ComponentPad*%
G36*
G01*
X124350000Y-72625000D02*
X124350000Y-69375000D01*
G75*
G02*
X125225000Y-68500000I875000J0D01*
G01*
X126975000Y-68500000D01*
G75*
G02*
X127850000Y-69375000I0J-875000D01*
G01*
X127850000Y-72625000D01*
G75*
G02*
X126975000Y-73500000I-875000J0D01*
G01*
X125225000Y-73500000D01*
G75*
G02*
X124350000Y-72625000I0J875000D01*
G01*
G37*
%TD.AperFunction*%
%TO.P,X101,8*%
%TO.N,Net-(J102-Pad3)*%
%TA.AperFunction,ComponentPad*%
G36*
G01*
X120450000Y-81625000D02*
X120450000Y-78375000D01*
G75*
G02*
X121325000Y-77500000I875000J0D01*
G01*
X123075000Y-77500000D01*
G75*
G02*
X123950000Y-78375000I0J-875000D01*
G01*
X123950000Y-81625000D01*
G75*
G02*
X123075000Y-82500000I-875000J0D01*
G01*
X121325000Y-82500000D01*
G75*
G02*
X120450000Y-81625000I0J875000D01*
G01*
G37*
%TD.AperFunction*%
%TO.P,X101,5*%
%TO.N,Net-(J103-Pad1)*%
%TA.AperFunction,ComponentPad*%
G36*
G01*
X116350000Y-90625000D02*
X116350000Y-87375000D01*
G75*
G02*
X117225000Y-86500000I875000J0D01*
G01*
X118975000Y-86500000D01*
G75*
G02*
X119850000Y-87375000I0J-875000D01*
G01*
X119850000Y-90625000D01*
G75*
G02*
X118975000Y-91500000I-875000J0D01*
G01*
X117225000Y-91500000D01*
G75*
G02*
X116350000Y-90625000I0J875000D01*
G01*
G37*
%TD.AperFunction*%
%TO.P,X101,2*%
%TO.N,Net-(J101-Pad1)*%
%TA.AperFunction,ComponentPad*%
G36*
G01*
X116350000Y-72625000D02*
X116350000Y-69375000D01*
G75*
G02*
X117225000Y-68500000I875000J0D01*
G01*
X118975000Y-68500000D01*
G75*
G02*
X119850000Y-69375000I0J-875000D01*
G01*
X119850000Y-72625000D01*
G75*
G02*
X118975000Y-73500000I-875000J0D01*
G01*
X117225000Y-73500000D01*
G75*
G02*
X116350000Y-72625000I0J875000D01*
G01*
G37*
%TD.AperFunction*%
%TO.P,X101,1*%
%TO.N,Net-(J103-Pad2)*%
%TA.AperFunction,ComponentPad*%
G36*
G01*
X112450000Y-81625000D02*
X112450000Y-78375000D01*
G75*
G02*
X113325000Y-77500000I875000J0D01*
G01*
X115075000Y-77500000D01*
G75*
G02*
X115950000Y-78375000I0J-875000D01*
G01*
X115950000Y-81625000D01*
G75*
G02*
X115075000Y-82500000I-875000J0D01*
G01*
X113325000Y-82500000D01*
G75*
G02*
X112450000Y-81625000I0J875000D01*
G01*
G37*
%TD.AperFunction*%
%TO.P,X101,11*%
%TO.N,Net-(J106-Pad1)*%
%TA.AperFunction,ComponentPad*%
G36*
G01*
X124350000Y-66625000D02*
X124350000Y-63375000D01*
G75*
G02*
X125225000Y-62500000I875000J0D01*
G01*
X126975000Y-62500000D01*
G75*
G02*
X127850000Y-63375000I0J-875000D01*
G01*
X127850000Y-66625000D01*
G75*
G02*
X126975000Y-67500000I-875000J0D01*
G01*
X125225000Y-67500000D01*
G75*
G02*
X124350000Y-66625000I0J875000D01*
G01*
G37*
%TD.AperFunction*%
%TD*%
D10*
%TO.P,J101,4*%
%TO.N,Net-(J101-Pad4)*%
X124120000Y-75500000D03*
%TO.P,J101,3*%
%TO.N,Net-(J101-Pad2)*%
X121580000Y-75500000D03*
%TO.P,J101,2*%
X119040000Y-75500000D03*
D11*
%TO.P,J101,1*%
%TO.N,Net-(J101-Pad1)*%
X116500000Y-75500000D03*
%TD*%
D10*
%TO.P,J104,2*%
%TO.N,Net-(J104-Pad1)*%
X142040000Y-87500000D03*
D11*
%TO.P,J104,1*%
X139500000Y-87500000D03*
%TD*%
D10*
%TO.P,J106,4*%
%TO.N,N/C*%
X122900000Y-95720000D03*
%TO.P,J106,3*%
X122900000Y-93180000D03*
%TO.P,J106,2*%
X122900000Y-90640000D03*
D11*
%TO.P,J106,1*%
%TO.N,Net-(J106-Pad1)*%
X122900000Y-88100000D03*
%TD*%
D10*
%TO.P,J105,4*%
%TO.N,Net-(J105-Pad3)*%
X142020000Y-72500000D03*
%TO.P,J105,3*%
X139480000Y-72500000D03*
%TO.P,J105,2*%
%TO.N,Net-(J105-Pad1)*%
X136940000Y-72500000D03*
D11*
%TO.P,J105,1*%
X134400000Y-72500000D03*
%TD*%
D10*
%TO.P,J103,4*%
%TO.N,Net-(J103-Pad4)*%
X124120000Y-84500000D03*
%TO.P,J103,3*%
%TO.N,Net-(J103-Pad3)*%
X121580000Y-84500000D03*
%TO.P,J103,2*%
%TO.N,Net-(J103-Pad2)*%
X119040000Y-84500000D03*
D11*
%TO.P,J103,1*%
%TO.N,Net-(J103-Pad1)*%
X116500000Y-84500000D03*
%TD*%
D10*
%TO.P,J102,4*%
%TO.N,Net-(J102-Pad3)*%
X122900000Y-71900000D03*
%TO.P,J102,3*%
X122900000Y-69360000D03*
%TO.P,J102,2*%
%TO.N,Net-(J102-Pad1)*%
X122900000Y-66820000D03*
D11*
%TO.P,J102,1*%
X122900000Y-64280000D03*
%TD*%
D12*
%TO.N,Net-(J101-Pad1)*%
X116500000Y-75500000D02*
X116500000Y-73800000D01*
X116500000Y-73800000D02*
X118100000Y-72200000D01*
%TO.N,Net-(J102-Pad3)*%
X122900000Y-69360000D02*
X122900000Y-71900000D01*
D13*
X125570001Y-76229999D02*
X123200000Y-78600000D01*
X125570001Y-74803999D02*
X125570001Y-76229999D01*
X122900000Y-72133998D02*
X123749990Y-72983988D01*
X123749990Y-72983988D02*
X123749990Y-73235970D01*
X123749990Y-73235970D02*
X124614030Y-74100010D01*
X122900000Y-71900000D02*
X122900000Y-72133998D01*
X124614030Y-74100010D02*
X124866012Y-74100010D01*
X124866012Y-74100010D02*
X125570001Y-74803999D01*
D12*
%TO.N,Net-(J103-Pad4)*%
X130000000Y-94100000D02*
X131000000Y-95100000D01*
X130000000Y-87419046D02*
X130000000Y-94100000D01*
X124120000Y-84500000D02*
X127080954Y-84500000D01*
X127080954Y-84500000D02*
X130000000Y-87419046D01*
%TO.N,Net-(J103-Pad2)*%
X118600000Y-81400000D02*
X118600000Y-84000000D01*
X114500000Y-80000000D02*
X117200000Y-80000000D01*
X118600000Y-84000000D02*
X119000000Y-84400000D01*
X117200000Y-80000000D02*
X118600000Y-81400000D01*
%TO.N,Net-(J103-Pad1)*%
X116500000Y-84500000D02*
X116500000Y-86200000D01*
X116500000Y-86200000D02*
X118400000Y-88100000D01*
%TO.N,Net-(J104-Pad1)*%
X139500000Y-92000000D02*
X139500000Y-87500000D01*
%TO.N,Net-(J105-Pad3)*%
X139500000Y-68000000D02*
X139500000Y-72600000D01*
%TO.N,Net-(J105-Pad1)*%
X134500000Y-83600000D02*
X134500000Y-72800000D01*
X135000000Y-89000000D02*
X135000000Y-84100000D01*
X134500000Y-72800000D02*
X134400000Y-72700000D01*
X135000000Y-84100000D02*
X134500000Y-83600000D01*
%TD*%
D14*
%TO.N,Net-(J102-Pad1)*%
X130736476Y-61009245D02*
X132123609Y-62354344D01*
X132172401Y-66647993D01*
X131647394Y-67173000D01*
X129452606Y-67173000D01*
X129324366Y-67044760D01*
X129126838Y-63143578D01*
X129123147Y-63118956D01*
X129114725Y-63095528D01*
X129101894Y-63074193D01*
X129086861Y-63057349D01*
X128286861Y-62307349D01*
X128267116Y-62292183D01*
X128244793Y-62281161D01*
X128220748Y-62274706D01*
X128200000Y-62273000D01*
X127756736Y-62273000D01*
X127727413Y-62248935D01*
X127493271Y-62123783D01*
X127239212Y-62046716D01*
X126975000Y-62020693D01*
X125225000Y-62020693D01*
X124960788Y-62046716D01*
X124706729Y-62123783D01*
X124472587Y-62248935D01*
X124443264Y-62273000D01*
X124400000Y-62273000D01*
X124375224Y-62275440D01*
X124351399Y-62282667D01*
X124329443Y-62294403D01*
X124310197Y-62310197D01*
X123610197Y-63010197D01*
X123594403Y-63029443D01*
X123582667Y-63051399D01*
X123575440Y-63075224D01*
X123573000Y-63100000D01*
X123573000Y-66773000D01*
X122227000Y-66773000D01*
X122227000Y-62658479D01*
X122904282Y-62349808D01*
X124533167Y-61779346D01*
X126207049Y-61358861D01*
X127912147Y-61091817D01*
X129634444Y-60980408D01*
X130736476Y-61009245D01*
%TA.AperFunction,Conductor*%
D15*
G36*
X130736476Y-61009245D02*
G01*
X132123609Y-62354344D01*
X132172401Y-66647993D01*
X131647394Y-67173000D01*
X129452606Y-67173000D01*
X129324366Y-67044760D01*
X129126838Y-63143578D01*
X129123147Y-63118956D01*
X129114725Y-63095528D01*
X129101894Y-63074193D01*
X129086861Y-63057349D01*
X128286861Y-62307349D01*
X128267116Y-62292183D01*
X128244793Y-62281161D01*
X128220748Y-62274706D01*
X128200000Y-62273000D01*
X127756736Y-62273000D01*
X127727413Y-62248935D01*
X127493271Y-62123783D01*
X127239212Y-62046716D01*
X126975000Y-62020693D01*
X125225000Y-62020693D01*
X124960788Y-62046716D01*
X124706729Y-62123783D01*
X124472587Y-62248935D01*
X124443264Y-62273000D01*
X124400000Y-62273000D01*
X124375224Y-62275440D01*
X124351399Y-62282667D01*
X124329443Y-62294403D01*
X124310197Y-62310197D01*
X123610197Y-63010197D01*
X123594403Y-63029443D01*
X123582667Y-63051399D01*
X123575440Y-63075224D01*
X123573000Y-63100000D01*
X123573000Y-66773000D01*
X122227000Y-66773000D01*
X122227000Y-62658479D01*
X122904282Y-62349808D01*
X124533167Y-61779346D01*
X126207049Y-61358861D01*
X127912147Y-61091817D01*
X129634444Y-60980408D01*
X130736476Y-61009245D01*
G37*
%TD.AperFunction*%
%TD*%
M02*
