%TF.GenerationSoftware,KiCad,Pcbnew,5.1.12-84ad8e8a86~92~ubuntu20.04.1*%
%TF.CreationDate,2022-08-08T17:47:05+02:00*%
%TF.ProjectId,saba-fernbedienung-anschlussstecker,73616261-2d66-4657-926e-62656469656e,1*%
%TF.SameCoordinates,Original*%
%TF.FileFunction,Legend,Top*%
%TF.FilePolarity,Positive*%
%FSLAX46Y46*%
G04 Gerber Fmt 4.6, Leading zero omitted, Abs format (unit mm)*
G04 Created by KiCad (PCBNEW 5.1.12-84ad8e8a86~92~ubuntu20.04.1) date 2022-08-08 17:47:05*
%MOMM*%
%LPD*%
G01*
G04 APERTURE LIST*
%ADD10C,0.300000*%
%ADD11C,0.120000*%
%ADD12C,0.010000*%
%ADD13C,0.150000*%
G04 APERTURE END LIST*
D10*
X135578571Y-97342857D02*
X134864285Y-97842857D01*
X135578571Y-98200000D02*
X134078571Y-98200000D01*
X134078571Y-97628571D01*
X134150000Y-97485714D01*
X134221428Y-97414285D01*
X134364285Y-97342857D01*
X134578571Y-97342857D01*
X134721428Y-97414285D01*
X134792857Y-97485714D01*
X134864285Y-97628571D01*
X134864285Y-98200000D01*
X134792857Y-96700000D02*
X134792857Y-96200000D01*
X135578571Y-95985714D02*
X135578571Y-96700000D01*
X134078571Y-96700000D01*
X134078571Y-95985714D01*
X134078571Y-95557142D02*
X135578571Y-95057142D01*
X134078571Y-94557142D01*
X134221428Y-92985714D02*
X134150000Y-92914285D01*
X134078571Y-92771428D01*
X134078571Y-92414285D01*
X134150000Y-92271428D01*
X134221428Y-92200000D01*
X134364285Y-92128571D01*
X134507142Y-92128571D01*
X134721428Y-92200000D01*
X135578571Y-93057142D01*
X135578571Y-92128571D01*
X128835714Y-69978571D02*
X128835714Y-68478571D01*
X129192857Y-68478571D01*
X129407142Y-68550000D01*
X129550000Y-68692857D01*
X129621428Y-68835714D01*
X129692857Y-69121428D01*
X129692857Y-69335714D01*
X129621428Y-69621428D01*
X129550000Y-69764285D01*
X129407142Y-69907142D01*
X129192857Y-69978571D01*
X128835714Y-69978571D01*
X131050000Y-69978571D02*
X130335714Y-69978571D01*
X130335714Y-68478571D01*
X131478571Y-68621428D02*
X131550000Y-68550000D01*
X131692857Y-68478571D01*
X132050000Y-68478571D01*
X132192857Y-68550000D01*
X132264285Y-68621428D01*
X132335714Y-68764285D01*
X132335714Y-68907142D01*
X132264285Y-69121428D01*
X131407142Y-69978571D01*
X132335714Y-69978571D01*
X132835714Y-68478571D02*
X133192857Y-69978571D01*
X133478571Y-68907142D01*
X133764285Y-69978571D01*
X134121428Y-68478571D01*
X134621428Y-69550000D02*
X135335714Y-69550000D01*
X134478571Y-69978571D02*
X134978571Y-68478571D01*
X135478571Y-69978571D01*
X136764285Y-68550000D02*
X136621428Y-68478571D01*
X136407142Y-68478571D01*
X136192857Y-68550000D01*
X136050000Y-68692857D01*
X135978571Y-68835714D01*
X135907142Y-69121428D01*
X135907142Y-69335714D01*
X135978571Y-69621428D01*
X136050000Y-69764285D01*
X136192857Y-69907142D01*
X136407142Y-69978571D01*
X136550000Y-69978571D01*
X136764285Y-69907142D01*
X136835714Y-69835714D01*
X136835714Y-69335714D01*
X136550000Y-69335714D01*
D11*
%TO.C,X101*%
X114300000Y-88000000D02*
X112700000Y-88800000D01*
X112900000Y-84600000D02*
X111300000Y-85200000D01*
X112900000Y-84600000D02*
X114300000Y-88000000D01*
X149500000Y-80000000D02*
G75*
G03*
X149500000Y-80000000I-19500000J0D01*
G01*
X148850000Y-75500000D02*
X147100000Y-75500000D01*
X147100000Y-75500000D02*
X147100000Y-84500000D01*
X147100000Y-84500000D02*
X148850000Y-84500000D01*
%TO.C,J101*%
X115170000Y-76830000D02*
X115170000Y-75500000D01*
X116500000Y-76830000D02*
X115170000Y-76830000D01*
X117770000Y-76830000D02*
X117770000Y-74170000D01*
X117770000Y-74170000D02*
X125450000Y-74170000D01*
X117770000Y-76830000D02*
X125450000Y-76830000D01*
X125450000Y-76830000D02*
X125450000Y-74170000D01*
D12*
%TO.C,REF\u002A\u002A*%
G36*
X138157652Y-64603910D02*
G01*
X138157222Y-64682454D01*
X138156058Y-64739298D01*
X138153793Y-64778105D01*
X138150060Y-64802538D01*
X138144494Y-64816262D01*
X138136727Y-64822940D01*
X138126395Y-64826236D01*
X138125057Y-64826556D01*
X138100921Y-64831562D01*
X138053299Y-64840829D01*
X137987259Y-64853392D01*
X137907872Y-64868287D01*
X137820204Y-64884551D01*
X137817125Y-64885119D01*
X137731211Y-64901410D01*
X137655304Y-64916652D01*
X137593955Y-64929861D01*
X137551718Y-64940054D01*
X137533145Y-64946248D01*
X137532816Y-64946543D01*
X137523747Y-64964788D01*
X137508633Y-65002405D01*
X137490738Y-65051271D01*
X137490642Y-65051543D01*
X137467507Y-65113093D01*
X137438035Y-65185657D01*
X137408403Y-65254057D01*
X137406938Y-65257294D01*
X137356374Y-65368702D01*
X137524840Y-65615399D01*
X137576197Y-65691077D01*
X137622111Y-65759631D01*
X137659970Y-65817088D01*
X137687163Y-65859476D01*
X137701079Y-65882825D01*
X137702111Y-65885042D01*
X137697516Y-65902010D01*
X137675345Y-65933701D01*
X137634553Y-65981352D01*
X137574095Y-66046198D01*
X137509773Y-66112397D01*
X137446388Y-66176214D01*
X137388549Y-66233329D01*
X137339825Y-66280305D01*
X137303790Y-66313703D01*
X137284016Y-66330085D01*
X137282998Y-66330694D01*
X137269428Y-66332505D01*
X137247267Y-66325683D01*
X137213522Y-66308540D01*
X137165200Y-66279393D01*
X137099308Y-66236555D01*
X137014483Y-66179448D01*
X136939823Y-66128766D01*
X136872860Y-66083461D01*
X136817484Y-66046150D01*
X136777580Y-66019452D01*
X136757038Y-66005985D01*
X136755644Y-66005137D01*
X136735962Y-66006781D01*
X136697707Y-66019245D01*
X136648111Y-66040048D01*
X136632272Y-66047462D01*
X136561710Y-66079814D01*
X136481647Y-66114328D01*
X136412371Y-66142365D01*
X136360955Y-66162568D01*
X136321881Y-66178615D01*
X136301459Y-66187888D01*
X136299886Y-66189041D01*
X136297279Y-66206096D01*
X136290137Y-66246298D01*
X136279477Y-66304302D01*
X136266315Y-66374763D01*
X136251667Y-66452335D01*
X136236551Y-66531672D01*
X136221982Y-66607431D01*
X136208978Y-66674264D01*
X136198555Y-66726828D01*
X136191730Y-66759776D01*
X136189801Y-66767857D01*
X136185038Y-66776205D01*
X136174282Y-66782506D01*
X136153902Y-66787045D01*
X136120266Y-66790104D01*
X136069745Y-66791967D01*
X135998708Y-66792918D01*
X135903524Y-66793240D01*
X135864508Y-66793257D01*
X135547201Y-66793257D01*
X135532161Y-66717057D01*
X135524005Y-66674663D01*
X135512101Y-66611400D01*
X135497884Y-66534962D01*
X135482790Y-66453043D01*
X135478645Y-66430400D01*
X135463947Y-66354806D01*
X135449495Y-66288953D01*
X135436625Y-66238366D01*
X135426678Y-66208574D01*
X135423713Y-66203612D01*
X135402717Y-66191426D01*
X135362033Y-66173953D01*
X135309678Y-66154577D01*
X135298400Y-66150734D01*
X135228477Y-66125339D01*
X135149582Y-66093817D01*
X135078734Y-66062969D01*
X135078405Y-66062817D01*
X134967267Y-66011447D01*
X134718747Y-66180399D01*
X134470228Y-66349352D01*
X134252942Y-66132429D01*
X134188274Y-66066819D01*
X134131267Y-66006979D01*
X134084967Y-65956267D01*
X134052416Y-65918046D01*
X134036657Y-65895675D01*
X134035657Y-65892466D01*
X134043531Y-65873626D01*
X134065422Y-65835180D01*
X134098733Y-65781330D01*
X134140869Y-65716276D01*
X134188057Y-65645940D01*
X134236190Y-65574555D01*
X134278072Y-65510908D01*
X134311129Y-65459041D01*
X134332782Y-65422995D01*
X134340457Y-65406867D01*
X134333963Y-65387189D01*
X134316850Y-65349875D01*
X134292674Y-65302621D01*
X134289987Y-65297612D01*
X134258073Y-65233977D01*
X134242421Y-65190341D01*
X134242255Y-65163202D01*
X134256796Y-65149057D01*
X134257000Y-65148975D01*
X134274221Y-65141905D01*
X134315101Y-65125042D01*
X134376475Y-65099695D01*
X134455181Y-65067171D01*
X134548053Y-65028778D01*
X134651928Y-64985822D01*
X134752498Y-64944222D01*
X134863484Y-64898504D01*
X134966297Y-64856526D01*
X135057785Y-64819548D01*
X135134799Y-64788827D01*
X135194185Y-64765622D01*
X135232791Y-64751190D01*
X135247200Y-64746743D01*
X135263728Y-64757896D01*
X135290070Y-64787069D01*
X135319113Y-64825971D01*
X135410961Y-64936757D01*
X135516241Y-65023351D01*
X135632734Y-65084716D01*
X135758224Y-65119815D01*
X135890493Y-65127608D01*
X135951543Y-65121943D01*
X136078205Y-65091078D01*
X136190059Y-65037920D01*
X136285999Y-64965767D01*
X136364924Y-64877917D01*
X136425730Y-64777665D01*
X136467313Y-64668310D01*
X136488572Y-64553147D01*
X136488401Y-64435475D01*
X136465699Y-64318590D01*
X136419362Y-64205789D01*
X136348287Y-64100369D01*
X136308089Y-64056368D01*
X136204871Y-63971979D01*
X136092075Y-63913222D01*
X135972990Y-63879704D01*
X135850905Y-63871035D01*
X135729107Y-63886823D01*
X135610884Y-63926678D01*
X135499525Y-63990207D01*
X135398316Y-64077021D01*
X135319113Y-64174029D01*
X135288838Y-64214437D01*
X135262781Y-64242982D01*
X135247175Y-64253257D01*
X135230157Y-64247877D01*
X135189500Y-64232575D01*
X135128358Y-64208612D01*
X135049881Y-64177244D01*
X134957220Y-64139732D01*
X134853528Y-64097333D01*
X134752474Y-64055663D01*
X134641393Y-64009690D01*
X134538459Y-63967107D01*
X134446835Y-63929221D01*
X134369684Y-63897340D01*
X134310169Y-63872771D01*
X134271456Y-63856820D01*
X134257000Y-63850910D01*
X134242315Y-63836948D01*
X134242358Y-63809940D01*
X134257901Y-63766413D01*
X134289716Y-63702890D01*
X134289987Y-63702388D01*
X134314677Y-63654560D01*
X134332662Y-63615897D01*
X134340386Y-63594095D01*
X134340457Y-63593133D01*
X134332622Y-63576721D01*
X134310835Y-63540487D01*
X134277672Y-63488474D01*
X134235709Y-63424725D01*
X134188057Y-63354060D01*
X134139809Y-63282116D01*
X134097849Y-63217274D01*
X134064773Y-63163735D01*
X134043179Y-63125697D01*
X134035657Y-63107533D01*
X134045543Y-63090808D01*
X134073174Y-63057180D01*
X134115505Y-63010010D01*
X134169495Y-62952658D01*
X134232101Y-62888484D01*
X134253017Y-62867497D01*
X134470377Y-62650499D01*
X134712780Y-62815668D01*
X134787219Y-62865864D01*
X134854028Y-62909919D01*
X134909335Y-62945362D01*
X134949271Y-62969719D01*
X134969964Y-62980522D01*
X134971437Y-62980838D01*
X134990942Y-62975143D01*
X135030178Y-62959826D01*
X135082570Y-62937537D01*
X135117645Y-62921893D01*
X135184799Y-62892641D01*
X135252642Y-62865094D01*
X135309966Y-62843737D01*
X135327428Y-62837935D01*
X135374062Y-62821452D01*
X135410095Y-62805340D01*
X135423713Y-62796490D01*
X135432048Y-62776960D01*
X135443863Y-62734334D01*
X135457819Y-62674145D01*
X135472578Y-62601922D01*
X135478645Y-62569600D01*
X135493727Y-62487522D01*
X135508331Y-62408795D01*
X135521020Y-62341109D01*
X135530358Y-62292160D01*
X135532161Y-62282943D01*
X135547201Y-62206743D01*
X135864508Y-62206743D01*
X135968846Y-62206914D01*
X136047787Y-62207616D01*
X136104962Y-62209134D01*
X136144001Y-62211749D01*
X136168535Y-62215746D01*
X136182195Y-62221409D01*
X136188611Y-62229020D01*
X136189801Y-62232143D01*
X136194020Y-62250978D01*
X136202438Y-62292588D01*
X136214039Y-62351630D01*
X136227805Y-62422757D01*
X136242720Y-62500625D01*
X136257768Y-62579887D01*
X136271931Y-62655198D01*
X136284194Y-62721213D01*
X136293539Y-62772587D01*
X136298950Y-62803975D01*
X136299886Y-62810959D01*
X136312404Y-62817285D01*
X136345754Y-62831290D01*
X136393623Y-62850355D01*
X136412371Y-62857634D01*
X136484805Y-62886996D01*
X136564830Y-62921571D01*
X136632272Y-62952537D01*
X136683841Y-62975323D01*
X136726215Y-62990482D01*
X136752166Y-62995542D01*
X136755644Y-62994736D01*
X136772064Y-62984041D01*
X136808583Y-62959620D01*
X136861313Y-62924095D01*
X136926365Y-62880087D01*
X136999849Y-62830217D01*
X137014355Y-62820356D01*
X137100296Y-62762492D01*
X137165739Y-62719956D01*
X137213696Y-62691054D01*
X137247180Y-62674090D01*
X137269205Y-62667367D01*
X137282783Y-62669190D01*
X137282869Y-62669236D01*
X137300703Y-62683586D01*
X137335183Y-62715323D01*
X137382732Y-62761010D01*
X137439778Y-62817204D01*
X137502745Y-62880468D01*
X137509773Y-62887602D01*
X137586980Y-62967330D01*
X137643670Y-63028857D01*
X137680890Y-63073421D01*
X137699685Y-63102257D01*
X137702111Y-63114958D01*
X137691529Y-63133494D01*
X137667084Y-63171961D01*
X137631388Y-63226386D01*
X137587053Y-63292798D01*
X137536689Y-63367225D01*
X137524840Y-63384601D01*
X137356374Y-63631297D01*
X137406938Y-63742706D01*
X137436405Y-63810457D01*
X137466041Y-63883183D01*
X137489670Y-63945703D01*
X137490642Y-63948457D01*
X137508543Y-63997360D01*
X137523680Y-64035057D01*
X137532790Y-64053425D01*
X137532816Y-64053456D01*
X137549283Y-64059285D01*
X137589781Y-64069192D01*
X137649758Y-64082195D01*
X137724660Y-64097309D01*
X137809936Y-64113552D01*
X137817125Y-64114881D01*
X137904986Y-64131175D01*
X137984740Y-64146133D01*
X138051319Y-64158791D01*
X138099653Y-64168186D01*
X138124675Y-64173354D01*
X138125057Y-64173444D01*
X138135701Y-64176589D01*
X138143738Y-64182704D01*
X138149533Y-64195453D01*
X138153453Y-64218500D01*
X138155865Y-64255509D01*
X138157135Y-64310144D01*
X138157629Y-64386067D01*
X138157714Y-64486944D01*
X138157714Y-64500000D01*
X138157652Y-64603910D01*
G37*
X138157652Y-64603910D02*
X138157222Y-64682454D01*
X138156058Y-64739298D01*
X138153793Y-64778105D01*
X138150060Y-64802538D01*
X138144494Y-64816262D01*
X138136727Y-64822940D01*
X138126395Y-64826236D01*
X138125057Y-64826556D01*
X138100921Y-64831562D01*
X138053299Y-64840829D01*
X137987259Y-64853392D01*
X137907872Y-64868287D01*
X137820204Y-64884551D01*
X137817125Y-64885119D01*
X137731211Y-64901410D01*
X137655304Y-64916652D01*
X137593955Y-64929861D01*
X137551718Y-64940054D01*
X137533145Y-64946248D01*
X137532816Y-64946543D01*
X137523747Y-64964788D01*
X137508633Y-65002405D01*
X137490738Y-65051271D01*
X137490642Y-65051543D01*
X137467507Y-65113093D01*
X137438035Y-65185657D01*
X137408403Y-65254057D01*
X137406938Y-65257294D01*
X137356374Y-65368702D01*
X137524840Y-65615399D01*
X137576197Y-65691077D01*
X137622111Y-65759631D01*
X137659970Y-65817088D01*
X137687163Y-65859476D01*
X137701079Y-65882825D01*
X137702111Y-65885042D01*
X137697516Y-65902010D01*
X137675345Y-65933701D01*
X137634553Y-65981352D01*
X137574095Y-66046198D01*
X137509773Y-66112397D01*
X137446388Y-66176214D01*
X137388549Y-66233329D01*
X137339825Y-66280305D01*
X137303790Y-66313703D01*
X137284016Y-66330085D01*
X137282998Y-66330694D01*
X137269428Y-66332505D01*
X137247267Y-66325683D01*
X137213522Y-66308540D01*
X137165200Y-66279393D01*
X137099308Y-66236555D01*
X137014483Y-66179448D01*
X136939823Y-66128766D01*
X136872860Y-66083461D01*
X136817484Y-66046150D01*
X136777580Y-66019452D01*
X136757038Y-66005985D01*
X136755644Y-66005137D01*
X136735962Y-66006781D01*
X136697707Y-66019245D01*
X136648111Y-66040048D01*
X136632272Y-66047462D01*
X136561710Y-66079814D01*
X136481647Y-66114328D01*
X136412371Y-66142365D01*
X136360955Y-66162568D01*
X136321881Y-66178615D01*
X136301459Y-66187888D01*
X136299886Y-66189041D01*
X136297279Y-66206096D01*
X136290137Y-66246298D01*
X136279477Y-66304302D01*
X136266315Y-66374763D01*
X136251667Y-66452335D01*
X136236551Y-66531672D01*
X136221982Y-66607431D01*
X136208978Y-66674264D01*
X136198555Y-66726828D01*
X136191730Y-66759776D01*
X136189801Y-66767857D01*
X136185038Y-66776205D01*
X136174282Y-66782506D01*
X136153902Y-66787045D01*
X136120266Y-66790104D01*
X136069745Y-66791967D01*
X135998708Y-66792918D01*
X135903524Y-66793240D01*
X135864508Y-66793257D01*
X135547201Y-66793257D01*
X135532161Y-66717057D01*
X135524005Y-66674663D01*
X135512101Y-66611400D01*
X135497884Y-66534962D01*
X135482790Y-66453043D01*
X135478645Y-66430400D01*
X135463947Y-66354806D01*
X135449495Y-66288953D01*
X135436625Y-66238366D01*
X135426678Y-66208574D01*
X135423713Y-66203612D01*
X135402717Y-66191426D01*
X135362033Y-66173953D01*
X135309678Y-66154577D01*
X135298400Y-66150734D01*
X135228477Y-66125339D01*
X135149582Y-66093817D01*
X135078734Y-66062969D01*
X135078405Y-66062817D01*
X134967267Y-66011447D01*
X134718747Y-66180399D01*
X134470228Y-66349352D01*
X134252942Y-66132429D01*
X134188274Y-66066819D01*
X134131267Y-66006979D01*
X134084967Y-65956267D01*
X134052416Y-65918046D01*
X134036657Y-65895675D01*
X134035657Y-65892466D01*
X134043531Y-65873626D01*
X134065422Y-65835180D01*
X134098733Y-65781330D01*
X134140869Y-65716276D01*
X134188057Y-65645940D01*
X134236190Y-65574555D01*
X134278072Y-65510908D01*
X134311129Y-65459041D01*
X134332782Y-65422995D01*
X134340457Y-65406867D01*
X134333963Y-65387189D01*
X134316850Y-65349875D01*
X134292674Y-65302621D01*
X134289987Y-65297612D01*
X134258073Y-65233977D01*
X134242421Y-65190341D01*
X134242255Y-65163202D01*
X134256796Y-65149057D01*
X134257000Y-65148975D01*
X134274221Y-65141905D01*
X134315101Y-65125042D01*
X134376475Y-65099695D01*
X134455181Y-65067171D01*
X134548053Y-65028778D01*
X134651928Y-64985822D01*
X134752498Y-64944222D01*
X134863484Y-64898504D01*
X134966297Y-64856526D01*
X135057785Y-64819548D01*
X135134799Y-64788827D01*
X135194185Y-64765622D01*
X135232791Y-64751190D01*
X135247200Y-64746743D01*
X135263728Y-64757896D01*
X135290070Y-64787069D01*
X135319113Y-64825971D01*
X135410961Y-64936757D01*
X135516241Y-65023351D01*
X135632734Y-65084716D01*
X135758224Y-65119815D01*
X135890493Y-65127608D01*
X135951543Y-65121943D01*
X136078205Y-65091078D01*
X136190059Y-65037920D01*
X136285999Y-64965767D01*
X136364924Y-64877917D01*
X136425730Y-64777665D01*
X136467313Y-64668310D01*
X136488572Y-64553147D01*
X136488401Y-64435475D01*
X136465699Y-64318590D01*
X136419362Y-64205789D01*
X136348287Y-64100369D01*
X136308089Y-64056368D01*
X136204871Y-63971979D01*
X136092075Y-63913222D01*
X135972990Y-63879704D01*
X135850905Y-63871035D01*
X135729107Y-63886823D01*
X135610884Y-63926678D01*
X135499525Y-63990207D01*
X135398316Y-64077021D01*
X135319113Y-64174029D01*
X135288838Y-64214437D01*
X135262781Y-64242982D01*
X135247175Y-64253257D01*
X135230157Y-64247877D01*
X135189500Y-64232575D01*
X135128358Y-64208612D01*
X135049881Y-64177244D01*
X134957220Y-64139732D01*
X134853528Y-64097333D01*
X134752474Y-64055663D01*
X134641393Y-64009690D01*
X134538459Y-63967107D01*
X134446835Y-63929221D01*
X134369684Y-63897340D01*
X134310169Y-63872771D01*
X134271456Y-63856820D01*
X134257000Y-63850910D01*
X134242315Y-63836948D01*
X134242358Y-63809940D01*
X134257901Y-63766413D01*
X134289716Y-63702890D01*
X134289987Y-63702388D01*
X134314677Y-63654560D01*
X134332662Y-63615897D01*
X134340386Y-63594095D01*
X134340457Y-63593133D01*
X134332622Y-63576721D01*
X134310835Y-63540487D01*
X134277672Y-63488474D01*
X134235709Y-63424725D01*
X134188057Y-63354060D01*
X134139809Y-63282116D01*
X134097849Y-63217274D01*
X134064773Y-63163735D01*
X134043179Y-63125697D01*
X134035657Y-63107533D01*
X134045543Y-63090808D01*
X134073174Y-63057180D01*
X134115505Y-63010010D01*
X134169495Y-62952658D01*
X134232101Y-62888484D01*
X134253017Y-62867497D01*
X134470377Y-62650499D01*
X134712780Y-62815668D01*
X134787219Y-62865864D01*
X134854028Y-62909919D01*
X134909335Y-62945362D01*
X134949271Y-62969719D01*
X134969964Y-62980522D01*
X134971437Y-62980838D01*
X134990942Y-62975143D01*
X135030178Y-62959826D01*
X135082570Y-62937537D01*
X135117645Y-62921893D01*
X135184799Y-62892641D01*
X135252642Y-62865094D01*
X135309966Y-62843737D01*
X135327428Y-62837935D01*
X135374062Y-62821452D01*
X135410095Y-62805340D01*
X135423713Y-62796490D01*
X135432048Y-62776960D01*
X135443863Y-62734334D01*
X135457819Y-62674145D01*
X135472578Y-62601922D01*
X135478645Y-62569600D01*
X135493727Y-62487522D01*
X135508331Y-62408795D01*
X135521020Y-62341109D01*
X135530358Y-62292160D01*
X135532161Y-62282943D01*
X135547201Y-62206743D01*
X135864508Y-62206743D01*
X135968846Y-62206914D01*
X136047787Y-62207616D01*
X136104962Y-62209134D01*
X136144001Y-62211749D01*
X136168535Y-62215746D01*
X136182195Y-62221409D01*
X136188611Y-62229020D01*
X136189801Y-62232143D01*
X136194020Y-62250978D01*
X136202438Y-62292588D01*
X136214039Y-62351630D01*
X136227805Y-62422757D01*
X136242720Y-62500625D01*
X136257768Y-62579887D01*
X136271931Y-62655198D01*
X136284194Y-62721213D01*
X136293539Y-62772587D01*
X136298950Y-62803975D01*
X136299886Y-62810959D01*
X136312404Y-62817285D01*
X136345754Y-62831290D01*
X136393623Y-62850355D01*
X136412371Y-62857634D01*
X136484805Y-62886996D01*
X136564830Y-62921571D01*
X136632272Y-62952537D01*
X136683841Y-62975323D01*
X136726215Y-62990482D01*
X136752166Y-62995542D01*
X136755644Y-62994736D01*
X136772064Y-62984041D01*
X136808583Y-62959620D01*
X136861313Y-62924095D01*
X136926365Y-62880087D01*
X136999849Y-62830217D01*
X137014355Y-62820356D01*
X137100296Y-62762492D01*
X137165739Y-62719956D01*
X137213696Y-62691054D01*
X137247180Y-62674090D01*
X137269205Y-62667367D01*
X137282783Y-62669190D01*
X137282869Y-62669236D01*
X137300703Y-62683586D01*
X137335183Y-62715323D01*
X137382732Y-62761010D01*
X137439778Y-62817204D01*
X137502745Y-62880468D01*
X137509773Y-62887602D01*
X137586980Y-62967330D01*
X137643670Y-63028857D01*
X137680890Y-63073421D01*
X137699685Y-63102257D01*
X137702111Y-63114958D01*
X137691529Y-63133494D01*
X137667084Y-63171961D01*
X137631388Y-63226386D01*
X137587053Y-63292798D01*
X137536689Y-63367225D01*
X137524840Y-63384601D01*
X137356374Y-63631297D01*
X137406938Y-63742706D01*
X137436405Y-63810457D01*
X137466041Y-63883183D01*
X137489670Y-63945703D01*
X137490642Y-63948457D01*
X137508543Y-63997360D01*
X137523680Y-64035057D01*
X137532790Y-64053425D01*
X137532816Y-64053456D01*
X137549283Y-64059285D01*
X137589781Y-64069192D01*
X137649758Y-64082195D01*
X137724660Y-64097309D01*
X137809936Y-64113552D01*
X137817125Y-64114881D01*
X137904986Y-64131175D01*
X137984740Y-64146133D01*
X138051319Y-64158791D01*
X138099653Y-64168186D01*
X138124675Y-64173354D01*
X138125057Y-64173444D01*
X138135701Y-64176589D01*
X138143738Y-64182704D01*
X138149533Y-64195453D01*
X138153453Y-64218500D01*
X138155865Y-64255509D01*
X138157135Y-64310144D01*
X138157629Y-64386067D01*
X138157714Y-64486944D01*
X138157714Y-64500000D01*
X138157652Y-64603910D01*
G36*
X133433034Y-67653595D02*
G01*
X133395503Y-67711021D01*
X133361904Y-67738719D01*
X133300936Y-67760662D01*
X133252692Y-67762405D01*
X133188184Y-67758457D01*
X133123066Y-67609686D01*
X133089798Y-67537349D01*
X133063036Y-67490084D01*
X133039856Y-67465507D01*
X133017333Y-67461237D01*
X132992545Y-67474889D01*
X132976114Y-67489943D01*
X132949765Y-67533746D01*
X132947919Y-67581389D01*
X132968454Y-67625145D01*
X133009248Y-67657289D01*
X133023653Y-67663038D01*
X133068644Y-67690576D01*
X133087818Y-67722258D01*
X133104221Y-67765714D01*
X133042034Y-67765714D01*
X132999717Y-67761872D01*
X132964031Y-67746823D01*
X132923057Y-67715280D01*
X132917733Y-67710592D01*
X132881280Y-67675506D01*
X132861717Y-67645347D01*
X132852717Y-67607615D01*
X132849770Y-67576335D01*
X132849035Y-67520385D01*
X132858340Y-67480555D01*
X132872154Y-67455708D01*
X132902533Y-67416656D01*
X132935387Y-67389625D01*
X132976706Y-67372517D01*
X133032479Y-67363238D01*
X133108695Y-67359693D01*
X133147378Y-67359410D01*
X133193753Y-67360372D01*
X133193753Y-67448007D01*
X133168874Y-67449023D01*
X133164800Y-67451556D01*
X133170335Y-67468274D01*
X133184983Y-67504249D01*
X133205810Y-67552331D01*
X133210286Y-67562386D01*
X133241186Y-67623152D01*
X133268343Y-67656632D01*
X133293780Y-67663990D01*
X133319519Y-67646391D01*
X133330891Y-67631856D01*
X133353636Y-67579410D01*
X133349878Y-67530322D01*
X133322116Y-67489227D01*
X133272848Y-67460758D01*
X133233743Y-67451631D01*
X133193753Y-67448007D01*
X133193753Y-67360372D01*
X133237751Y-67361285D01*
X133304616Y-67368196D01*
X133353305Y-67381884D01*
X133389151Y-67404096D01*
X133417487Y-67436574D01*
X133426645Y-67450733D01*
X133450493Y-67515053D01*
X133451994Y-67585473D01*
X133433034Y-67653595D01*
G37*
X133433034Y-67653595D02*
X133395503Y-67711021D01*
X133361904Y-67738719D01*
X133300936Y-67760662D01*
X133252692Y-67762405D01*
X133188184Y-67758457D01*
X133123066Y-67609686D01*
X133089798Y-67537349D01*
X133063036Y-67490084D01*
X133039856Y-67465507D01*
X133017333Y-67461237D01*
X132992545Y-67474889D01*
X132976114Y-67489943D01*
X132949765Y-67533746D01*
X132947919Y-67581389D01*
X132968454Y-67625145D01*
X133009248Y-67657289D01*
X133023653Y-67663038D01*
X133068644Y-67690576D01*
X133087818Y-67722258D01*
X133104221Y-67765714D01*
X133042034Y-67765714D01*
X132999717Y-67761872D01*
X132964031Y-67746823D01*
X132923057Y-67715280D01*
X132917733Y-67710592D01*
X132881280Y-67675506D01*
X132861717Y-67645347D01*
X132852717Y-67607615D01*
X132849770Y-67576335D01*
X132849035Y-67520385D01*
X132858340Y-67480555D01*
X132872154Y-67455708D01*
X132902533Y-67416656D01*
X132935387Y-67389625D01*
X132976706Y-67372517D01*
X133032479Y-67363238D01*
X133108695Y-67359693D01*
X133147378Y-67359410D01*
X133193753Y-67360372D01*
X133193753Y-67448007D01*
X133168874Y-67449023D01*
X133164800Y-67451556D01*
X133170335Y-67468274D01*
X133184983Y-67504249D01*
X133205810Y-67552331D01*
X133210286Y-67562386D01*
X133241186Y-67623152D01*
X133268343Y-67656632D01*
X133293780Y-67663990D01*
X133319519Y-67646391D01*
X133330891Y-67631856D01*
X133353636Y-67579410D01*
X133349878Y-67530322D01*
X133322116Y-67489227D01*
X133272848Y-67460758D01*
X133233743Y-67451631D01*
X133193753Y-67448007D01*
X133193753Y-67360372D01*
X133237751Y-67361285D01*
X133304616Y-67368196D01*
X133353305Y-67381884D01*
X133389151Y-67404096D01*
X133417487Y-67436574D01*
X133426645Y-67450733D01*
X133450493Y-67515053D01*
X133451994Y-67585473D01*
X133433034Y-67653595D01*
G36*
X133441248Y-67152600D02*
G01*
X133433666Y-67169948D01*
X133400872Y-67211356D01*
X133353453Y-67246765D01*
X133302849Y-67268664D01*
X133277902Y-67272229D01*
X133243073Y-67260279D01*
X133224643Y-67234067D01*
X133213484Y-67205964D01*
X133211428Y-67193095D01*
X133226351Y-67186829D01*
X133258825Y-67174456D01*
X133273498Y-67169028D01*
X133324256Y-67138590D01*
X133349573Y-67094520D01*
X133348794Y-67038010D01*
X133347797Y-67033825D01*
X133333493Y-67003655D01*
X133305607Y-66981476D01*
X133260713Y-66966327D01*
X133195385Y-66957250D01*
X133106196Y-66953286D01*
X133058739Y-66952914D01*
X132983929Y-66952730D01*
X132932931Y-66951522D01*
X132900529Y-66948309D01*
X132881505Y-66942109D01*
X132870644Y-66931940D01*
X132862728Y-66916819D01*
X132862330Y-66915946D01*
X132850019Y-66886828D01*
X132845486Y-66872403D01*
X132859191Y-66870186D01*
X132897075Y-66868289D01*
X132954285Y-66866847D01*
X133025973Y-66865998D01*
X133078435Y-66865829D01*
X133179953Y-66866692D01*
X133256968Y-66870070D01*
X133313977Y-66877142D01*
X133355474Y-66889088D01*
X133385957Y-66907090D01*
X133409920Y-66932327D01*
X133426645Y-66957247D01*
X133448903Y-67017171D01*
X133453924Y-67086911D01*
X133441248Y-67152600D01*
G37*
X133441248Y-67152600D02*
X133433666Y-67169948D01*
X133400872Y-67211356D01*
X133353453Y-67246765D01*
X133302849Y-67268664D01*
X133277902Y-67272229D01*
X133243073Y-67260279D01*
X133224643Y-67234067D01*
X133213484Y-67205964D01*
X133211428Y-67193095D01*
X133226351Y-67186829D01*
X133258825Y-67174456D01*
X133273498Y-67169028D01*
X133324256Y-67138590D01*
X133349573Y-67094520D01*
X133348794Y-67038010D01*
X133347797Y-67033825D01*
X133333493Y-67003655D01*
X133305607Y-66981476D01*
X133260713Y-66966327D01*
X133195385Y-66957250D01*
X133106196Y-66953286D01*
X133058739Y-66952914D01*
X132983929Y-66952730D01*
X132932931Y-66951522D01*
X132900529Y-66948309D01*
X132881505Y-66942109D01*
X132870644Y-66931940D01*
X132862728Y-66916819D01*
X132862330Y-66915946D01*
X132850019Y-66886828D01*
X132845486Y-66872403D01*
X132859191Y-66870186D01*
X132897075Y-66868289D01*
X132954285Y-66866847D01*
X133025973Y-66865998D01*
X133078435Y-66865829D01*
X133179953Y-66866692D01*
X133256968Y-66870070D01*
X133313977Y-66877142D01*
X133355474Y-66889088D01*
X133385957Y-66907090D01*
X133409920Y-66932327D01*
X133426645Y-66957247D01*
X133448903Y-67017171D01*
X133453924Y-67086911D01*
X133441248Y-67152600D01*
G36*
X133443665Y-66644876D02*
G01*
X133424656Y-66686667D01*
X133401622Y-66719469D01*
X133375867Y-66743503D01*
X133342642Y-66760097D01*
X133297200Y-66770577D01*
X133234793Y-66776271D01*
X133150673Y-66778507D01*
X133095279Y-66778743D01*
X132879174Y-66778743D01*
X132862330Y-66741774D01*
X132850019Y-66712656D01*
X132845486Y-66698231D01*
X132858975Y-66695472D01*
X132895347Y-66693282D01*
X132948458Y-66691942D01*
X132990628Y-66691657D01*
X133051553Y-66690434D01*
X133099885Y-66687136D01*
X133129482Y-66682321D01*
X133135771Y-66678496D01*
X133129348Y-66652783D01*
X133112875Y-66612418D01*
X133090542Y-66565679D01*
X133066543Y-66520845D01*
X133045070Y-66486193D01*
X133030315Y-66470002D01*
X133030155Y-66469938D01*
X133002848Y-66471330D01*
X132976781Y-66483818D01*
X132955608Y-66505743D01*
X132948526Y-66537743D01*
X132949351Y-66565092D01*
X132949958Y-66603826D01*
X132940884Y-66624158D01*
X132916908Y-66636369D01*
X132912387Y-66637909D01*
X132878194Y-66643203D01*
X132857432Y-66629047D01*
X132847538Y-66592148D01*
X132845708Y-66552289D01*
X132859273Y-66480562D01*
X132878645Y-66443432D01*
X132924155Y-66397576D01*
X132980017Y-66373256D01*
X133039043Y-66371073D01*
X133094047Y-66391629D01*
X133128514Y-66422549D01*
X133147811Y-66453420D01*
X133172241Y-66501942D01*
X133197015Y-66558485D01*
X133200801Y-66567910D01*
X133228209Y-66630019D01*
X133252366Y-66665822D01*
X133276381Y-66677337D01*
X133303365Y-66666580D01*
X133324457Y-66648114D01*
X133350428Y-66604469D01*
X133352376Y-66556446D01*
X133332363Y-66512406D01*
X133292449Y-66480709D01*
X133282152Y-66476549D01*
X133244276Y-66452327D01*
X133216158Y-66416965D01*
X133193083Y-66372343D01*
X133258515Y-66372343D01*
X133298494Y-66374969D01*
X133330003Y-66386230D01*
X133363622Y-66411199D01*
X133389516Y-66435169D01*
X133426183Y-66472441D01*
X133445879Y-66501401D01*
X133453780Y-66532505D01*
X133455086Y-66567713D01*
X133443665Y-66644876D01*
G37*
X133443665Y-66644876D02*
X133424656Y-66686667D01*
X133401622Y-66719469D01*
X133375867Y-66743503D01*
X133342642Y-66760097D01*
X133297200Y-66770577D01*
X133234793Y-66776271D01*
X133150673Y-66778507D01*
X133095279Y-66778743D01*
X132879174Y-66778743D01*
X132862330Y-66741774D01*
X132850019Y-66712656D01*
X132845486Y-66698231D01*
X132858975Y-66695472D01*
X132895347Y-66693282D01*
X132948458Y-66691942D01*
X132990628Y-66691657D01*
X133051553Y-66690434D01*
X133099885Y-66687136D01*
X133129482Y-66682321D01*
X133135771Y-66678496D01*
X133129348Y-66652783D01*
X133112875Y-66612418D01*
X133090542Y-66565679D01*
X133066543Y-66520845D01*
X133045070Y-66486193D01*
X133030315Y-66470002D01*
X133030155Y-66469938D01*
X133002848Y-66471330D01*
X132976781Y-66483818D01*
X132955608Y-66505743D01*
X132948526Y-66537743D01*
X132949351Y-66565092D01*
X132949958Y-66603826D01*
X132940884Y-66624158D01*
X132916908Y-66636369D01*
X132912387Y-66637909D01*
X132878194Y-66643203D01*
X132857432Y-66629047D01*
X132847538Y-66592148D01*
X132845708Y-66552289D01*
X132859273Y-66480562D01*
X132878645Y-66443432D01*
X132924155Y-66397576D01*
X132980017Y-66373256D01*
X133039043Y-66371073D01*
X133094047Y-66391629D01*
X133128514Y-66422549D01*
X133147811Y-66453420D01*
X133172241Y-66501942D01*
X133197015Y-66558485D01*
X133200801Y-66567910D01*
X133228209Y-66630019D01*
X133252366Y-66665822D01*
X133276381Y-66677337D01*
X133303365Y-66666580D01*
X133324457Y-66648114D01*
X133350428Y-66604469D01*
X133352376Y-66556446D01*
X133332363Y-66512406D01*
X133292449Y-66480709D01*
X133282152Y-66476549D01*
X133244276Y-66452327D01*
X133216158Y-66416965D01*
X133193083Y-66372343D01*
X133258515Y-66372343D01*
X133298494Y-66374969D01*
X133330003Y-66386230D01*
X133363622Y-66411199D01*
X133389516Y-66435169D01*
X133426183Y-66472441D01*
X133445879Y-66501401D01*
X133453780Y-66532505D01*
X133455086Y-66567713D01*
X133443665Y-66644876D01*
G36*
X133441337Y-66279833D02*
G01*
X133403150Y-66282048D01*
X133345114Y-66283784D01*
X133271820Y-66284899D01*
X133194945Y-66285257D01*
X132934804Y-66285257D01*
X132888873Y-66239326D01*
X132860571Y-66207675D01*
X132849107Y-66179890D01*
X132849832Y-66141915D01*
X132851679Y-66126840D01*
X132857052Y-66079726D01*
X132860131Y-66040756D01*
X132860415Y-66031257D01*
X132858555Y-65999233D01*
X132853886Y-65953432D01*
X132851679Y-65935674D01*
X132848265Y-65892057D01*
X132855680Y-65862745D01*
X132878573Y-65833680D01*
X132888873Y-65823188D01*
X132934804Y-65777257D01*
X133421398Y-65777257D01*
X133438242Y-65814226D01*
X133450718Y-65846059D01*
X133455086Y-65864683D01*
X133441282Y-65869458D01*
X133402714Y-65873921D01*
X133343644Y-65877775D01*
X133268337Y-65880722D01*
X133204714Y-65882143D01*
X132954343Y-65886114D01*
X132949444Y-65920759D01*
X132952869Y-65952268D01*
X132963959Y-65967708D01*
X132984692Y-65972023D01*
X133028855Y-65975708D01*
X133090854Y-65978469D01*
X133165091Y-65980012D01*
X133203294Y-65980235D01*
X133423217Y-65980457D01*
X133439151Y-66026166D01*
X133449985Y-66058518D01*
X133455038Y-66076115D01*
X133455086Y-66076623D01*
X133441352Y-66078388D01*
X133403270Y-66080329D01*
X133345518Y-66082282D01*
X133272773Y-66084084D01*
X133204714Y-66085343D01*
X132954343Y-66089314D01*
X132954343Y-66176400D01*
X133182760Y-66180396D01*
X133411178Y-66184392D01*
X133433132Y-66226847D01*
X133448207Y-66258192D01*
X133455049Y-66276744D01*
X133455086Y-66277279D01*
X133441337Y-66279833D01*
G37*
X133441337Y-66279833D02*
X133403150Y-66282048D01*
X133345114Y-66283784D01*
X133271820Y-66284899D01*
X133194945Y-66285257D01*
X132934804Y-66285257D01*
X132888873Y-66239326D01*
X132860571Y-66207675D01*
X132849107Y-66179890D01*
X132849832Y-66141915D01*
X132851679Y-66126840D01*
X132857052Y-66079726D01*
X132860131Y-66040756D01*
X132860415Y-66031257D01*
X132858555Y-65999233D01*
X132853886Y-65953432D01*
X132851679Y-65935674D01*
X132848265Y-65892057D01*
X132855680Y-65862745D01*
X132878573Y-65833680D01*
X132888873Y-65823188D01*
X132934804Y-65777257D01*
X133421398Y-65777257D01*
X133438242Y-65814226D01*
X133450718Y-65846059D01*
X133455086Y-65864683D01*
X133441282Y-65869458D01*
X133402714Y-65873921D01*
X133343644Y-65877775D01*
X133268337Y-65880722D01*
X133204714Y-65882143D01*
X132954343Y-65886114D01*
X132949444Y-65920759D01*
X132952869Y-65952268D01*
X132963959Y-65967708D01*
X132984692Y-65972023D01*
X133028855Y-65975708D01*
X133090854Y-65978469D01*
X133165091Y-65980012D01*
X133203294Y-65980235D01*
X133423217Y-65980457D01*
X133439151Y-66026166D01*
X133449985Y-66058518D01*
X133455038Y-66076115D01*
X133455086Y-66076623D01*
X133441352Y-66078388D01*
X133403270Y-66080329D01*
X133345518Y-66082282D01*
X133272773Y-66084084D01*
X133204714Y-66085343D01*
X132954343Y-66089314D01*
X132954343Y-66176400D01*
X133182760Y-66180396D01*
X133411178Y-66184392D01*
X133433132Y-66226847D01*
X133448207Y-66258192D01*
X133455049Y-66276744D01*
X133455086Y-66277279D01*
X133441337Y-66279833D01*
G36*
X133334642Y-65690117D02*
G01*
X133226163Y-65689933D01*
X133142713Y-65689219D01*
X133080296Y-65687675D01*
X133034915Y-65685001D01*
X133002571Y-65680894D01*
X132979267Y-65675055D01*
X132961005Y-65667182D01*
X132950582Y-65661221D01*
X132894055Y-65611855D01*
X132858623Y-65549264D01*
X132845910Y-65480013D01*
X132857537Y-65410668D01*
X132878432Y-65369375D01*
X132914578Y-65326025D01*
X132958724Y-65296481D01*
X133016538Y-65278655D01*
X133093687Y-65270463D01*
X133150286Y-65269302D01*
X133154353Y-65269458D01*
X133154353Y-65370857D01*
X133089450Y-65371476D01*
X133046486Y-65374314D01*
X133018378Y-65380840D01*
X132998047Y-65392523D01*
X132982712Y-65406483D01*
X132953110Y-65453365D01*
X132950581Y-65503701D01*
X132975295Y-65551276D01*
X132978644Y-65554979D01*
X132996065Y-65570783D01*
X133016791Y-65580693D01*
X133047638Y-65586058D01*
X133095423Y-65588228D01*
X133148252Y-65588571D01*
X133214619Y-65587827D01*
X133258894Y-65584748D01*
X133287991Y-65578061D01*
X133308827Y-65566496D01*
X133319893Y-65557013D01*
X133347802Y-65512960D01*
X133351157Y-65462224D01*
X133329841Y-65413796D01*
X133321927Y-65404450D01*
X133304353Y-65388540D01*
X133283413Y-65378610D01*
X133252218Y-65373278D01*
X133203878Y-65371163D01*
X133154353Y-65370857D01*
X133154353Y-65269458D01*
X133241432Y-65272810D01*
X133309914Y-65284726D01*
X133361400Y-65307135D01*
X133401557Y-65342124D01*
X133422139Y-65369375D01*
X133444375Y-65418907D01*
X133454696Y-65476316D01*
X133451933Y-65529682D01*
X133440788Y-65559543D01*
X133437617Y-65571261D01*
X133449443Y-65579037D01*
X133481134Y-65584465D01*
X133529407Y-65588571D01*
X133583171Y-65593067D01*
X133615518Y-65599313D01*
X133634015Y-65610676D01*
X133646230Y-65630528D01*
X133651638Y-65643000D01*
X133671399Y-65690171D01*
X133334642Y-65690117D01*
G37*
X133334642Y-65690117D02*
X133226163Y-65689933D01*
X133142713Y-65689219D01*
X133080296Y-65687675D01*
X133034915Y-65685001D01*
X133002571Y-65680894D01*
X132979267Y-65675055D01*
X132961005Y-65667182D01*
X132950582Y-65661221D01*
X132894055Y-65611855D01*
X132858623Y-65549264D01*
X132845910Y-65480013D01*
X132857537Y-65410668D01*
X132878432Y-65369375D01*
X132914578Y-65326025D01*
X132958724Y-65296481D01*
X133016538Y-65278655D01*
X133093687Y-65270463D01*
X133150286Y-65269302D01*
X133154353Y-65269458D01*
X133154353Y-65370857D01*
X133089450Y-65371476D01*
X133046486Y-65374314D01*
X133018378Y-65380840D01*
X132998047Y-65392523D01*
X132982712Y-65406483D01*
X132953110Y-65453365D01*
X132950581Y-65503701D01*
X132975295Y-65551276D01*
X132978644Y-65554979D01*
X132996065Y-65570783D01*
X133016791Y-65580693D01*
X133047638Y-65586058D01*
X133095423Y-65588228D01*
X133148252Y-65588571D01*
X133214619Y-65587827D01*
X133258894Y-65584748D01*
X133287991Y-65578061D01*
X133308827Y-65566496D01*
X133319893Y-65557013D01*
X133347802Y-65512960D01*
X133351157Y-65462224D01*
X133329841Y-65413796D01*
X133321927Y-65404450D01*
X133304353Y-65388540D01*
X133283413Y-65378610D01*
X133252218Y-65373278D01*
X133203878Y-65371163D01*
X133154353Y-65370857D01*
X133154353Y-65269458D01*
X133241432Y-65272810D01*
X133309914Y-65284726D01*
X133361400Y-65307135D01*
X133401557Y-65342124D01*
X133422139Y-65369375D01*
X133444375Y-65418907D01*
X133454696Y-65476316D01*
X133451933Y-65529682D01*
X133440788Y-65559543D01*
X133437617Y-65571261D01*
X133449443Y-65579037D01*
X133481134Y-65584465D01*
X133529407Y-65588571D01*
X133583171Y-65593067D01*
X133615518Y-65599313D01*
X133634015Y-65610676D01*
X133646230Y-65630528D01*
X133651638Y-65643000D01*
X133671399Y-65690171D01*
X133334642Y-65690117D01*
G36*
X133450245Y-65029926D02*
G01*
X133425916Y-65095858D01*
X133382883Y-65149273D01*
X133352591Y-65170164D01*
X133297006Y-65192939D01*
X133256814Y-65192466D01*
X133229783Y-65168562D01*
X133225187Y-65159717D01*
X133210856Y-65121530D01*
X133214528Y-65102028D01*
X133238593Y-65095422D01*
X133251886Y-65095086D01*
X133300790Y-65082992D01*
X133335001Y-65051471D01*
X133351524Y-65007659D01*
X133347366Y-64958695D01*
X133325773Y-64918894D01*
X133313456Y-64905450D01*
X133298513Y-64895921D01*
X133275925Y-64889485D01*
X133240672Y-64885317D01*
X133187734Y-64882597D01*
X133112093Y-64880502D01*
X133088143Y-64879960D01*
X133006210Y-64877981D01*
X132948545Y-64875731D01*
X132910392Y-64872357D01*
X132886996Y-64867006D01*
X132873602Y-64858824D01*
X132865455Y-64846959D01*
X132861856Y-64839362D01*
X132849548Y-64807102D01*
X132845486Y-64788111D01*
X132859052Y-64781836D01*
X132900066Y-64778006D01*
X132969001Y-64776600D01*
X133066331Y-64777598D01*
X133081343Y-64777908D01*
X133170141Y-64780101D01*
X133234981Y-64782693D01*
X133280933Y-64786382D01*
X133313065Y-64791864D01*
X133336447Y-64799835D01*
X133356148Y-64810993D01*
X133364590Y-64816830D01*
X133401943Y-64850296D01*
X133430997Y-64887727D01*
X133433533Y-64892309D01*
X133453557Y-64959426D01*
X133450245Y-65029926D01*
G37*
X133450245Y-65029926D02*
X133425916Y-65095858D01*
X133382883Y-65149273D01*
X133352591Y-65170164D01*
X133297006Y-65192939D01*
X133256814Y-65192466D01*
X133229783Y-65168562D01*
X133225187Y-65159717D01*
X133210856Y-65121530D01*
X133214528Y-65102028D01*
X133238593Y-65095422D01*
X133251886Y-65095086D01*
X133300790Y-65082992D01*
X133335001Y-65051471D01*
X133351524Y-65007659D01*
X133347366Y-64958695D01*
X133325773Y-64918894D01*
X133313456Y-64905450D01*
X133298513Y-64895921D01*
X133275925Y-64889485D01*
X133240672Y-64885317D01*
X133187734Y-64882597D01*
X133112093Y-64880502D01*
X133088143Y-64879960D01*
X133006210Y-64877981D01*
X132948545Y-64875731D01*
X132910392Y-64872357D01*
X132886996Y-64867006D01*
X132873602Y-64858824D01*
X132865455Y-64846959D01*
X132861856Y-64839362D01*
X132849548Y-64807102D01*
X132845486Y-64788111D01*
X132859052Y-64781836D01*
X132900066Y-64778006D01*
X132969001Y-64776600D01*
X133066331Y-64777598D01*
X133081343Y-64777908D01*
X133170141Y-64780101D01*
X133234981Y-64782693D01*
X133280933Y-64786382D01*
X133313065Y-64791864D01*
X133336447Y-64799835D01*
X133356148Y-64810993D01*
X133364590Y-64816830D01*
X133401943Y-64850296D01*
X133430997Y-64887727D01*
X133433533Y-64892309D01*
X133453557Y-64959426D01*
X133450245Y-65029926D01*
G36*
X133449032Y-64539744D02*
G01*
X133427913Y-64596616D01*
X133427507Y-64597267D01*
X133401620Y-64632440D01*
X133371367Y-64658407D01*
X133331942Y-64676670D01*
X133278538Y-64688732D01*
X133206349Y-64696096D01*
X133110568Y-64700264D01*
X133096922Y-64700629D01*
X132891158Y-64705876D01*
X132868322Y-64661716D01*
X132852890Y-64629763D01*
X132845577Y-64610470D01*
X132845486Y-64609578D01*
X132858978Y-64606239D01*
X132895374Y-64603587D01*
X132948548Y-64601956D01*
X132991607Y-64601600D01*
X133061359Y-64601592D01*
X133105163Y-64598403D01*
X133126056Y-64587288D01*
X133127075Y-64563501D01*
X133111259Y-64522296D01*
X133082185Y-64460086D01*
X133058037Y-64414341D01*
X133037087Y-64390813D01*
X133014253Y-64383896D01*
X133013123Y-64383886D01*
X132973788Y-64395299D01*
X132952538Y-64429092D01*
X132949461Y-64480809D01*
X132949994Y-64518061D01*
X132939265Y-64537703D01*
X132913495Y-64549952D01*
X132880663Y-64557002D01*
X132862034Y-64546842D01*
X132859368Y-64543017D01*
X132848660Y-64507001D01*
X132847144Y-64456566D01*
X132854241Y-64404626D01*
X132867212Y-64367822D01*
X132910415Y-64316938D01*
X132970554Y-64288014D01*
X133017538Y-64282286D01*
X133059918Y-64286657D01*
X133094512Y-64302475D01*
X133125237Y-64333797D01*
X133156010Y-64384678D01*
X133190748Y-64459176D01*
X133192712Y-64463714D01*
X133223713Y-64530821D01*
X133249138Y-64572232D01*
X133271986Y-64589981D01*
X133295255Y-64586107D01*
X133321944Y-64562643D01*
X133328086Y-64555627D01*
X133351900Y-64508630D01*
X133350897Y-64459933D01*
X133327549Y-64417522D01*
X133284325Y-64389384D01*
X133275840Y-64386769D01*
X133234692Y-64361308D01*
X133214872Y-64329001D01*
X133195230Y-64282286D01*
X133246050Y-64282286D01*
X133319918Y-64296496D01*
X133387673Y-64338675D01*
X133410339Y-64360624D01*
X133439431Y-64410517D01*
X133452600Y-64473967D01*
X133449032Y-64539744D01*
G37*
X133449032Y-64539744D02*
X133427913Y-64596616D01*
X133427507Y-64597267D01*
X133401620Y-64632440D01*
X133371367Y-64658407D01*
X133331942Y-64676670D01*
X133278538Y-64688732D01*
X133206349Y-64696096D01*
X133110568Y-64700264D01*
X133096922Y-64700629D01*
X132891158Y-64705876D01*
X132868322Y-64661716D01*
X132852890Y-64629763D01*
X132845577Y-64610470D01*
X132845486Y-64609578D01*
X132858978Y-64606239D01*
X132895374Y-64603587D01*
X132948548Y-64601956D01*
X132991607Y-64601600D01*
X133061359Y-64601592D01*
X133105163Y-64598403D01*
X133126056Y-64587288D01*
X133127075Y-64563501D01*
X133111259Y-64522296D01*
X133082185Y-64460086D01*
X133058037Y-64414341D01*
X133037087Y-64390813D01*
X133014253Y-64383896D01*
X133013123Y-64383886D01*
X132973788Y-64395299D01*
X132952538Y-64429092D01*
X132949461Y-64480809D01*
X132949994Y-64518061D01*
X132939265Y-64537703D01*
X132913495Y-64549952D01*
X132880663Y-64557002D01*
X132862034Y-64546842D01*
X132859368Y-64543017D01*
X132848660Y-64507001D01*
X132847144Y-64456566D01*
X132854241Y-64404626D01*
X132867212Y-64367822D01*
X132910415Y-64316938D01*
X132970554Y-64288014D01*
X133017538Y-64282286D01*
X133059918Y-64286657D01*
X133094512Y-64302475D01*
X133125237Y-64333797D01*
X133156010Y-64384678D01*
X133190748Y-64459176D01*
X133192712Y-64463714D01*
X133223713Y-64530821D01*
X133249138Y-64572232D01*
X133271986Y-64589981D01*
X133295255Y-64586107D01*
X133321944Y-64562643D01*
X133328086Y-64555627D01*
X133351900Y-64508630D01*
X133350897Y-64459933D01*
X133327549Y-64417522D01*
X133284325Y-64389384D01*
X133275840Y-64386769D01*
X133234692Y-64361308D01*
X133214872Y-64329001D01*
X133195230Y-64282286D01*
X133246050Y-64282286D01*
X133319918Y-64296496D01*
X133387673Y-64338675D01*
X133410339Y-64360624D01*
X133439431Y-64410517D01*
X133452600Y-64473967D01*
X133449032Y-64539744D01*
G36*
X133548711Y-63875886D02*
G01*
X133489387Y-63880139D01*
X133454428Y-63885025D01*
X133439180Y-63891795D01*
X133438985Y-63901702D01*
X133440805Y-63904914D01*
X133453985Y-63947644D01*
X133453215Y-64003227D01*
X133439667Y-64059737D01*
X133422139Y-64095082D01*
X133394139Y-64131321D01*
X133362451Y-64157813D01*
X133322187Y-64175999D01*
X133268457Y-64187322D01*
X133196374Y-64193222D01*
X133101049Y-64195143D01*
X133082763Y-64195177D01*
X132877354Y-64195200D01*
X132861420Y-64149491D01*
X132850580Y-64117027D01*
X132845532Y-64099215D01*
X132845486Y-64098691D01*
X132859172Y-64096937D01*
X132896924Y-64095444D01*
X132953776Y-64094326D01*
X133024766Y-64093697D01*
X133067927Y-64093600D01*
X133153027Y-64093398D01*
X133214019Y-64092358D01*
X133255823Y-64089831D01*
X133283358Y-64085164D01*
X133301544Y-64077707D01*
X133315302Y-64066811D01*
X133321927Y-64060007D01*
X133348625Y-64013272D01*
X133350625Y-63962272D01*
X133328045Y-63916001D01*
X133319893Y-63907444D01*
X133304564Y-63894893D01*
X133286382Y-63886188D01*
X133260091Y-63880631D01*
X133220438Y-63877526D01*
X133162168Y-63876176D01*
X133081827Y-63875886D01*
X132877354Y-63875886D01*
X132861420Y-63830177D01*
X132850580Y-63797713D01*
X132845532Y-63779901D01*
X132845486Y-63779377D01*
X132859377Y-63778037D01*
X132898561Y-63776828D01*
X132959300Y-63775801D01*
X133037859Y-63775002D01*
X133130502Y-63774481D01*
X133233491Y-63774286D01*
X133630658Y-63774286D01*
X133650556Y-63821457D01*
X133670453Y-63868629D01*
X133548711Y-63875886D01*
G37*
X133548711Y-63875886D02*
X133489387Y-63880139D01*
X133454428Y-63885025D01*
X133439180Y-63891795D01*
X133438985Y-63901702D01*
X133440805Y-63904914D01*
X133453985Y-63947644D01*
X133453215Y-64003227D01*
X133439667Y-64059737D01*
X133422139Y-64095082D01*
X133394139Y-64131321D01*
X133362451Y-64157813D01*
X133322187Y-64175999D01*
X133268457Y-64187322D01*
X133196374Y-64193222D01*
X133101049Y-64195143D01*
X133082763Y-64195177D01*
X132877354Y-64195200D01*
X132861420Y-64149491D01*
X132850580Y-64117027D01*
X132845532Y-64099215D01*
X132845486Y-64098691D01*
X132859172Y-64096937D01*
X132896924Y-64095444D01*
X132953776Y-64094326D01*
X133024766Y-64093697D01*
X133067927Y-64093600D01*
X133153027Y-64093398D01*
X133214019Y-64092358D01*
X133255823Y-64089831D01*
X133283358Y-64085164D01*
X133301544Y-64077707D01*
X133315302Y-64066811D01*
X133321927Y-64060007D01*
X133348625Y-64013272D01*
X133350625Y-63962272D01*
X133328045Y-63916001D01*
X133319893Y-63907444D01*
X133304564Y-63894893D01*
X133286382Y-63886188D01*
X133260091Y-63880631D01*
X133220438Y-63877526D01*
X133162168Y-63876176D01*
X133081827Y-63875886D01*
X132877354Y-63875886D01*
X132861420Y-63830177D01*
X132850580Y-63797713D01*
X132845532Y-63779901D01*
X132845486Y-63779377D01*
X132859377Y-63778037D01*
X132898561Y-63776828D01*
X132959300Y-63775801D01*
X133037859Y-63775002D01*
X133130502Y-63774481D01*
X133233491Y-63774286D01*
X133630658Y-63774286D01*
X133650556Y-63821457D01*
X133670453Y-63868629D01*
X133548711Y-63875886D01*
G36*
X133468761Y-62668303D02*
G01*
X133430265Y-62725527D01*
X133374665Y-62769749D01*
X133303914Y-62796167D01*
X133251838Y-62801510D01*
X133230107Y-62800903D01*
X133213469Y-62795822D01*
X133198563Y-62781855D01*
X133182027Y-62754589D01*
X133160502Y-62709612D01*
X133130626Y-62642511D01*
X133130476Y-62642171D01*
X133102187Y-62580407D01*
X133077067Y-62529759D01*
X133057821Y-62495404D01*
X133047152Y-62482518D01*
X133047066Y-62482514D01*
X133023834Y-62493872D01*
X132998226Y-62520431D01*
X132979779Y-62550923D01*
X132976114Y-62566370D01*
X132988788Y-62608515D01*
X133020529Y-62644808D01*
X133055428Y-62662517D01*
X133081155Y-62679552D01*
X133110454Y-62712922D01*
X133135765Y-62752149D01*
X133149529Y-62786756D01*
X133150286Y-62793993D01*
X133137840Y-62802139D01*
X133106028Y-62802630D01*
X133063134Y-62796643D01*
X133017442Y-62785357D01*
X132977239Y-62769950D01*
X132975678Y-62769171D01*
X132910938Y-62722804D01*
X132866903Y-62662711D01*
X132845289Y-62594465D01*
X132847815Y-62523638D01*
X132876196Y-62455804D01*
X132878192Y-62452788D01*
X132926552Y-62399427D01*
X132989648Y-62364340D01*
X133072613Y-62344922D01*
X133095922Y-62342316D01*
X133205945Y-62337701D01*
X133257252Y-62343233D01*
X133257252Y-62482514D01*
X133225247Y-62484324D01*
X133215907Y-62494222D01*
X133222895Y-62518898D01*
X133239413Y-62557795D01*
X133260119Y-62601275D01*
X133260667Y-62602356D01*
X133280051Y-62639209D01*
X133292987Y-62654000D01*
X133306549Y-62650353D01*
X133324368Y-62634995D01*
X133350155Y-62595923D01*
X133352050Y-62553846D01*
X133333283Y-62516103D01*
X133297085Y-62490034D01*
X133257252Y-62482514D01*
X133257252Y-62343233D01*
X133293973Y-62347194D01*
X133363788Y-62371550D01*
X133412698Y-62405456D01*
X133462122Y-62466653D01*
X133486641Y-62534063D01*
X133488203Y-62602880D01*
X133468761Y-62668303D01*
G37*
X133468761Y-62668303D02*
X133430265Y-62725527D01*
X133374665Y-62769749D01*
X133303914Y-62796167D01*
X133251838Y-62801510D01*
X133230107Y-62800903D01*
X133213469Y-62795822D01*
X133198563Y-62781855D01*
X133182027Y-62754589D01*
X133160502Y-62709612D01*
X133130626Y-62642511D01*
X133130476Y-62642171D01*
X133102187Y-62580407D01*
X133077067Y-62529759D01*
X133057821Y-62495404D01*
X133047152Y-62482518D01*
X133047066Y-62482514D01*
X133023834Y-62493872D01*
X132998226Y-62520431D01*
X132979779Y-62550923D01*
X132976114Y-62566370D01*
X132988788Y-62608515D01*
X133020529Y-62644808D01*
X133055428Y-62662517D01*
X133081155Y-62679552D01*
X133110454Y-62712922D01*
X133135765Y-62752149D01*
X133149529Y-62786756D01*
X133150286Y-62793993D01*
X133137840Y-62802139D01*
X133106028Y-62802630D01*
X133063134Y-62796643D01*
X133017442Y-62785357D01*
X132977239Y-62769950D01*
X132975678Y-62769171D01*
X132910938Y-62722804D01*
X132866903Y-62662711D01*
X132845289Y-62594465D01*
X132847815Y-62523638D01*
X132876196Y-62455804D01*
X132878192Y-62452788D01*
X132926552Y-62399427D01*
X132989648Y-62364340D01*
X133072613Y-62344922D01*
X133095922Y-62342316D01*
X133205945Y-62337701D01*
X133257252Y-62343233D01*
X133257252Y-62482514D01*
X133225247Y-62484324D01*
X133215907Y-62494222D01*
X133222895Y-62518898D01*
X133239413Y-62557795D01*
X133260119Y-62601275D01*
X133260667Y-62602356D01*
X133280051Y-62639209D01*
X133292987Y-62654000D01*
X133306549Y-62650353D01*
X133324368Y-62634995D01*
X133350155Y-62595923D01*
X133352050Y-62553846D01*
X133333283Y-62516103D01*
X133297085Y-62490034D01*
X133257252Y-62482514D01*
X133257252Y-62343233D01*
X133293973Y-62347194D01*
X133363788Y-62371550D01*
X133412698Y-62405456D01*
X133462122Y-62466653D01*
X133486641Y-62534063D01*
X133488203Y-62602880D01*
X133468761Y-62668303D01*
G36*
X133478038Y-61541115D02*
G01*
X133442267Y-61609145D01*
X133384699Y-61659351D01*
X133347688Y-61677185D01*
X133292118Y-61691063D01*
X133221904Y-61698167D01*
X133145273Y-61698840D01*
X133070448Y-61693427D01*
X133005658Y-61682270D01*
X132959127Y-61665714D01*
X132951113Y-61660626D01*
X132891293Y-61600355D01*
X132855465Y-61528769D01*
X132844980Y-61451092D01*
X132861190Y-61372548D01*
X132870908Y-61350689D01*
X132900857Y-61308122D01*
X132940567Y-61270763D01*
X132945603Y-61267232D01*
X132969876Y-61252881D01*
X132995822Y-61243394D01*
X133029978Y-61237790D01*
X133078881Y-61235086D01*
X133149065Y-61234299D01*
X133164800Y-61234286D01*
X133169808Y-61234322D01*
X133169808Y-61379429D01*
X133103570Y-61380273D01*
X133059614Y-61383596D01*
X133031221Y-61390583D01*
X133011675Y-61402416D01*
X133005143Y-61408457D01*
X132980320Y-61443186D01*
X132981452Y-61476903D01*
X133002984Y-61510995D01*
X133025971Y-61531329D01*
X133059522Y-61543371D01*
X133112431Y-61550134D01*
X133118601Y-61550598D01*
X133214487Y-61551752D01*
X133285701Y-61539688D01*
X133331806Y-61514570D01*
X133352365Y-61476560D01*
X133353486Y-61462992D01*
X133347848Y-61427364D01*
X133328314Y-61402994D01*
X133290958Y-61388093D01*
X133231850Y-61380875D01*
X133169808Y-61379429D01*
X133169808Y-61234322D01*
X133239587Y-61234826D01*
X133291841Y-61237096D01*
X133328051Y-61242068D01*
X133354701Y-61250713D01*
X133378278Y-61264005D01*
X133382662Y-61266943D01*
X133441751Y-61316313D01*
X133476053Y-61370109D01*
X133489669Y-61435602D01*
X133490335Y-61457842D01*
X133478038Y-61541115D01*
G37*
X133478038Y-61541115D02*
X133442267Y-61609145D01*
X133384699Y-61659351D01*
X133347688Y-61677185D01*
X133292118Y-61691063D01*
X133221904Y-61698167D01*
X133145273Y-61698840D01*
X133070448Y-61693427D01*
X133005658Y-61682270D01*
X132959127Y-61665714D01*
X132951113Y-61660626D01*
X132891293Y-61600355D01*
X132855465Y-61528769D01*
X132844980Y-61451092D01*
X132861190Y-61372548D01*
X132870908Y-61350689D01*
X132900857Y-61308122D01*
X132940567Y-61270763D01*
X132945603Y-61267232D01*
X132969876Y-61252881D01*
X132995822Y-61243394D01*
X133029978Y-61237790D01*
X133078881Y-61235086D01*
X133149065Y-61234299D01*
X133164800Y-61234286D01*
X133169808Y-61234322D01*
X133169808Y-61379429D01*
X133103570Y-61380273D01*
X133059614Y-61383596D01*
X133031221Y-61390583D01*
X133011675Y-61402416D01*
X133005143Y-61408457D01*
X132980320Y-61443186D01*
X132981452Y-61476903D01*
X133002984Y-61510995D01*
X133025971Y-61531329D01*
X133059522Y-61543371D01*
X133112431Y-61550134D01*
X133118601Y-61550598D01*
X133214487Y-61551752D01*
X133285701Y-61539688D01*
X133331806Y-61514570D01*
X133352365Y-61476560D01*
X133353486Y-61462992D01*
X133347848Y-61427364D01*
X133328314Y-61402994D01*
X133290958Y-61388093D01*
X133231850Y-61380875D01*
X133169808Y-61379429D01*
X133169808Y-61234322D01*
X133239587Y-61234826D01*
X133291841Y-61237096D01*
X133328051Y-61242068D01*
X133354701Y-61250713D01*
X133378278Y-61264005D01*
X133382662Y-61266943D01*
X133441751Y-61316313D01*
X133476053Y-61370109D01*
X133489669Y-61435602D01*
X133490335Y-61457842D01*
X133478038Y-61541115D01*
G36*
X133472220Y-63216093D02*
G01*
X133445277Y-63262672D01*
X133418534Y-63295057D01*
X133390516Y-63318742D01*
X133356252Y-63335059D01*
X133310773Y-63345339D01*
X133249108Y-63350914D01*
X133166289Y-63353116D01*
X133106754Y-63353371D01*
X132887609Y-63353371D01*
X132859956Y-63291686D01*
X132832303Y-63230000D01*
X133072330Y-63222743D01*
X133161972Y-63219744D01*
X133227038Y-63216598D01*
X133271974Y-63212701D01*
X133301230Y-63207447D01*
X133319252Y-63200231D01*
X133330489Y-63190450D01*
X133332921Y-63187312D01*
X133351917Y-63139761D01*
X133344400Y-63091697D01*
X133324457Y-63063086D01*
X133310325Y-63051447D01*
X133291780Y-63043391D01*
X133263666Y-63038271D01*
X133220827Y-63035441D01*
X133158105Y-63034256D01*
X133092739Y-63034057D01*
X133010732Y-63034018D01*
X132952684Y-63032614D01*
X132913535Y-63027914D01*
X132888220Y-63017987D01*
X132871677Y-63000903D01*
X132858844Y-62974732D01*
X132845509Y-62939775D01*
X132830993Y-62901596D01*
X133088611Y-62906141D01*
X133181481Y-62907971D01*
X133250111Y-62910112D01*
X133299289Y-62913181D01*
X133333802Y-62917794D01*
X133358438Y-62924568D01*
X133377984Y-62934119D01*
X133395230Y-62945634D01*
X133450320Y-63001190D01*
X133482178Y-63068980D01*
X133489809Y-63142713D01*
X133472220Y-63216093D01*
G37*
X133472220Y-63216093D02*
X133445277Y-63262672D01*
X133418534Y-63295057D01*
X133390516Y-63318742D01*
X133356252Y-63335059D01*
X133310773Y-63345339D01*
X133249108Y-63350914D01*
X133166289Y-63353116D01*
X133106754Y-63353371D01*
X132887609Y-63353371D01*
X132859956Y-63291686D01*
X132832303Y-63230000D01*
X133072330Y-63222743D01*
X133161972Y-63219744D01*
X133227038Y-63216598D01*
X133271974Y-63212701D01*
X133301230Y-63207447D01*
X133319252Y-63200231D01*
X133330489Y-63190450D01*
X133332921Y-63187312D01*
X133351917Y-63139761D01*
X133344400Y-63091697D01*
X133324457Y-63063086D01*
X133310325Y-63051447D01*
X133291780Y-63043391D01*
X133263666Y-63038271D01*
X133220827Y-63035441D01*
X133158105Y-63034256D01*
X133092739Y-63034057D01*
X133010732Y-63034018D01*
X132952684Y-63032614D01*
X132913535Y-63027914D01*
X132888220Y-63017987D01*
X132871677Y-63000903D01*
X132858844Y-62974732D01*
X132845509Y-62939775D01*
X132830993Y-62901596D01*
X133088611Y-62906141D01*
X133181481Y-62907971D01*
X133250111Y-62910112D01*
X133299289Y-62913181D01*
X133333802Y-62917794D01*
X133358438Y-62924568D01*
X133377984Y-62934119D01*
X133395230Y-62945634D01*
X133450320Y-63001190D01*
X133482178Y-63068980D01*
X133489809Y-63142713D01*
X133472220Y-63216093D01*
G36*
X133480082Y-62099744D02*
G01*
X133452432Y-62155201D01*
X133401520Y-62204148D01*
X133382662Y-62217629D01*
X133357985Y-62232314D01*
X133331184Y-62241842D01*
X133295413Y-62247293D01*
X133243831Y-62249747D01*
X133175733Y-62250286D01*
X133082412Y-62247852D01*
X133012343Y-62239394D01*
X132960069Y-62223174D01*
X132920131Y-62197454D01*
X132887071Y-62160497D01*
X132885114Y-62157782D01*
X132865092Y-62121360D01*
X132855185Y-62077502D01*
X132852743Y-62021724D01*
X132852743Y-61931048D01*
X132764717Y-61931010D01*
X132715692Y-61930166D01*
X132686935Y-61925024D01*
X132669689Y-61911587D01*
X132655192Y-61885858D01*
X132652231Y-61879679D01*
X132638352Y-61850764D01*
X132629586Y-61828376D01*
X132628829Y-61811729D01*
X132638977Y-61800036D01*
X132662927Y-61792510D01*
X132703574Y-61788366D01*
X132763814Y-61786815D01*
X132846545Y-61787071D01*
X132954661Y-61788349D01*
X132987000Y-61788748D01*
X133098476Y-61790185D01*
X133171397Y-61791472D01*
X133171397Y-61930971D01*
X133109501Y-61931755D01*
X133069003Y-61935240D01*
X133042292Y-61943124D01*
X133021756Y-61957105D01*
X133011740Y-61966597D01*
X132982433Y-62005404D01*
X132980048Y-62039763D01*
X133004250Y-62075216D01*
X133005143Y-62076114D01*
X133023847Y-62090539D01*
X133049268Y-62099313D01*
X133088416Y-62103739D01*
X133148303Y-62105118D01*
X133161570Y-62105143D01*
X133244099Y-62101812D01*
X133301309Y-62090969D01*
X133336234Y-62071340D01*
X133351906Y-62041650D01*
X133353486Y-62024491D01*
X133346074Y-61983766D01*
X133321670Y-61955832D01*
X133277020Y-61939017D01*
X133208870Y-61931650D01*
X133171397Y-61930971D01*
X133171397Y-61791472D01*
X133184755Y-61791708D01*
X133249667Y-61793677D01*
X133297042Y-61796450D01*
X133330710Y-61800388D01*
X133354502Y-61805849D01*
X133372247Y-61813192D01*
X133387776Y-61822777D01*
X133393619Y-61826887D01*
X133448815Y-61881405D01*
X133480110Y-61950336D01*
X133488835Y-62030072D01*
X133480082Y-62099744D01*
G37*
X133480082Y-62099744D02*
X133452432Y-62155201D01*
X133401520Y-62204148D01*
X133382662Y-62217629D01*
X133357985Y-62232314D01*
X133331184Y-62241842D01*
X133295413Y-62247293D01*
X133243831Y-62249747D01*
X133175733Y-62250286D01*
X133082412Y-62247852D01*
X133012343Y-62239394D01*
X132960069Y-62223174D01*
X132920131Y-62197454D01*
X132887071Y-62160497D01*
X132885114Y-62157782D01*
X132865092Y-62121360D01*
X132855185Y-62077502D01*
X132852743Y-62021724D01*
X132852743Y-61931048D01*
X132764717Y-61931010D01*
X132715692Y-61930166D01*
X132686935Y-61925024D01*
X132669689Y-61911587D01*
X132655192Y-61885858D01*
X132652231Y-61879679D01*
X132638352Y-61850764D01*
X132629586Y-61828376D01*
X132628829Y-61811729D01*
X132638977Y-61800036D01*
X132662927Y-61792510D01*
X132703574Y-61788366D01*
X132763814Y-61786815D01*
X132846545Y-61787071D01*
X132954661Y-61788349D01*
X132987000Y-61788748D01*
X133098476Y-61790185D01*
X133171397Y-61791472D01*
X133171397Y-61930971D01*
X133109501Y-61931755D01*
X133069003Y-61935240D01*
X133042292Y-61943124D01*
X133021756Y-61957105D01*
X133011740Y-61966597D01*
X132982433Y-62005404D01*
X132980048Y-62039763D01*
X133004250Y-62075216D01*
X133005143Y-62076114D01*
X133023847Y-62090539D01*
X133049268Y-62099313D01*
X133088416Y-62103739D01*
X133148303Y-62105118D01*
X133161570Y-62105143D01*
X133244099Y-62101812D01*
X133301309Y-62090969D01*
X133336234Y-62071340D01*
X133351906Y-62041650D01*
X133353486Y-62024491D01*
X133346074Y-61983766D01*
X133321670Y-61955832D01*
X133277020Y-61939017D01*
X133208870Y-61931650D01*
X133171397Y-61930971D01*
X133171397Y-61791472D01*
X133184755Y-61791708D01*
X133249667Y-61793677D01*
X133297042Y-61796450D01*
X133330710Y-61800388D01*
X133354502Y-61805849D01*
X133372247Y-61813192D01*
X133387776Y-61822777D01*
X133393619Y-61826887D01*
X133448815Y-61881405D01*
X133480110Y-61950336D01*
X133488835Y-62030072D01*
X133480082Y-62099744D01*
D11*
%TO.C,J104*%
X138170000Y-88830000D02*
X138170000Y-87500000D01*
X139500000Y-88830000D02*
X138170000Y-88830000D01*
X140770000Y-88830000D02*
X140770000Y-86170000D01*
X140770000Y-86170000D02*
X143370000Y-86170000D01*
X140770000Y-88830000D02*
X143370000Y-88830000D01*
X143370000Y-88830000D02*
X143370000Y-86170000D01*
%TO.C,J106*%
X121570000Y-86770000D02*
X122900000Y-86770000D01*
X121570000Y-88100000D02*
X121570000Y-86770000D01*
X121570000Y-89370000D02*
X124230000Y-89370000D01*
X124230000Y-89370000D02*
X124230000Y-97050000D01*
X121570000Y-89370000D02*
X121570000Y-97050000D01*
X121570000Y-97050000D02*
X124230000Y-97050000D01*
%TO.C,J105*%
X133070000Y-73830000D02*
X133070000Y-72500000D01*
X134400000Y-73830000D02*
X133070000Y-73830000D01*
X135670000Y-73830000D02*
X135670000Y-71170000D01*
X135670000Y-71170000D02*
X143350000Y-71170000D01*
X135670000Y-73830000D02*
X143350000Y-73830000D01*
X143350000Y-73830000D02*
X143350000Y-71170000D01*
%TO.C,J103*%
X115170000Y-85830000D02*
X115170000Y-84500000D01*
X116500000Y-85830000D02*
X115170000Y-85830000D01*
X117770000Y-85830000D02*
X117770000Y-83170000D01*
X117770000Y-83170000D02*
X125450000Y-83170000D01*
X117770000Y-85830000D02*
X125450000Y-85830000D01*
X125450000Y-85830000D02*
X125450000Y-83170000D01*
%TO.C,J102*%
X121570000Y-62950000D02*
X122900000Y-62950000D01*
X121570000Y-64280000D02*
X121570000Y-62950000D01*
X121570000Y-65550000D02*
X124230000Y-65550000D01*
X124230000Y-65550000D02*
X124230000Y-73230000D01*
X121570000Y-65550000D02*
X121570000Y-73230000D01*
X121570000Y-73230000D02*
X124230000Y-73230000D01*
%TO.C,X101*%
D13*
X128438095Y-75352380D02*
X129104761Y-76352380D01*
X129104761Y-75352380D02*
X128438095Y-76352380D01*
X130009523Y-76352380D02*
X129438095Y-76352380D01*
X129723809Y-76352380D02*
X129723809Y-75352380D01*
X129628571Y-75495238D01*
X129533333Y-75590476D01*
X129438095Y-75638095D01*
X130628571Y-75352380D02*
X130723809Y-75352380D01*
X130819047Y-75400000D01*
X130866666Y-75447619D01*
X130914285Y-75542857D01*
X130961904Y-75733333D01*
X130961904Y-75971428D01*
X130914285Y-76161904D01*
X130866666Y-76257142D01*
X130819047Y-76304761D01*
X130723809Y-76352380D01*
X130628571Y-76352380D01*
X130533333Y-76304761D01*
X130485714Y-76257142D01*
X130438095Y-76161904D01*
X130390476Y-75971428D01*
X130390476Y-75733333D01*
X130438095Y-75542857D01*
X130485714Y-75447619D01*
X130533333Y-75400000D01*
X130628571Y-75352380D01*
X131914285Y-76352380D02*
X131342857Y-76352380D01*
X131628571Y-76352380D02*
X131628571Y-75352380D01*
X131533333Y-75495238D01*
X131438095Y-75590476D01*
X131342857Y-75638095D01*
X115035595Y-105752380D02*
X115035595Y-104752380D01*
X115416547Y-104752380D01*
X115511785Y-104800000D01*
X115559404Y-104847619D01*
X115607023Y-104942857D01*
X115607023Y-105085714D01*
X115559404Y-105180952D01*
X115511785Y-105228571D01*
X115416547Y-105276190D01*
X115035595Y-105276190D01*
X116035595Y-105752380D02*
X116035595Y-105085714D01*
X116035595Y-104752380D02*
X115987976Y-104800000D01*
X116035595Y-104847619D01*
X116083214Y-104800000D01*
X116035595Y-104752380D01*
X116035595Y-104847619D01*
X116511785Y-105085714D02*
X116511785Y-105752380D01*
X116511785Y-105180952D02*
X116559404Y-105133333D01*
X116654642Y-105085714D01*
X116797500Y-105085714D01*
X116892738Y-105133333D01*
X116940357Y-105228571D01*
X116940357Y-105752380D01*
X117416547Y-105657142D02*
X117464166Y-105704761D01*
X117416547Y-105752380D01*
X117368928Y-105704761D01*
X117416547Y-105657142D01*
X117416547Y-105752380D01*
X117416547Y-105133333D02*
X117464166Y-105180952D01*
X117416547Y-105228571D01*
X117368928Y-105180952D01*
X117416547Y-105133333D01*
X117416547Y-105228571D01*
X118654642Y-105752380D02*
X118654642Y-104752380D01*
X118987976Y-105466666D01*
X119321309Y-104752380D01*
X119321309Y-105752380D01*
X120178452Y-105704761D02*
X120083214Y-105752380D01*
X119892738Y-105752380D01*
X119797500Y-105704761D01*
X119749880Y-105609523D01*
X119749880Y-105228571D01*
X119797500Y-105133333D01*
X119892738Y-105085714D01*
X120083214Y-105085714D01*
X120178452Y-105133333D01*
X120226071Y-105228571D01*
X120226071Y-105323809D01*
X119749880Y-105419047D01*
X120607023Y-105704761D02*
X120702261Y-105752380D01*
X120892738Y-105752380D01*
X120987976Y-105704761D01*
X121035595Y-105609523D01*
X121035595Y-105561904D01*
X120987976Y-105466666D01*
X120892738Y-105419047D01*
X120749880Y-105419047D01*
X120654642Y-105371428D01*
X120607023Y-105276190D01*
X120607023Y-105228571D01*
X120654642Y-105133333D01*
X120749880Y-105085714D01*
X120892738Y-105085714D01*
X120987976Y-105133333D01*
X121416547Y-105704761D02*
X121511785Y-105752380D01*
X121702261Y-105752380D01*
X121797500Y-105704761D01*
X121845119Y-105609523D01*
X121845119Y-105561904D01*
X121797500Y-105466666D01*
X121702261Y-105419047D01*
X121559404Y-105419047D01*
X121464166Y-105371428D01*
X121416547Y-105276190D01*
X121416547Y-105228571D01*
X121464166Y-105133333D01*
X121559404Y-105085714D01*
X121702261Y-105085714D01*
X121797500Y-105133333D01*
X122273690Y-105752380D02*
X122273690Y-105085714D01*
X122273690Y-104752380D02*
X122226071Y-104800000D01*
X122273690Y-104847619D01*
X122321309Y-104800000D01*
X122273690Y-104752380D01*
X122273690Y-104847619D01*
X122749880Y-105085714D02*
X122749880Y-105752380D01*
X122749880Y-105180952D02*
X122797500Y-105133333D01*
X122892738Y-105085714D01*
X123035595Y-105085714D01*
X123130833Y-105133333D01*
X123178452Y-105228571D01*
X123178452Y-105752380D01*
X124083214Y-105085714D02*
X124083214Y-105895238D01*
X124035595Y-105990476D01*
X123987976Y-106038095D01*
X123892738Y-106085714D01*
X123749880Y-106085714D01*
X123654642Y-106038095D01*
X124083214Y-105704761D02*
X123987976Y-105752380D01*
X123797500Y-105752380D01*
X123702261Y-105704761D01*
X123654642Y-105657142D01*
X123607023Y-105561904D01*
X123607023Y-105276190D01*
X123654642Y-105180952D01*
X123702261Y-105133333D01*
X123797500Y-105085714D01*
X123987976Y-105085714D01*
X124083214Y-105133333D01*
X124511785Y-105704761D02*
X124607023Y-105752380D01*
X124797500Y-105752380D01*
X124892738Y-105704761D01*
X124940357Y-105609523D01*
X124940357Y-105561904D01*
X124892738Y-105466666D01*
X124797500Y-105419047D01*
X124654642Y-105419047D01*
X124559404Y-105371428D01*
X124511785Y-105276190D01*
X124511785Y-105228571D01*
X124559404Y-105133333D01*
X124654642Y-105085714D01*
X124797500Y-105085714D01*
X124892738Y-105133333D01*
X125226071Y-105085714D02*
X125607023Y-105085714D01*
X125368928Y-104752380D02*
X125368928Y-105609523D01*
X125416547Y-105704761D01*
X125511785Y-105752380D01*
X125607023Y-105752380D01*
X126368928Y-105752380D02*
X126368928Y-105228571D01*
X126321309Y-105133333D01*
X126226071Y-105085714D01*
X126035595Y-105085714D01*
X125940357Y-105133333D01*
X126368928Y-105704761D02*
X126273690Y-105752380D01*
X126035595Y-105752380D01*
X125940357Y-105704761D01*
X125892738Y-105609523D01*
X125892738Y-105514285D01*
X125940357Y-105419047D01*
X126035595Y-105371428D01*
X126273690Y-105371428D01*
X126368928Y-105323809D01*
X126845119Y-105752380D02*
X126845119Y-104752380D01*
X126845119Y-105133333D02*
X126940357Y-105085714D01*
X127130833Y-105085714D01*
X127226071Y-105133333D01*
X127273690Y-105180952D01*
X127321309Y-105276190D01*
X127321309Y-105561904D01*
X127273690Y-105657142D01*
X127226071Y-105704761D01*
X127130833Y-105752380D01*
X126940357Y-105752380D01*
X126845119Y-105704761D01*
X129035595Y-105752380D02*
X128464166Y-105752380D01*
X128749880Y-105752380D02*
X128749880Y-104752380D01*
X128654642Y-104895238D01*
X128559404Y-104990476D01*
X128464166Y-105038095D01*
X129511785Y-105704761D02*
X129511785Y-105752380D01*
X129464166Y-105847619D01*
X129416547Y-105895238D01*
X130416547Y-104752380D02*
X129940357Y-104752380D01*
X129892738Y-105228571D01*
X129940357Y-105180952D01*
X130035595Y-105133333D01*
X130273690Y-105133333D01*
X130368928Y-105180952D01*
X130416547Y-105228571D01*
X130464166Y-105323809D01*
X130464166Y-105561904D01*
X130416547Y-105657142D01*
X130368928Y-105704761D01*
X130273690Y-105752380D01*
X130035595Y-105752380D01*
X129940357Y-105704761D01*
X129892738Y-105657142D01*
X130797500Y-105752380D02*
X131321309Y-105085714D01*
X130797500Y-105085714D02*
X131321309Y-105752380D01*
X131607023Y-104752380D02*
X132226071Y-104752380D01*
X131892738Y-105133333D01*
X132035595Y-105133333D01*
X132130833Y-105180952D01*
X132178452Y-105228571D01*
X132226071Y-105323809D01*
X132226071Y-105561904D01*
X132178452Y-105657142D01*
X132130833Y-105704761D01*
X132035595Y-105752380D01*
X131749880Y-105752380D01*
X131654642Y-105704761D01*
X131607023Y-105657142D01*
X132702261Y-105704761D02*
X132702261Y-105752380D01*
X132654642Y-105847619D01*
X132607023Y-105895238D01*
X133321309Y-104752380D02*
X133416547Y-104752380D01*
X133511785Y-104800000D01*
X133559404Y-104847619D01*
X133607023Y-104942857D01*
X133654642Y-105133333D01*
X133654642Y-105371428D01*
X133607023Y-105561904D01*
X133559404Y-105657142D01*
X133511785Y-105704761D01*
X133416547Y-105752380D01*
X133321309Y-105752380D01*
X133226071Y-105704761D01*
X133178452Y-105657142D01*
X133130833Y-105561904D01*
X133083214Y-105371428D01*
X133083214Y-105133333D01*
X133130833Y-104942857D01*
X133178452Y-104847619D01*
X133226071Y-104800000D01*
X133321309Y-104752380D01*
X133987976Y-105752380D02*
X134511785Y-105085714D01*
X133987976Y-105085714D02*
X134511785Y-105752380D01*
X135416547Y-105752380D02*
X134845119Y-105752380D01*
X135130833Y-105752380D02*
X135130833Y-104752380D01*
X135035595Y-104895238D01*
X134940357Y-104990476D01*
X134845119Y-105038095D01*
X135749880Y-104752380D02*
X136368928Y-104752380D01*
X136035595Y-105133333D01*
X136178452Y-105133333D01*
X136273690Y-105180952D01*
X136321309Y-105228571D01*
X136368928Y-105323809D01*
X136368928Y-105561904D01*
X136321309Y-105657142D01*
X136273690Y-105704761D01*
X136178452Y-105752380D01*
X135892738Y-105752380D01*
X135797500Y-105704761D01*
X135749880Y-105657142D01*
X136845119Y-105704761D02*
X136845119Y-105752380D01*
X136797500Y-105847619D01*
X136749880Y-105895238D01*
X137464166Y-104752380D02*
X137559404Y-104752380D01*
X137654642Y-104800000D01*
X137702261Y-104847619D01*
X137749880Y-104942857D01*
X137797500Y-105133333D01*
X137797500Y-105371428D01*
X137749880Y-105561904D01*
X137702261Y-105657142D01*
X137654642Y-105704761D01*
X137559404Y-105752380D01*
X137464166Y-105752380D01*
X137368928Y-105704761D01*
X137321309Y-105657142D01*
X137273690Y-105561904D01*
X137226071Y-105371428D01*
X137226071Y-105133333D01*
X137273690Y-104942857D01*
X137321309Y-104847619D01*
X137368928Y-104800000D01*
X137464166Y-104752380D01*
X138226071Y-105752380D02*
X138226071Y-105085714D01*
X138226071Y-105180952D02*
X138273690Y-105133333D01*
X138368928Y-105085714D01*
X138511785Y-105085714D01*
X138607023Y-105133333D01*
X138654642Y-105228571D01*
X138654642Y-105752380D01*
X138654642Y-105228571D02*
X138702261Y-105133333D01*
X138797500Y-105085714D01*
X138940357Y-105085714D01*
X139035595Y-105133333D01*
X139083214Y-105228571D01*
X139083214Y-105752380D01*
X139559404Y-105752380D02*
X139559404Y-105085714D01*
X139559404Y-105180952D02*
X139607023Y-105133333D01*
X139702261Y-105085714D01*
X139845119Y-105085714D01*
X139940357Y-105133333D01*
X139987976Y-105228571D01*
X139987976Y-105752380D01*
X139987976Y-105228571D02*
X140035595Y-105133333D01*
X140130833Y-105085714D01*
X140273690Y-105085714D01*
X140368928Y-105133333D01*
X140416547Y-105228571D01*
X140416547Y-105752380D01*
X140892738Y-105657142D02*
X140940357Y-105704761D01*
X140892738Y-105752380D01*
X140845119Y-105704761D01*
X140892738Y-105657142D01*
X140892738Y-105752380D01*
X141987976Y-104752380D02*
X142321309Y-105752380D01*
X142654642Y-104752380D01*
X143130833Y-105752380D02*
X143035595Y-105704761D01*
X142987976Y-105657142D01*
X142940357Y-105561904D01*
X142940357Y-105276190D01*
X142987976Y-105180952D01*
X143035595Y-105133333D01*
X143130833Y-105085714D01*
X143273690Y-105085714D01*
X143368928Y-105133333D01*
X143416547Y-105180952D01*
X143464166Y-105276190D01*
X143464166Y-105561904D01*
X143416547Y-105657142D01*
X143368928Y-105704761D01*
X143273690Y-105752380D01*
X143130833Y-105752380D01*
X143892738Y-105752380D02*
X143892738Y-105085714D01*
X143892738Y-105276190D02*
X143940357Y-105180952D01*
X143987976Y-105133333D01*
X144083214Y-105085714D01*
X144178452Y-105085714D01*
X144511785Y-105085714D02*
X144511785Y-105752380D01*
X144511785Y-105180952D02*
X144559404Y-105133333D01*
X144654642Y-105085714D01*
X144797500Y-105085714D01*
X144892738Y-105133333D01*
X144940357Y-105228571D01*
X144940357Y-105752380D01*
X146130833Y-105704761D02*
X146226071Y-105752380D01*
X146416547Y-105752380D01*
X146511785Y-105704761D01*
X146559404Y-105609523D01*
X146559404Y-105561904D01*
X146511785Y-105466666D01*
X146416547Y-105419047D01*
X146273690Y-105419047D01*
X146178452Y-105371428D01*
X146130833Y-105276190D01*
X146130833Y-105228571D01*
X146178452Y-105133333D01*
X146273690Y-105085714D01*
X146416547Y-105085714D01*
X146511785Y-105133333D01*
X146987976Y-105085714D02*
X146987976Y-106085714D01*
X146987976Y-105133333D02*
X147083214Y-105085714D01*
X147273690Y-105085714D01*
X147368928Y-105133333D01*
X147416547Y-105180952D01*
X147464166Y-105276190D01*
X147464166Y-105561904D01*
X147416547Y-105657142D01*
X147368928Y-105704761D01*
X147273690Y-105752380D01*
X147083214Y-105752380D01*
X146987976Y-105704761D01*
X147892738Y-105752380D02*
X147892738Y-105085714D01*
X147892738Y-104752380D02*
X147845119Y-104800000D01*
X147892738Y-104847619D01*
X147940357Y-104800000D01*
X147892738Y-104752380D01*
X147892738Y-104847619D01*
X148226071Y-105085714D02*
X148607023Y-105085714D01*
X148368928Y-104752380D02*
X148368928Y-105609523D01*
X148416547Y-105704761D01*
X148511785Y-105752380D01*
X148607023Y-105752380D01*
X148845119Y-105085714D02*
X149368928Y-105085714D01*
X148845119Y-105752380D01*
X149368928Y-105752380D01*
X150416547Y-105085714D02*
X150940357Y-105085714D01*
X150416547Y-105752380D01*
X150940357Y-105752380D01*
X151749880Y-105085714D02*
X151749880Y-105752380D01*
X151321309Y-105085714D02*
X151321309Y-105609523D01*
X151368928Y-105704761D01*
X151464166Y-105752380D01*
X151607023Y-105752380D01*
X151702261Y-105704761D01*
X151749880Y-105657142D01*
X152368928Y-105752380D02*
X152273690Y-105704761D01*
X152226071Y-105609523D01*
X152226071Y-104752380D01*
X153178452Y-105752380D02*
X153178452Y-105228571D01*
X153130833Y-105133333D01*
X153035595Y-105085714D01*
X152845119Y-105085714D01*
X152749880Y-105133333D01*
X153178452Y-105704761D02*
X153083214Y-105752380D01*
X152845119Y-105752380D01*
X152749880Y-105704761D01*
X152702261Y-105609523D01*
X152702261Y-105514285D01*
X152749880Y-105419047D01*
X152845119Y-105371428D01*
X153083214Y-105371428D01*
X153178452Y-105323809D01*
X154083214Y-105085714D02*
X154083214Y-105752380D01*
X153654642Y-105085714D02*
X153654642Y-105609523D01*
X153702261Y-105704761D01*
X153797499Y-105752380D01*
X153940357Y-105752380D01*
X154035595Y-105704761D01*
X154083214Y-105657142D01*
X154416547Y-105085714D02*
X154797499Y-105085714D01*
X154559404Y-105752380D02*
X154559404Y-104895238D01*
X154607023Y-104800000D01*
X154702261Y-104752380D01*
X154797499Y-104752380D01*
X155511785Y-105704761D02*
X155416547Y-105752380D01*
X155226071Y-105752380D01*
X155130833Y-105704761D01*
X155083214Y-105609523D01*
X155083214Y-105228571D01*
X155130833Y-105133333D01*
X155226071Y-105085714D01*
X155416547Y-105085714D01*
X155511785Y-105133333D01*
X155559404Y-105228571D01*
X155559404Y-105323809D01*
X155083214Y-105419047D01*
X155987976Y-105085714D02*
X155987976Y-105752380D01*
X155987976Y-105180952D02*
X156035595Y-105133333D01*
X156130833Y-105085714D01*
X156273690Y-105085714D01*
X156368928Y-105133333D01*
X156416547Y-105228571D01*
X156416547Y-105752380D01*
X157321309Y-105752380D02*
X157321309Y-104752380D01*
X157321309Y-105704761D02*
X157226071Y-105752380D01*
X157035595Y-105752380D01*
X156940357Y-105704761D01*
X156892738Y-105657142D01*
X156845119Y-105561904D01*
X156845119Y-105276190D01*
X156892738Y-105180952D01*
X156940357Y-105133333D01*
X157035595Y-105085714D01*
X157226071Y-105085714D01*
X157321309Y-105133333D01*
X157797499Y-105657142D02*
X157845119Y-105704761D01*
X157797499Y-105752380D01*
X157749880Y-105704761D01*
X157797499Y-105657142D01*
X157797499Y-105752380D01*
%TO.C,J101*%
X126152380Y-76785714D02*
X126866666Y-76785714D01*
X127009523Y-76833333D01*
X127104761Y-76928571D01*
X127152380Y-77071428D01*
X127152380Y-77166666D01*
X127152380Y-75785714D02*
X127152380Y-76357142D01*
X127152380Y-76071428D02*
X126152380Y-76071428D01*
X126295238Y-76166666D01*
X126390476Y-76261904D01*
X126438095Y-76357142D01*
X126152380Y-75166666D02*
X126152380Y-75071428D01*
X126200000Y-74976190D01*
X126247619Y-74928571D01*
X126342857Y-74880952D01*
X126533333Y-74833333D01*
X126771428Y-74833333D01*
X126961904Y-74880952D01*
X127057142Y-74928571D01*
X127104761Y-74976190D01*
X127152380Y-75071428D01*
X127152380Y-75166666D01*
X127104761Y-75261904D01*
X127057142Y-75309523D01*
X126961904Y-75357142D01*
X126771428Y-75404761D01*
X126533333Y-75404761D01*
X126342857Y-75357142D01*
X126247619Y-75309523D01*
X126200000Y-75261904D01*
X126152380Y-75166666D01*
X127152380Y-73880952D02*
X127152380Y-74452380D01*
X127152380Y-74166666D02*
X126152380Y-74166666D01*
X126295238Y-74261904D01*
X126390476Y-74357142D01*
X126438095Y-74452380D01*
%TO.C,J104*%
X144352380Y-88785714D02*
X145066666Y-88785714D01*
X145209523Y-88833333D01*
X145304761Y-88928571D01*
X145352380Y-89071428D01*
X145352380Y-89166666D01*
X145352380Y-87785714D02*
X145352380Y-88357142D01*
X145352380Y-88071428D02*
X144352380Y-88071428D01*
X144495238Y-88166666D01*
X144590476Y-88261904D01*
X144638095Y-88357142D01*
X144352380Y-87166666D02*
X144352380Y-87071428D01*
X144400000Y-86976190D01*
X144447619Y-86928571D01*
X144542857Y-86880952D01*
X144733333Y-86833333D01*
X144971428Y-86833333D01*
X145161904Y-86880952D01*
X145257142Y-86928571D01*
X145304761Y-86976190D01*
X145352380Y-87071428D01*
X145352380Y-87166666D01*
X145304761Y-87261904D01*
X145257142Y-87309523D01*
X145161904Y-87357142D01*
X144971428Y-87404761D01*
X144733333Y-87404761D01*
X144542857Y-87357142D01*
X144447619Y-87309523D01*
X144400000Y-87261904D01*
X144352380Y-87166666D01*
X144685714Y-85976190D02*
X145352380Y-85976190D01*
X144304761Y-86214285D02*
X145019047Y-86452380D01*
X145019047Y-85833333D01*
%TO.C,J106*%
X119652380Y-95285714D02*
X120366666Y-95285714D01*
X120509523Y-95333333D01*
X120604761Y-95428571D01*
X120652380Y-95571428D01*
X120652380Y-95666666D01*
X120652380Y-94285714D02*
X120652380Y-94857142D01*
X120652380Y-94571428D02*
X119652380Y-94571428D01*
X119795238Y-94666666D01*
X119890476Y-94761904D01*
X119938095Y-94857142D01*
X119652380Y-93666666D02*
X119652380Y-93571428D01*
X119700000Y-93476190D01*
X119747619Y-93428571D01*
X119842857Y-93380952D01*
X120033333Y-93333333D01*
X120271428Y-93333333D01*
X120461904Y-93380952D01*
X120557142Y-93428571D01*
X120604761Y-93476190D01*
X120652380Y-93571428D01*
X120652380Y-93666666D01*
X120604761Y-93761904D01*
X120557142Y-93809523D01*
X120461904Y-93857142D01*
X120271428Y-93904761D01*
X120033333Y-93904761D01*
X119842857Y-93857142D01*
X119747619Y-93809523D01*
X119700000Y-93761904D01*
X119652380Y-93666666D01*
X119652380Y-92476190D02*
X119652380Y-92666666D01*
X119700000Y-92761904D01*
X119747619Y-92809523D01*
X119890476Y-92904761D01*
X120080952Y-92952380D01*
X120461904Y-92952380D01*
X120557142Y-92904761D01*
X120604761Y-92857142D01*
X120652380Y-92761904D01*
X120652380Y-92571428D01*
X120604761Y-92476190D01*
X120557142Y-92428571D01*
X120461904Y-92380952D01*
X120223809Y-92380952D01*
X120128571Y-92428571D01*
X120080952Y-92476190D01*
X120033333Y-92571428D01*
X120033333Y-92761904D01*
X120080952Y-92857142D01*
X120128571Y-92904761D01*
X120223809Y-92952380D01*
%TO.C,J105*%
X144152380Y-73785714D02*
X144866666Y-73785714D01*
X145009523Y-73833333D01*
X145104761Y-73928571D01*
X145152380Y-74071428D01*
X145152380Y-74166666D01*
X145152380Y-72785714D02*
X145152380Y-73357142D01*
X145152380Y-73071428D02*
X144152380Y-73071428D01*
X144295238Y-73166666D01*
X144390476Y-73261904D01*
X144438095Y-73357142D01*
X144152380Y-72166666D02*
X144152380Y-72071428D01*
X144200000Y-71976190D01*
X144247619Y-71928571D01*
X144342857Y-71880952D01*
X144533333Y-71833333D01*
X144771428Y-71833333D01*
X144961904Y-71880952D01*
X145057142Y-71928571D01*
X145104761Y-71976190D01*
X145152380Y-72071428D01*
X145152380Y-72166666D01*
X145104761Y-72261904D01*
X145057142Y-72309523D01*
X144961904Y-72357142D01*
X144771428Y-72404761D01*
X144533333Y-72404761D01*
X144342857Y-72357142D01*
X144247619Y-72309523D01*
X144200000Y-72261904D01*
X144152380Y-72166666D01*
X144152380Y-70928571D02*
X144152380Y-71404761D01*
X144628571Y-71452380D01*
X144580952Y-71404761D01*
X144533333Y-71309523D01*
X144533333Y-71071428D01*
X144580952Y-70976190D01*
X144628571Y-70928571D01*
X144723809Y-70880952D01*
X144961904Y-70880952D01*
X145057142Y-70928571D01*
X145104761Y-70976190D01*
X145152380Y-71071428D01*
X145152380Y-71309523D01*
X145104761Y-71404761D01*
X145057142Y-71452380D01*
%TO.C,J103*%
X126152380Y-85685714D02*
X126866666Y-85685714D01*
X127009523Y-85733333D01*
X127104761Y-85828571D01*
X127152380Y-85971428D01*
X127152380Y-86066666D01*
X127152380Y-84685714D02*
X127152380Y-85257142D01*
X127152380Y-84971428D02*
X126152380Y-84971428D01*
X126295238Y-85066666D01*
X126390476Y-85161904D01*
X126438095Y-85257142D01*
X126152380Y-84066666D02*
X126152380Y-83971428D01*
X126200000Y-83876190D01*
X126247619Y-83828571D01*
X126342857Y-83780952D01*
X126533333Y-83733333D01*
X126771428Y-83733333D01*
X126961904Y-83780952D01*
X127057142Y-83828571D01*
X127104761Y-83876190D01*
X127152380Y-83971428D01*
X127152380Y-84066666D01*
X127104761Y-84161904D01*
X127057142Y-84209523D01*
X126961904Y-84257142D01*
X126771428Y-84304761D01*
X126533333Y-84304761D01*
X126342857Y-84257142D01*
X126247619Y-84209523D01*
X126200000Y-84161904D01*
X126152380Y-84066666D01*
X126152380Y-83400000D02*
X126152380Y-82780952D01*
X126533333Y-83114285D01*
X126533333Y-82971428D01*
X126580952Y-82876190D01*
X126628571Y-82828571D01*
X126723809Y-82780952D01*
X126961904Y-82780952D01*
X127057142Y-82828571D01*
X127104761Y-82876190D01*
X127152380Y-82971428D01*
X127152380Y-83257142D01*
X127104761Y-83352380D01*
X127057142Y-83400000D01*
%TO.C,J102*%
X125152380Y-66385714D02*
X125866666Y-66385714D01*
X126009523Y-66433333D01*
X126104761Y-66528571D01*
X126152380Y-66671428D01*
X126152380Y-66766666D01*
X126152380Y-65385714D02*
X126152380Y-65957142D01*
X126152380Y-65671428D02*
X125152380Y-65671428D01*
X125295238Y-65766666D01*
X125390476Y-65861904D01*
X125438095Y-65957142D01*
X125152380Y-64766666D02*
X125152380Y-64671428D01*
X125200000Y-64576190D01*
X125247619Y-64528571D01*
X125342857Y-64480952D01*
X125533333Y-64433333D01*
X125771428Y-64433333D01*
X125961904Y-64480952D01*
X126057142Y-64528571D01*
X126104761Y-64576190D01*
X126152380Y-64671428D01*
X126152380Y-64766666D01*
X126104761Y-64861904D01*
X126057142Y-64909523D01*
X125961904Y-64957142D01*
X125771428Y-65004761D01*
X125533333Y-65004761D01*
X125342857Y-64957142D01*
X125247619Y-64909523D01*
X125200000Y-64861904D01*
X125152380Y-64766666D01*
X125247619Y-64052380D02*
X125200000Y-64004761D01*
X125152380Y-63909523D01*
X125152380Y-63671428D01*
X125200000Y-63576190D01*
X125247619Y-63528571D01*
X125342857Y-63480952D01*
X125438095Y-63480952D01*
X125580952Y-63528571D01*
X126152380Y-64100000D01*
X126152380Y-63480952D01*
%TO.C,*%
X115035595Y-111952380D02*
X115035595Y-110952380D01*
X115368928Y-111666666D01*
X115702261Y-110952380D01*
X115702261Y-111952380D01*
X116178452Y-111952380D02*
X116178452Y-111285714D01*
X116178452Y-110952380D02*
X116130833Y-111000000D01*
X116178452Y-111047619D01*
X116226071Y-111000000D01*
X116178452Y-110952380D01*
X116178452Y-111047619D01*
X116511785Y-111285714D02*
X116892738Y-111285714D01*
X116654642Y-110952380D02*
X116654642Y-111809523D01*
X116702261Y-111904761D01*
X116797500Y-111952380D01*
X116892738Y-111952380D01*
X117083214Y-111285714D02*
X117464166Y-111285714D01*
X117226071Y-110952380D02*
X117226071Y-111809523D01*
X117273690Y-111904761D01*
X117368928Y-111952380D01*
X117464166Y-111952380D01*
X118178452Y-111904761D02*
X118083214Y-111952380D01*
X117892738Y-111952380D01*
X117797500Y-111904761D01*
X117749880Y-111809523D01*
X117749880Y-111428571D01*
X117797500Y-111333333D01*
X117892738Y-111285714D01*
X118083214Y-111285714D01*
X118178452Y-111333333D01*
X118226071Y-111428571D01*
X118226071Y-111523809D01*
X117749880Y-111619047D01*
X118797500Y-111952380D02*
X118702261Y-111904761D01*
X118654642Y-111809523D01*
X118654642Y-110952380D01*
X119130833Y-111904761D02*
X119226071Y-111952380D01*
X119416547Y-111952380D01*
X119511785Y-111904761D01*
X119559404Y-111809523D01*
X119559404Y-111761904D01*
X119511785Y-111666666D01*
X119416547Y-111619047D01*
X119273690Y-111619047D01*
X119178452Y-111571428D01*
X119130833Y-111476190D01*
X119130833Y-111428571D01*
X119178452Y-111333333D01*
X119273690Y-111285714D01*
X119416547Y-111285714D01*
X119511785Y-111333333D01*
X119845119Y-111285714D02*
X120226071Y-111285714D01*
X119987976Y-110952380D02*
X119987976Y-111809523D01*
X120035595Y-111904761D01*
X120130833Y-111952380D01*
X120226071Y-111952380D01*
X120987976Y-111952380D02*
X120987976Y-111428571D01*
X120940357Y-111333333D01*
X120845119Y-111285714D01*
X120654642Y-111285714D01*
X120559404Y-111333333D01*
X120987976Y-111904761D02*
X120892738Y-111952380D01*
X120654642Y-111952380D01*
X120559404Y-111904761D01*
X120511785Y-111809523D01*
X120511785Y-111714285D01*
X120559404Y-111619047D01*
X120654642Y-111571428D01*
X120892738Y-111571428D01*
X120987976Y-111523809D01*
X121464166Y-111952380D02*
X121464166Y-110952380D01*
X121464166Y-111333333D02*
X121559404Y-111285714D01*
X121749880Y-111285714D01*
X121845119Y-111333333D01*
X121892738Y-111380952D01*
X121940357Y-111476190D01*
X121940357Y-111761904D01*
X121892738Y-111857142D01*
X121845119Y-111904761D01*
X121749880Y-111952380D01*
X121559404Y-111952380D01*
X121464166Y-111904761D01*
X122368928Y-111857142D02*
X122416547Y-111904761D01*
X122368928Y-111952380D01*
X122321309Y-111904761D01*
X122368928Y-111857142D01*
X122368928Y-111952380D01*
X122368928Y-111333333D02*
X122416547Y-111380952D01*
X122368928Y-111428571D01*
X122321309Y-111380952D01*
X122368928Y-111333333D01*
X122368928Y-111428571D01*
X123607023Y-111952380D02*
X123607023Y-110952380D01*
X123607023Y-111428571D02*
X124178452Y-111428571D01*
X124178452Y-111952380D02*
X124178452Y-110952380D01*
X124797500Y-111952380D02*
X124702261Y-111904761D01*
X124654642Y-111857142D01*
X124607023Y-111761904D01*
X124607023Y-111476190D01*
X124654642Y-111380952D01*
X124702261Y-111333333D01*
X124797500Y-111285714D01*
X124940357Y-111285714D01*
X125035595Y-111333333D01*
X125083214Y-111380952D01*
X125130833Y-111476190D01*
X125130833Y-111761904D01*
X125083214Y-111857142D01*
X125035595Y-111904761D01*
X124940357Y-111952380D01*
X124797500Y-111952380D01*
X125702261Y-111952380D02*
X125607023Y-111904761D01*
X125559404Y-111809523D01*
X125559404Y-110952380D01*
X125987976Y-111285714D02*
X126511785Y-111285714D01*
X125987976Y-111952380D01*
X126511785Y-111952380D01*
X128083214Y-110952380D02*
X127892738Y-110952380D01*
X127797500Y-111000000D01*
X127749880Y-111047619D01*
X127654642Y-111190476D01*
X127607023Y-111380952D01*
X127607023Y-111761904D01*
X127654642Y-111857142D01*
X127702261Y-111904761D01*
X127797500Y-111952380D01*
X127987976Y-111952380D01*
X128083214Y-111904761D01*
X128130833Y-111857142D01*
X128178452Y-111761904D01*
X128178452Y-111523809D01*
X128130833Y-111428571D01*
X128083214Y-111380952D01*
X127987976Y-111333333D01*
X127797500Y-111333333D01*
X127702261Y-111380952D01*
X127654642Y-111428571D01*
X127607023Y-111523809D01*
X128654642Y-111904761D02*
X128654642Y-111952380D01*
X128607023Y-112047619D01*
X128559404Y-112095238D01*
X129273690Y-110952380D02*
X129368928Y-110952380D01*
X129464166Y-111000000D01*
X129511785Y-111047619D01*
X129559404Y-111142857D01*
X129607023Y-111333333D01*
X129607023Y-111571428D01*
X129559404Y-111761904D01*
X129511785Y-111857142D01*
X129464166Y-111904761D01*
X129368928Y-111952380D01*
X129273690Y-111952380D01*
X129178452Y-111904761D01*
X129130833Y-111857142D01*
X129083214Y-111761904D01*
X129035595Y-111571428D01*
X129035595Y-111333333D01*
X129083214Y-111142857D01*
X129130833Y-111047619D01*
X129178452Y-111000000D01*
X129273690Y-110952380D01*
X129940357Y-111952380D02*
X130464166Y-111285714D01*
X129940357Y-111285714D02*
X130464166Y-111952380D01*
X131273690Y-111285714D02*
X131273690Y-111952380D01*
X131035595Y-110904761D02*
X130797500Y-111619047D01*
X131416547Y-111619047D01*
X131987976Y-110952380D02*
X132083214Y-110952380D01*
X132178452Y-111000000D01*
X132226071Y-111047619D01*
X132273690Y-111142857D01*
X132321309Y-111333333D01*
X132321309Y-111571428D01*
X132273690Y-111761904D01*
X132226071Y-111857142D01*
X132178452Y-111904761D01*
X132083214Y-111952380D01*
X131987976Y-111952380D01*
X131892738Y-111904761D01*
X131845119Y-111857142D01*
X131797500Y-111761904D01*
X131749880Y-111571428D01*
X131749880Y-111333333D01*
X131797500Y-111142857D01*
X131845119Y-111047619D01*
X131892738Y-111000000D01*
X131987976Y-110952380D01*
X132797500Y-111904761D02*
X132797500Y-111952380D01*
X132749880Y-112047619D01*
X132702261Y-112095238D01*
X133416547Y-110952380D02*
X133511785Y-110952380D01*
X133607023Y-111000000D01*
X133654642Y-111047619D01*
X133702261Y-111142857D01*
X133749880Y-111333333D01*
X133749880Y-111571428D01*
X133702261Y-111761904D01*
X133654642Y-111857142D01*
X133607023Y-111904761D01*
X133511785Y-111952380D01*
X133416547Y-111952380D01*
X133321309Y-111904761D01*
X133273690Y-111857142D01*
X133226071Y-111761904D01*
X133178452Y-111571428D01*
X133178452Y-111333333D01*
X133226071Y-111142857D01*
X133273690Y-111047619D01*
X133321309Y-111000000D01*
X133416547Y-110952380D01*
X134178452Y-111952380D02*
X134178452Y-111285714D01*
X134178452Y-111380952D02*
X134226071Y-111333333D01*
X134321309Y-111285714D01*
X134464166Y-111285714D01*
X134559404Y-111333333D01*
X134607023Y-111428571D01*
X134607023Y-111952380D01*
X134607023Y-111428571D02*
X134654642Y-111333333D01*
X134749880Y-111285714D01*
X134892738Y-111285714D01*
X134987976Y-111333333D01*
X135035595Y-111428571D01*
X135035595Y-111952380D01*
X135511785Y-111952380D02*
X135511785Y-111285714D01*
X135511785Y-111380952D02*
X135559404Y-111333333D01*
X135654642Y-111285714D01*
X135797500Y-111285714D01*
X135892738Y-111333333D01*
X135940357Y-111428571D01*
X135940357Y-111952380D01*
X135940357Y-111428571D02*
X135987976Y-111333333D01*
X136083214Y-111285714D01*
X136226071Y-111285714D01*
X136321309Y-111333333D01*
X136368928Y-111428571D01*
X136368928Y-111952380D01*
X136845119Y-111857142D02*
X136892738Y-111904761D01*
X136845119Y-111952380D01*
X136797500Y-111904761D01*
X136845119Y-111857142D01*
X136845119Y-111952380D01*
X137940357Y-110952380D02*
X138273690Y-111952380D01*
X138607023Y-110952380D01*
X139083214Y-111952380D02*
X138987976Y-111904761D01*
X138940357Y-111857142D01*
X138892738Y-111761904D01*
X138892738Y-111476190D01*
X138940357Y-111380952D01*
X138987976Y-111333333D01*
X139083214Y-111285714D01*
X139226071Y-111285714D01*
X139321309Y-111333333D01*
X139368928Y-111380952D01*
X139416547Y-111476190D01*
X139416547Y-111761904D01*
X139368928Y-111857142D01*
X139321309Y-111904761D01*
X139226071Y-111952380D01*
X139083214Y-111952380D01*
X139845119Y-111952380D02*
X139845119Y-111285714D01*
X139845119Y-111476190D02*
X139892738Y-111380952D01*
X139940357Y-111333333D01*
X140035595Y-111285714D01*
X140130833Y-111285714D01*
X140464166Y-111285714D02*
X140464166Y-111952380D01*
X140464166Y-111380952D02*
X140511785Y-111333333D01*
X140607023Y-111285714D01*
X140749880Y-111285714D01*
X140845119Y-111333333D01*
X140892738Y-111428571D01*
X140892738Y-111952380D01*
X142083214Y-111904761D02*
X142178452Y-111952380D01*
X142368928Y-111952380D01*
X142464166Y-111904761D01*
X142511785Y-111809523D01*
X142511785Y-111761904D01*
X142464166Y-111666666D01*
X142368928Y-111619047D01*
X142226071Y-111619047D01*
X142130833Y-111571428D01*
X142083214Y-111476190D01*
X142083214Y-111428571D01*
X142130833Y-111333333D01*
X142226071Y-111285714D01*
X142368928Y-111285714D01*
X142464166Y-111333333D01*
X142940357Y-111285714D02*
X142940357Y-112285714D01*
X142940357Y-111333333D02*
X143035595Y-111285714D01*
X143226071Y-111285714D01*
X143321309Y-111333333D01*
X143368928Y-111380952D01*
X143416547Y-111476190D01*
X143416547Y-111761904D01*
X143368928Y-111857142D01*
X143321309Y-111904761D01*
X143226071Y-111952380D01*
X143035595Y-111952380D01*
X142940357Y-111904761D01*
X143845119Y-111952380D02*
X143845119Y-111285714D01*
X143845119Y-110952380D02*
X143797500Y-111000000D01*
X143845119Y-111047619D01*
X143892738Y-111000000D01*
X143845119Y-110952380D01*
X143845119Y-111047619D01*
X144178452Y-111285714D02*
X144559404Y-111285714D01*
X144321309Y-110952380D02*
X144321309Y-111809523D01*
X144368928Y-111904761D01*
X144464166Y-111952380D01*
X144559404Y-111952380D01*
X144797500Y-111285714D02*
X145321309Y-111285714D01*
X144797500Y-111952380D01*
X145321309Y-111952380D01*
X146368928Y-111285714D02*
X146892738Y-111285714D01*
X146368928Y-111952380D01*
X146892738Y-111952380D01*
X147702261Y-111285714D02*
X147702261Y-111952380D01*
X147273690Y-111285714D02*
X147273690Y-111809523D01*
X147321309Y-111904761D01*
X147416547Y-111952380D01*
X147559404Y-111952380D01*
X147654642Y-111904761D01*
X147702261Y-111857142D01*
X148321309Y-111952380D02*
X148226071Y-111904761D01*
X148178452Y-111809523D01*
X148178452Y-110952380D01*
X149130833Y-111952380D02*
X149130833Y-111428571D01*
X149083214Y-111333333D01*
X148987976Y-111285714D01*
X148797500Y-111285714D01*
X148702261Y-111333333D01*
X149130833Y-111904761D02*
X149035595Y-111952380D01*
X148797500Y-111952380D01*
X148702261Y-111904761D01*
X148654642Y-111809523D01*
X148654642Y-111714285D01*
X148702261Y-111619047D01*
X148797500Y-111571428D01*
X149035595Y-111571428D01*
X149130833Y-111523809D01*
X150035595Y-111285714D02*
X150035595Y-111952380D01*
X149607023Y-111285714D02*
X149607023Y-111809523D01*
X149654642Y-111904761D01*
X149749880Y-111952380D01*
X149892738Y-111952380D01*
X149987976Y-111904761D01*
X150035595Y-111857142D01*
X150368928Y-111285714D02*
X150749880Y-111285714D01*
X150511785Y-111952380D02*
X150511785Y-111095238D01*
X150559404Y-111000000D01*
X150654642Y-110952380D01*
X150749880Y-110952380D01*
X151464166Y-111904761D02*
X151368928Y-111952380D01*
X151178452Y-111952380D01*
X151083214Y-111904761D01*
X151035595Y-111809523D01*
X151035595Y-111428571D01*
X151083214Y-111333333D01*
X151178452Y-111285714D01*
X151368928Y-111285714D01*
X151464166Y-111333333D01*
X151511785Y-111428571D01*
X151511785Y-111523809D01*
X151035595Y-111619047D01*
X151940357Y-111285714D02*
X151940357Y-111952380D01*
X151940357Y-111380952D02*
X151987976Y-111333333D01*
X152083214Y-111285714D01*
X152226071Y-111285714D01*
X152321309Y-111333333D01*
X152368928Y-111428571D01*
X152368928Y-111952380D01*
X153273690Y-111952380D02*
X153273690Y-110952380D01*
X153273690Y-111904761D02*
X153178452Y-111952380D01*
X152987976Y-111952380D01*
X152892738Y-111904761D01*
X152845119Y-111857142D01*
X152797500Y-111761904D01*
X152797500Y-111476190D01*
X152845119Y-111380952D01*
X152892738Y-111333333D01*
X152987976Y-111285714D01*
X153178452Y-111285714D01*
X153273690Y-111333333D01*
X153749880Y-111857142D02*
X153797500Y-111904761D01*
X153749880Y-111952380D01*
X153702261Y-111904761D01*
X153749880Y-111857142D01*
X153749880Y-111952380D01*
X154892738Y-110952380D02*
X155130833Y-111952380D01*
X155321309Y-111238095D01*
X155511785Y-111952380D01*
X155749880Y-110952380D01*
X156130833Y-111952380D02*
X156130833Y-111285714D01*
X156130833Y-110952380D02*
X156083214Y-111000000D01*
X156130833Y-111047619D01*
X156178452Y-111000000D01*
X156130833Y-110952380D01*
X156130833Y-111047619D01*
X156607023Y-111952380D02*
X156607023Y-111285714D01*
X156607023Y-111476190D02*
X156654642Y-111380952D01*
X156702261Y-111333333D01*
X156797500Y-111285714D01*
X156892738Y-111285714D01*
X157654642Y-111952380D02*
X157654642Y-110952380D01*
X157654642Y-111904761D02*
X157559404Y-111952380D01*
X157368928Y-111952380D01*
X157273690Y-111904761D01*
X157226071Y-111857142D01*
X157178452Y-111761904D01*
X157178452Y-111476190D01*
X157226071Y-111380952D01*
X157273690Y-111333333D01*
X157368928Y-111285714D01*
X157559404Y-111285714D01*
X157654642Y-111333333D01*
X159321309Y-111952380D02*
X159321309Y-111428571D01*
X159273690Y-111333333D01*
X159178452Y-111285714D01*
X158987976Y-111285714D01*
X158892738Y-111333333D01*
X159321309Y-111904761D02*
X159226071Y-111952380D01*
X158987976Y-111952380D01*
X158892738Y-111904761D01*
X158845119Y-111809523D01*
X158845119Y-111714285D01*
X158892738Y-111619047D01*
X158987976Y-111571428D01*
X159226071Y-111571428D01*
X159321309Y-111523809D01*
X159797500Y-111285714D02*
X159797500Y-111952380D01*
X159797500Y-111380952D02*
X159845119Y-111333333D01*
X159940357Y-111285714D01*
X160083214Y-111285714D01*
X160178452Y-111333333D01*
X160226071Y-111428571D01*
X160226071Y-111952380D01*
X161464166Y-111952380D02*
X161464166Y-110952380D01*
X161464166Y-111428571D02*
X162035595Y-111428571D01*
X162035595Y-111952380D02*
X162035595Y-110952380D01*
X162940357Y-111952380D02*
X162940357Y-111428571D01*
X162892738Y-111333333D01*
X162797499Y-111285714D01*
X162607023Y-111285714D01*
X162511785Y-111333333D01*
X162940357Y-111904761D02*
X162845119Y-111952380D01*
X162607023Y-111952380D01*
X162511785Y-111904761D01*
X162464166Y-111809523D01*
X162464166Y-111714285D01*
X162511785Y-111619047D01*
X162607023Y-111571428D01*
X162845119Y-111571428D01*
X162940357Y-111523809D01*
X163845119Y-111285714D02*
X163845119Y-111952380D01*
X163416547Y-111285714D02*
X163416547Y-111809523D01*
X163464166Y-111904761D01*
X163559404Y-111952380D01*
X163702261Y-111952380D01*
X163797499Y-111904761D01*
X163845119Y-111857142D01*
X164321309Y-111285714D02*
X164321309Y-112285714D01*
X164321309Y-111333333D02*
X164416547Y-111285714D01*
X164607023Y-111285714D01*
X164702261Y-111333333D01*
X164749880Y-111380952D01*
X164797499Y-111476190D01*
X164797499Y-111761904D01*
X164749880Y-111857142D01*
X164702261Y-111904761D01*
X164607023Y-111952380D01*
X164416547Y-111952380D01*
X164321309Y-111904761D01*
X165083214Y-111285714D02*
X165464166Y-111285714D01*
X165226071Y-110952380D02*
X165226071Y-111809523D01*
X165273690Y-111904761D01*
X165368928Y-111952380D01*
X165464166Y-111952380D01*
X165797499Y-111285714D02*
X165797499Y-112285714D01*
X165797499Y-111333333D02*
X165892738Y-111285714D01*
X166083214Y-111285714D01*
X166178452Y-111333333D01*
X166226071Y-111380952D01*
X166273690Y-111476190D01*
X166273690Y-111761904D01*
X166226071Y-111857142D01*
X166178452Y-111904761D01*
X166083214Y-111952380D01*
X165892738Y-111952380D01*
X165797499Y-111904761D01*
X166845119Y-111952380D02*
X166749880Y-111904761D01*
X166702261Y-111809523D01*
X166702261Y-110952380D01*
X167654642Y-111952380D02*
X167654642Y-111428571D01*
X167607023Y-111333333D01*
X167511785Y-111285714D01*
X167321309Y-111285714D01*
X167226071Y-111333333D01*
X167654642Y-111904761D02*
X167559404Y-111952380D01*
X167321309Y-111952380D01*
X167226071Y-111904761D01*
X167178452Y-111809523D01*
X167178452Y-111714285D01*
X167226071Y-111619047D01*
X167321309Y-111571428D01*
X167559404Y-111571428D01*
X167654642Y-111523809D01*
X167987976Y-111285714D02*
X168368928Y-111285714D01*
X168130833Y-110952380D02*
X168130833Y-111809523D01*
X168178452Y-111904761D01*
X168273690Y-111952380D01*
X168368928Y-111952380D01*
X168702261Y-111952380D02*
X168702261Y-111285714D01*
X168702261Y-110952380D02*
X168654642Y-111000000D01*
X168702261Y-111047619D01*
X168749880Y-111000000D01*
X168702261Y-110952380D01*
X168702261Y-111047619D01*
X169178452Y-111285714D02*
X169178452Y-111952380D01*
X169178452Y-111380952D02*
X169226071Y-111333333D01*
X169321309Y-111285714D01*
X169464166Y-111285714D01*
X169559404Y-111333333D01*
X169607023Y-111428571D01*
X169607023Y-111952380D01*
X170464166Y-111904761D02*
X170368928Y-111952380D01*
X170178452Y-111952380D01*
X170083214Y-111904761D01*
X170035595Y-111809523D01*
X170035595Y-111428571D01*
X170083214Y-111333333D01*
X170178452Y-111285714D01*
X170368928Y-111285714D01*
X170464166Y-111333333D01*
X170511785Y-111428571D01*
X170511785Y-111523809D01*
X170035595Y-111619047D01*
X171702261Y-111952380D02*
X171702261Y-110952380D01*
X171702261Y-111333333D02*
X171797499Y-111285714D01*
X171987976Y-111285714D01*
X172083214Y-111333333D01*
X172130833Y-111380952D01*
X172178452Y-111476190D01*
X172178452Y-111761904D01*
X172130833Y-111857142D01*
X172083214Y-111904761D01*
X171987976Y-111952380D01*
X171797499Y-111952380D01*
X171702261Y-111904761D01*
X172987976Y-111904761D02*
X172892738Y-111952380D01*
X172702261Y-111952380D01*
X172607023Y-111904761D01*
X172559404Y-111809523D01*
X172559404Y-111428571D01*
X172607023Y-111333333D01*
X172702261Y-111285714D01*
X172892738Y-111285714D01*
X172987976Y-111333333D01*
X173035595Y-111428571D01*
X173035595Y-111523809D01*
X172559404Y-111619047D01*
X173321309Y-111285714D02*
X173702261Y-111285714D01*
X173464166Y-111952380D02*
X173464166Y-111095238D01*
X173511785Y-111000000D01*
X173607023Y-110952380D01*
X173702261Y-110952380D01*
X174416547Y-111904761D02*
X174321309Y-111952380D01*
X174130833Y-111952380D01*
X174035595Y-111904761D01*
X173987976Y-111809523D01*
X173987976Y-111428571D01*
X174035595Y-111333333D01*
X174130833Y-111285714D01*
X174321309Y-111285714D01*
X174416547Y-111333333D01*
X174464166Y-111428571D01*
X174464166Y-111523809D01*
X173987976Y-111619047D01*
X174845119Y-111904761D02*
X174940357Y-111952380D01*
X175130833Y-111952380D01*
X175226071Y-111904761D01*
X175273690Y-111809523D01*
X175273690Y-111761904D01*
X175226071Y-111666666D01*
X175130833Y-111619047D01*
X174987976Y-111619047D01*
X174892738Y-111571428D01*
X174845119Y-111476190D01*
X174845119Y-111428571D01*
X174892738Y-111333333D01*
X174987976Y-111285714D01*
X175130833Y-111285714D01*
X175226071Y-111333333D01*
X175559404Y-111285714D02*
X175940357Y-111285714D01*
X175702261Y-110952380D02*
X175702261Y-111809523D01*
X175749880Y-111904761D01*
X175845119Y-111952380D01*
X175940357Y-111952380D01*
X176273690Y-111952380D02*
X176273690Y-111285714D01*
X176273690Y-110952380D02*
X176226071Y-111000000D01*
X176273690Y-111047619D01*
X176321309Y-111000000D01*
X176273690Y-110952380D01*
X176273690Y-111047619D01*
X177178452Y-111285714D02*
X177178452Y-112095238D01*
X177130833Y-112190476D01*
X177083214Y-112238095D01*
X176987976Y-112285714D01*
X176845119Y-112285714D01*
X176749880Y-112238095D01*
X177178452Y-111904761D02*
X177083214Y-111952380D01*
X176892738Y-111952380D01*
X176797499Y-111904761D01*
X176749880Y-111857142D01*
X176702261Y-111761904D01*
X176702261Y-111476190D01*
X176749880Y-111380952D01*
X176797499Y-111333333D01*
X176892738Y-111285714D01*
X177083214Y-111285714D01*
X177178452Y-111333333D01*
X177511785Y-111285714D02*
X177892738Y-111285714D01*
X177654642Y-110952380D02*
X177654642Y-111809523D01*
X177702261Y-111904761D01*
X177797499Y-111952380D01*
X177892738Y-111952380D01*
X178226071Y-111857142D02*
X178273690Y-111904761D01*
X178226071Y-111952380D01*
X178178452Y-111904761D01*
X178226071Y-111857142D01*
X178226071Y-111952380D01*
X115607023Y-109252380D02*
X115273690Y-108776190D01*
X115035595Y-109252380D02*
X115035595Y-108252380D01*
X115416547Y-108252380D01*
X115511785Y-108300000D01*
X115559404Y-108347619D01*
X115607023Y-108442857D01*
X115607023Y-108585714D01*
X115559404Y-108680952D01*
X115511785Y-108728571D01*
X115416547Y-108776190D01*
X115035595Y-108776190D01*
X116464166Y-109252380D02*
X116464166Y-108728571D01*
X116416547Y-108633333D01*
X116321309Y-108585714D01*
X116130833Y-108585714D01*
X116035595Y-108633333D01*
X116464166Y-109204761D02*
X116368928Y-109252380D01*
X116130833Y-109252380D01*
X116035595Y-109204761D01*
X115987976Y-109109523D01*
X115987976Y-109014285D01*
X116035595Y-108919047D01*
X116130833Y-108871428D01*
X116368928Y-108871428D01*
X116464166Y-108823809D01*
X117368928Y-109252380D02*
X117368928Y-108252380D01*
X117368928Y-109204761D02*
X117273690Y-109252380D01*
X117083214Y-109252380D01*
X116987976Y-109204761D01*
X116940357Y-109157142D01*
X116892738Y-109061904D01*
X116892738Y-108776190D01*
X116940357Y-108680952D01*
X116987976Y-108633333D01*
X117083214Y-108585714D01*
X117273690Y-108585714D01*
X117368928Y-108633333D01*
X117845119Y-109252380D02*
X117845119Y-108585714D01*
X117845119Y-108252380D02*
X117797500Y-108300000D01*
X117845119Y-108347619D01*
X117892738Y-108300000D01*
X117845119Y-108252380D01*
X117845119Y-108347619D01*
X118464166Y-109252380D02*
X118368928Y-109204761D01*
X118321309Y-109157142D01*
X118273690Y-109061904D01*
X118273690Y-108776190D01*
X118321309Y-108680952D01*
X118368928Y-108633333D01*
X118464166Y-108585714D01*
X118607023Y-108585714D01*
X118702261Y-108633333D01*
X118749880Y-108680952D01*
X118797500Y-108776190D01*
X118797500Y-109061904D01*
X118749880Y-109157142D01*
X118702261Y-109204761D01*
X118607023Y-109252380D01*
X118464166Y-109252380D01*
X120416547Y-109252380D02*
X120416547Y-108252380D01*
X120416547Y-109204761D02*
X120321309Y-109252380D01*
X120130833Y-109252380D01*
X120035595Y-109204761D01*
X119987976Y-109157142D01*
X119940357Y-109061904D01*
X119940357Y-108776190D01*
X119987976Y-108680952D01*
X120035595Y-108633333D01*
X120130833Y-108585714D01*
X120321309Y-108585714D01*
X120416547Y-108633333D01*
X121321309Y-109252380D02*
X121321309Y-108728571D01*
X121273690Y-108633333D01*
X121178452Y-108585714D01*
X120987976Y-108585714D01*
X120892738Y-108633333D01*
X121321309Y-109204761D02*
X121226071Y-109252380D01*
X120987976Y-109252380D01*
X120892738Y-109204761D01*
X120845119Y-109109523D01*
X120845119Y-109014285D01*
X120892738Y-108919047D01*
X120987976Y-108871428D01*
X121226071Y-108871428D01*
X121321309Y-108823809D01*
X121797500Y-109252380D02*
X121797500Y-108252380D01*
X121797500Y-108633333D02*
X121892738Y-108585714D01*
X122083214Y-108585714D01*
X122178452Y-108633333D01*
X122226071Y-108680952D01*
X122273690Y-108776190D01*
X122273690Y-109061904D01*
X122226071Y-109157142D01*
X122178452Y-109204761D01*
X122083214Y-109252380D01*
X121892738Y-109252380D01*
X121797500Y-109204761D01*
X123083214Y-109204761D02*
X122987976Y-109252380D01*
X122797500Y-109252380D01*
X122702261Y-109204761D01*
X122654642Y-109109523D01*
X122654642Y-108728571D01*
X122702261Y-108633333D01*
X122797500Y-108585714D01*
X122987976Y-108585714D01*
X123083214Y-108633333D01*
X123130833Y-108728571D01*
X123130833Y-108823809D01*
X122654642Y-108919047D01*
X123559404Y-109252380D02*
X123559404Y-108585714D01*
X123559404Y-108252380D02*
X123511785Y-108300000D01*
X123559404Y-108347619D01*
X123607023Y-108300000D01*
X123559404Y-108252380D01*
X123559404Y-108347619D01*
X125226071Y-109252380D02*
X125226071Y-108728571D01*
X125178452Y-108633333D01*
X125083214Y-108585714D01*
X124892738Y-108585714D01*
X124797500Y-108633333D01*
X125226071Y-109204761D02*
X125130833Y-109252380D01*
X124892738Y-109252380D01*
X124797500Y-109204761D01*
X124749880Y-109109523D01*
X124749880Y-109014285D01*
X124797500Y-108919047D01*
X124892738Y-108871428D01*
X125130833Y-108871428D01*
X125226071Y-108823809D01*
X126130833Y-108585714D02*
X126130833Y-109252380D01*
X125702261Y-108585714D02*
X125702261Y-109109523D01*
X125749880Y-109204761D01*
X125845119Y-109252380D01*
X125987976Y-109252380D01*
X126083214Y-109204761D01*
X126130833Y-109157142D01*
X126559404Y-109204761D02*
X126654642Y-109252380D01*
X126845119Y-109252380D01*
X126940357Y-109204761D01*
X126987976Y-109109523D01*
X126987976Y-109061904D01*
X126940357Y-108966666D01*
X126845119Y-108919047D01*
X126702261Y-108919047D01*
X126607023Y-108871428D01*
X126559404Y-108776190D01*
X126559404Y-108728571D01*
X126607023Y-108633333D01*
X126702261Y-108585714D01*
X126845119Y-108585714D01*
X126940357Y-108633333D01*
X127368928Y-109204761D02*
X127464166Y-109252380D01*
X127654642Y-109252380D01*
X127749880Y-109204761D01*
X127797500Y-109109523D01*
X127797500Y-109061904D01*
X127749880Y-108966666D01*
X127654642Y-108919047D01*
X127511785Y-108919047D01*
X127416547Y-108871428D01*
X127368928Y-108776190D01*
X127368928Y-108728571D01*
X127416547Y-108633333D01*
X127511785Y-108585714D01*
X127654642Y-108585714D01*
X127749880Y-108633333D01*
X128654642Y-109204761D02*
X128559404Y-109252380D01*
X128368928Y-109252380D01*
X128273690Y-109204761D01*
X128226071Y-109157142D01*
X128178452Y-109061904D01*
X128178452Y-108776190D01*
X128226071Y-108680952D01*
X128273690Y-108633333D01*
X128368928Y-108585714D01*
X128559404Y-108585714D01*
X128654642Y-108633333D01*
X129083214Y-109252380D02*
X129083214Y-108252380D01*
X129511785Y-109252380D02*
X129511785Y-108728571D01*
X129464166Y-108633333D01*
X129368928Y-108585714D01*
X129226071Y-108585714D01*
X129130833Y-108633333D01*
X129083214Y-108680952D01*
X130416547Y-109252380D02*
X130416547Y-108728571D01*
X130368928Y-108633333D01*
X130273690Y-108585714D01*
X130083214Y-108585714D01*
X129987976Y-108633333D01*
X130416547Y-109204761D02*
X130321309Y-109252380D01*
X130083214Y-109252380D01*
X129987976Y-109204761D01*
X129940357Y-109109523D01*
X129940357Y-109014285D01*
X129987976Y-108919047D01*
X130083214Y-108871428D01*
X130321309Y-108871428D01*
X130416547Y-108823809D01*
X131035595Y-109252380D02*
X130940357Y-109204761D01*
X130892738Y-109109523D01*
X130892738Y-108252380D01*
X131273690Y-108585714D02*
X131654642Y-108585714D01*
X131416547Y-108252380D02*
X131416547Y-109109523D01*
X131464166Y-109204761D01*
X131559404Y-109252380D01*
X131654642Y-109252380D01*
X132368928Y-109204761D02*
X132273690Y-109252380D01*
X132083214Y-109252380D01*
X131987976Y-109204761D01*
X131940357Y-109109523D01*
X131940357Y-108728571D01*
X131987976Y-108633333D01*
X132083214Y-108585714D01*
X132273690Y-108585714D01*
X132368928Y-108633333D01*
X132416547Y-108728571D01*
X132416547Y-108823809D01*
X131940357Y-108919047D01*
X132845119Y-108585714D02*
X132845119Y-109252380D01*
X132845119Y-108680952D02*
X132892738Y-108633333D01*
X132987976Y-108585714D01*
X133130833Y-108585714D01*
X133226071Y-108633333D01*
X133273690Y-108728571D01*
X133273690Y-109252380D01*
X134797500Y-109633333D02*
X134749880Y-109585714D01*
X134654642Y-109442857D01*
X134607023Y-109347619D01*
X134559404Y-109204761D01*
X134511785Y-108966666D01*
X134511785Y-108776190D01*
X134559404Y-108538095D01*
X134607023Y-108395238D01*
X134654642Y-108300000D01*
X134749880Y-108157142D01*
X134797500Y-108109523D01*
X135130833Y-108347619D02*
X135178452Y-108300000D01*
X135273690Y-108252380D01*
X135511785Y-108252380D01*
X135607023Y-108300000D01*
X135654642Y-108347619D01*
X135702261Y-108442857D01*
X135702261Y-108538095D01*
X135654642Y-108680952D01*
X135083214Y-109252380D01*
X135702261Y-109252380D01*
X136035595Y-108252380D02*
X136654642Y-108252380D01*
X136321309Y-108633333D01*
X136464166Y-108633333D01*
X136559404Y-108680952D01*
X136607023Y-108728571D01*
X136654642Y-108823809D01*
X136654642Y-109061904D01*
X136607023Y-109157142D01*
X136559404Y-109204761D01*
X136464166Y-109252380D01*
X136178452Y-109252380D01*
X136083214Y-109204761D01*
X136035595Y-109157142D01*
X137273690Y-108252380D02*
X137368928Y-108252380D01*
X137464166Y-108300000D01*
X137511785Y-108347619D01*
X137559404Y-108442857D01*
X137607023Y-108633333D01*
X137607023Y-108871428D01*
X137559404Y-109061904D01*
X137511785Y-109157142D01*
X137464166Y-109204761D01*
X137368928Y-109252380D01*
X137273690Y-109252380D01*
X137178452Y-109204761D01*
X137130833Y-109157142D01*
X137083214Y-109061904D01*
X137035595Y-108871428D01*
X137035595Y-108633333D01*
X137083214Y-108442857D01*
X137130833Y-108347619D01*
X137178452Y-108300000D01*
X137273690Y-108252380D01*
X137892738Y-108252380D02*
X138226071Y-109252380D01*
X138559404Y-108252380D01*
X138797500Y-109633333D02*
X138845119Y-109585714D01*
X138940357Y-109442857D01*
X138987976Y-109347619D01*
X139035595Y-109204761D01*
X139083214Y-108966666D01*
X139083214Y-108776190D01*
X139035595Y-108538095D01*
X138987976Y-108395238D01*
X138940357Y-108300000D01*
X138845119Y-108157142D01*
X138797500Y-108109523D01*
X115035595Y-107552380D02*
X115035595Y-106552380D01*
X115416547Y-106552380D01*
X115511785Y-106600000D01*
X115559404Y-106647619D01*
X115607023Y-106742857D01*
X115607023Y-106885714D01*
X115559404Y-106980952D01*
X115511785Y-107028571D01*
X115416547Y-107076190D01*
X115035595Y-107076190D01*
X116035595Y-107552380D02*
X116035595Y-106885714D01*
X116035595Y-106552380D02*
X115987976Y-106600000D01*
X116035595Y-106647619D01*
X116083214Y-106600000D01*
X116035595Y-106552380D01*
X116035595Y-106647619D01*
X116511785Y-106885714D02*
X116511785Y-107552380D01*
X116511785Y-106980952D02*
X116559404Y-106933333D01*
X116654642Y-106885714D01*
X116797500Y-106885714D01*
X116892738Y-106933333D01*
X116940357Y-107028571D01*
X116940357Y-107552380D01*
X117368928Y-107504761D02*
X117464166Y-107552380D01*
X117654642Y-107552380D01*
X117749880Y-107504761D01*
X117797500Y-107409523D01*
X117797500Y-107361904D01*
X117749880Y-107266666D01*
X117654642Y-107219047D01*
X117511785Y-107219047D01*
X117416547Y-107171428D01*
X117368928Y-107076190D01*
X117368928Y-107028571D01*
X117416547Y-106933333D01*
X117511785Y-106885714D01*
X117654642Y-106885714D01*
X117749880Y-106933333D01*
X118987976Y-107552380D02*
X118987976Y-106885714D01*
X118987976Y-106552380D02*
X118940357Y-106600000D01*
X118987976Y-106647619D01*
X119035595Y-106600000D01*
X118987976Y-106552380D01*
X118987976Y-106647619D01*
X119464166Y-106885714D02*
X119464166Y-107552380D01*
X119464166Y-106980952D02*
X119511785Y-106933333D01*
X119607023Y-106885714D01*
X119749880Y-106885714D01*
X119845119Y-106933333D01*
X119892738Y-107028571D01*
X119892738Y-107552380D01*
X121464166Y-107028571D02*
X121607023Y-107076190D01*
X121654642Y-107123809D01*
X121702261Y-107219047D01*
X121702261Y-107361904D01*
X121654642Y-107457142D01*
X121607023Y-107504761D01*
X121511785Y-107552380D01*
X121130833Y-107552380D01*
X121130833Y-106552380D01*
X121464166Y-106552380D01*
X121559404Y-106600000D01*
X121607023Y-106647619D01*
X121654642Y-106742857D01*
X121654642Y-106838095D01*
X121607023Y-106933333D01*
X121559404Y-106980952D01*
X121464166Y-107028571D01*
X121130833Y-107028571D01*
X122559404Y-106885714D02*
X122559404Y-107552380D01*
X122130833Y-106885714D02*
X122130833Y-107409523D01*
X122178452Y-107504761D01*
X122273690Y-107552380D01*
X122416547Y-107552380D01*
X122511785Y-107504761D01*
X122559404Y-107457142D01*
X123464166Y-107504761D02*
X123368928Y-107552380D01*
X123178452Y-107552380D01*
X123083214Y-107504761D01*
X123035595Y-107457142D01*
X122987976Y-107361904D01*
X122987976Y-107076190D01*
X123035595Y-106980952D01*
X123083214Y-106933333D01*
X123178452Y-106885714D01*
X123368928Y-106885714D01*
X123464166Y-106933333D01*
X123892738Y-107552380D02*
X123892738Y-106552380D01*
X124321309Y-107552380D02*
X124321309Y-107028571D01*
X124273690Y-106933333D01*
X124178452Y-106885714D01*
X124035595Y-106885714D01*
X123940357Y-106933333D01*
X123892738Y-106980952D01*
X124749880Y-107504761D02*
X124845119Y-107552380D01*
X125035595Y-107552380D01*
X125130833Y-107504761D01*
X125178452Y-107409523D01*
X125178452Y-107361904D01*
X125130833Y-107266666D01*
X125035595Y-107219047D01*
X124892738Y-107219047D01*
X124797500Y-107171428D01*
X124749880Y-107076190D01*
X124749880Y-107028571D01*
X124797500Y-106933333D01*
X124892738Y-106885714D01*
X125035595Y-106885714D01*
X125130833Y-106933333D01*
X125987976Y-107504761D02*
X125892738Y-107552380D01*
X125702261Y-107552380D01*
X125607023Y-107504761D01*
X125559404Y-107409523D01*
X125559404Y-107028571D01*
X125607023Y-106933333D01*
X125702261Y-106885714D01*
X125892738Y-106885714D01*
X125987976Y-106933333D01*
X126035595Y-107028571D01*
X126035595Y-107123809D01*
X125559404Y-107219047D01*
X127607023Y-107504761D02*
X127511785Y-107552380D01*
X127321309Y-107552380D01*
X127226071Y-107504761D01*
X127178452Y-107409523D01*
X127178452Y-107028571D01*
X127226071Y-106933333D01*
X127321309Y-106885714D01*
X127511785Y-106885714D01*
X127607023Y-106933333D01*
X127654642Y-107028571D01*
X127654642Y-107123809D01*
X127178452Y-107219047D01*
X128083214Y-107552380D02*
X128083214Y-106885714D01*
X128083214Y-106552380D02*
X128035595Y-106600000D01*
X128083214Y-106647619D01*
X128130833Y-106600000D01*
X128083214Y-106552380D01*
X128083214Y-106647619D01*
X128559404Y-106885714D02*
X128559404Y-107552380D01*
X128559404Y-106980952D02*
X128607023Y-106933333D01*
X128702261Y-106885714D01*
X128845119Y-106885714D01*
X128940357Y-106933333D01*
X128987976Y-107028571D01*
X128987976Y-107552380D01*
X129892738Y-107552380D02*
X129892738Y-106552380D01*
X129892738Y-107504761D02*
X129797500Y-107552380D01*
X129607023Y-107552380D01*
X129511785Y-107504761D01*
X129464166Y-107457142D01*
X129416547Y-107361904D01*
X129416547Y-107076190D01*
X129464166Y-106980952D01*
X129511785Y-106933333D01*
X129607023Y-106885714D01*
X129797500Y-106885714D01*
X129892738Y-106933333D01*
X130368928Y-107552380D02*
X130368928Y-106885714D01*
X130368928Y-107076190D02*
X130416547Y-106980952D01*
X130464166Y-106933333D01*
X130559404Y-106885714D01*
X130654642Y-106885714D01*
X131416547Y-106885714D02*
X131416547Y-107552380D01*
X130987976Y-106885714D02*
X130987976Y-107409523D01*
X131035595Y-107504761D01*
X131130833Y-107552380D01*
X131273690Y-107552380D01*
X131368928Y-107504761D01*
X131416547Y-107457142D01*
X131035595Y-106552380D02*
X131083214Y-106600000D01*
X131035595Y-106647619D01*
X130987976Y-106600000D01*
X131035595Y-106552380D01*
X131035595Y-106647619D01*
X131416547Y-106552380D02*
X131464166Y-106600000D01*
X131416547Y-106647619D01*
X131368928Y-106600000D01*
X131416547Y-106552380D01*
X131416547Y-106647619D01*
X132321309Y-107504761D02*
X132226071Y-107552380D01*
X132035595Y-107552380D01*
X131940357Y-107504761D01*
X131892738Y-107457142D01*
X131845119Y-107361904D01*
X131845119Y-107076190D01*
X131892738Y-106980952D01*
X131940357Y-106933333D01*
X132035595Y-106885714D01*
X132226071Y-106885714D01*
X132321309Y-106933333D01*
X132749880Y-107552380D02*
X132749880Y-106552380D01*
X132845119Y-107171428D02*
X133130833Y-107552380D01*
X133130833Y-106885714D02*
X132749880Y-107266666D01*
X133940357Y-107504761D02*
X133845119Y-107552380D01*
X133654642Y-107552380D01*
X133559404Y-107504761D01*
X133511785Y-107409523D01*
X133511785Y-107028571D01*
X133559404Y-106933333D01*
X133654642Y-106885714D01*
X133845119Y-106885714D01*
X133940357Y-106933333D01*
X133987976Y-107028571D01*
X133987976Y-107123809D01*
X133511785Y-107219047D01*
X134416547Y-106885714D02*
X134416547Y-107552380D01*
X134416547Y-106980952D02*
X134464166Y-106933333D01*
X134559404Y-106885714D01*
X134702261Y-106885714D01*
X134797500Y-106933333D01*
X134845119Y-107028571D01*
X134845119Y-107552380D01*
X135368928Y-107504761D02*
X135368928Y-107552380D01*
X135321309Y-107647619D01*
X135273690Y-107695238D01*
X136559404Y-107552380D02*
X136559404Y-106552380D01*
X136940357Y-106552380D01*
X137035595Y-106600000D01*
X137083214Y-106647619D01*
X137130833Y-106742857D01*
X137130833Y-106885714D01*
X137083214Y-106980952D01*
X137035595Y-107028571D01*
X136940357Y-107076190D01*
X136559404Y-107076190D01*
X137702261Y-107552380D02*
X137607023Y-107504761D01*
X137559404Y-107409523D01*
X137559404Y-106552380D01*
X138511785Y-107552380D02*
X138511785Y-107028571D01*
X138464166Y-106933333D01*
X138368928Y-106885714D01*
X138178452Y-106885714D01*
X138083214Y-106933333D01*
X138511785Y-107504761D02*
X138416547Y-107552380D01*
X138178452Y-107552380D01*
X138083214Y-107504761D01*
X138035595Y-107409523D01*
X138035595Y-107314285D01*
X138083214Y-107219047D01*
X138178452Y-107171428D01*
X138416547Y-107171428D01*
X138511785Y-107123809D01*
X138845119Y-106885714D02*
X139226071Y-106885714D01*
X138987976Y-106552380D02*
X138987976Y-107409523D01*
X139035595Y-107504761D01*
X139130833Y-107552380D01*
X139226071Y-107552380D01*
X139559404Y-107552380D02*
X139559404Y-106885714D01*
X139559404Y-106552380D02*
X139511785Y-106600000D01*
X139559404Y-106647619D01*
X139607023Y-106600000D01*
X139559404Y-106552380D01*
X139559404Y-106647619D01*
X140035595Y-106885714D02*
X140035595Y-107552380D01*
X140035595Y-106980952D02*
X140083214Y-106933333D01*
X140178452Y-106885714D01*
X140321309Y-106885714D01*
X140416547Y-106933333D01*
X140464166Y-107028571D01*
X140464166Y-107552380D01*
X141321309Y-107504761D02*
X141226071Y-107552380D01*
X141035595Y-107552380D01*
X140940357Y-107504761D01*
X140892738Y-107409523D01*
X140892738Y-107028571D01*
X140940357Y-106933333D01*
X141035595Y-106885714D01*
X141226071Y-106885714D01*
X141321309Y-106933333D01*
X141368928Y-107028571D01*
X141368928Y-107123809D01*
X140892738Y-107219047D01*
X142987976Y-107552380D02*
X142987976Y-107028571D01*
X142940357Y-106933333D01*
X142845119Y-106885714D01*
X142654642Y-106885714D01*
X142559404Y-106933333D01*
X142987976Y-107504761D02*
X142892738Y-107552380D01*
X142654642Y-107552380D01*
X142559404Y-107504761D01*
X142511785Y-107409523D01*
X142511785Y-107314285D01*
X142559404Y-107219047D01*
X142654642Y-107171428D01*
X142892738Y-107171428D01*
X142987976Y-107123809D01*
X143892738Y-106885714D02*
X143892738Y-107552380D01*
X143464166Y-106885714D02*
X143464166Y-107409523D01*
X143511785Y-107504761D01*
X143607023Y-107552380D01*
X143749880Y-107552380D01*
X143845119Y-107504761D01*
X143892738Y-107457142D01*
X144226071Y-106885714D02*
X144607023Y-106885714D01*
X144368928Y-107552380D02*
X144368928Y-106695238D01*
X144416547Y-106600000D01*
X144511785Y-106552380D01*
X144607023Y-106552380D01*
X144892738Y-107504761D02*
X144987976Y-107552380D01*
X145178452Y-107552380D01*
X145273690Y-107504761D01*
X145321309Y-107409523D01*
X145321309Y-107361904D01*
X145273690Y-107266666D01*
X145178452Y-107219047D01*
X145035595Y-107219047D01*
X144940357Y-107171428D01*
X144892738Y-107076190D01*
X144892738Y-107028571D01*
X144940357Y-106933333D01*
X145035595Y-106885714D01*
X145178452Y-106885714D01*
X145273690Y-106933333D01*
X145607023Y-106885714D02*
X145987976Y-106885714D01*
X145749880Y-106552380D02*
X145749880Y-107409523D01*
X145797500Y-107504761D01*
X145892738Y-107552380D01*
X145987976Y-107552380D01*
X146702261Y-107504761D02*
X146607023Y-107552380D01*
X146416547Y-107552380D01*
X146321309Y-107504761D01*
X146273690Y-107409523D01*
X146273690Y-107028571D01*
X146321309Y-106933333D01*
X146416547Y-106885714D01*
X146607023Y-106885714D01*
X146702261Y-106933333D01*
X146749880Y-107028571D01*
X146749880Y-107123809D01*
X146273690Y-107219047D01*
X147607023Y-107504761D02*
X147511785Y-107552380D01*
X147321309Y-107552380D01*
X147226071Y-107504761D01*
X147178452Y-107457142D01*
X147130833Y-107361904D01*
X147130833Y-107076190D01*
X147178452Y-106980952D01*
X147226071Y-106933333D01*
X147321309Y-106885714D01*
X147511785Y-106885714D01*
X147607023Y-106933333D01*
X148035595Y-107552380D02*
X148035595Y-106552380D01*
X148130833Y-107171428D02*
X148416547Y-107552380D01*
X148416547Y-106885714D02*
X148035595Y-107266666D01*
X149226071Y-107504761D02*
X149130833Y-107552380D01*
X148940357Y-107552380D01*
X148845119Y-107504761D01*
X148797500Y-107409523D01*
X148797500Y-107028571D01*
X148845119Y-106933333D01*
X148940357Y-106885714D01*
X149130833Y-106885714D01*
X149226071Y-106933333D01*
X149273690Y-107028571D01*
X149273690Y-107123809D01*
X148797500Y-107219047D01*
X149702261Y-106885714D02*
X149702261Y-107552380D01*
X149702261Y-106980952D02*
X149749880Y-106933333D01*
X149845119Y-106885714D01*
X149987976Y-106885714D01*
X150083214Y-106933333D01*
X150130833Y-107028571D01*
X150130833Y-107552380D01*
X151797500Y-106885714D02*
X151797500Y-107552380D01*
X151368928Y-106885714D02*
X151368928Y-107409523D01*
X151416547Y-107504761D01*
X151511785Y-107552380D01*
X151654642Y-107552380D01*
X151749880Y-107504761D01*
X151797500Y-107457142D01*
X152273690Y-106885714D02*
X152273690Y-107552380D01*
X152273690Y-106980952D02*
X152321309Y-106933333D01*
X152416547Y-106885714D01*
X152559404Y-106885714D01*
X152654642Y-106933333D01*
X152702261Y-107028571D01*
X152702261Y-107552380D01*
X153607023Y-107552380D02*
X153607023Y-106552380D01*
X153607023Y-107504761D02*
X153511785Y-107552380D01*
X153321309Y-107552380D01*
X153226071Y-107504761D01*
X153178452Y-107457142D01*
X153130833Y-107361904D01*
X153130833Y-107076190D01*
X153178452Y-106980952D01*
X153226071Y-106933333D01*
X153321309Y-106885714D01*
X153511785Y-106885714D01*
X153607023Y-106933333D01*
X155273690Y-107552380D02*
X155273690Y-106552380D01*
X155273690Y-107504761D02*
X155178452Y-107552380D01*
X154987976Y-107552380D01*
X154892738Y-107504761D01*
X154845119Y-107457142D01*
X154797500Y-107361904D01*
X154797500Y-107076190D01*
X154845119Y-106980952D01*
X154892738Y-106933333D01*
X154987976Y-106885714D01*
X155178452Y-106885714D01*
X155273690Y-106933333D01*
X156178452Y-107552380D02*
X156178452Y-107028571D01*
X156130833Y-106933333D01*
X156035595Y-106885714D01*
X155845119Y-106885714D01*
X155749880Y-106933333D01*
X156178452Y-107504761D02*
X156083214Y-107552380D01*
X155845119Y-107552380D01*
X155749880Y-107504761D01*
X155702261Y-107409523D01*
X155702261Y-107314285D01*
X155749880Y-107219047D01*
X155845119Y-107171428D01*
X156083214Y-107171428D01*
X156178452Y-107123809D01*
X156654642Y-106885714D02*
X156654642Y-107552380D01*
X156654642Y-106980952D02*
X156702261Y-106933333D01*
X156797499Y-106885714D01*
X156940357Y-106885714D01*
X157035595Y-106933333D01*
X157083214Y-107028571D01*
X157083214Y-107552380D01*
X157559404Y-106885714D02*
X157559404Y-107552380D01*
X157559404Y-106980952D02*
X157607023Y-106933333D01*
X157702261Y-106885714D01*
X157845119Y-106885714D01*
X157940357Y-106933333D01*
X157987976Y-107028571D01*
X157987976Y-107552380D01*
X159511785Y-107933333D02*
X159464166Y-107885714D01*
X159368928Y-107742857D01*
X159321309Y-107647619D01*
X159273690Y-107504761D01*
X159226071Y-107266666D01*
X159226071Y-107076190D01*
X159273690Y-106838095D01*
X159321309Y-106695238D01*
X159368928Y-106600000D01*
X159464166Y-106457142D01*
X159511785Y-106409523D01*
X159797499Y-106885714D02*
X160321309Y-106885714D01*
X159797499Y-107552380D01*
X160321309Y-107552380D01*
X161130833Y-106885714D02*
X161130833Y-107552380D01*
X160702261Y-106885714D02*
X160702261Y-107409523D01*
X160749880Y-107504761D01*
X160845119Y-107552380D01*
X160987976Y-107552380D01*
X161083214Y-107504761D01*
X161130833Y-107457142D01*
X160749880Y-106552380D02*
X160797499Y-106600000D01*
X160749880Y-106647619D01*
X160702261Y-106600000D01*
X160749880Y-106552380D01*
X160749880Y-106647619D01*
X161130833Y-106552380D02*
X161178452Y-106600000D01*
X161130833Y-106647619D01*
X161083214Y-106600000D01*
X161130833Y-106552380D01*
X161130833Y-106647619D01*
X162035595Y-106885714D02*
X162035595Y-107695238D01*
X161987976Y-107790476D01*
X161940357Y-107838095D01*
X161845119Y-107885714D01*
X161702261Y-107885714D01*
X161607023Y-107838095D01*
X162035595Y-107504761D02*
X161940357Y-107552380D01*
X161749880Y-107552380D01*
X161654642Y-107504761D01*
X161607023Y-107457142D01*
X161559404Y-107361904D01*
X161559404Y-107076190D01*
X161607023Y-106980952D01*
X161654642Y-106933333D01*
X161749880Y-106885714D01*
X161940357Y-106885714D01*
X162035595Y-106933333D01*
X162511785Y-107552380D02*
X162511785Y-106885714D01*
X162511785Y-106552380D02*
X162464166Y-106600000D01*
X162511785Y-106647619D01*
X162559404Y-106600000D01*
X162511785Y-106552380D01*
X162511785Y-106647619D01*
X163416547Y-106885714D02*
X163416547Y-107695238D01*
X163368928Y-107790476D01*
X163321309Y-107838095D01*
X163226071Y-107885714D01*
X163083214Y-107885714D01*
X162987976Y-107838095D01*
X163416547Y-107504761D02*
X163321309Y-107552380D01*
X163130833Y-107552380D01*
X163035595Y-107504761D01*
X162987976Y-107457142D01*
X162940357Y-107361904D01*
X162940357Y-107076190D01*
X162987976Y-106980952D01*
X163035595Y-106933333D01*
X163130833Y-106885714D01*
X163321309Y-106885714D01*
X163416547Y-106933333D01*
X163892738Y-107457142D02*
X163940357Y-107504761D01*
X163892738Y-107552380D01*
X163845119Y-107504761D01*
X163892738Y-107457142D01*
X163892738Y-107552380D01*
X163892738Y-107171428D02*
X163845119Y-106600000D01*
X163892738Y-106552380D01*
X163940357Y-106600000D01*
X163892738Y-107171428D01*
X163892738Y-106552380D01*
X164273690Y-107933333D02*
X164321309Y-107885714D01*
X164416547Y-107742857D01*
X164464166Y-107647619D01*
X164511785Y-107504761D01*
X164559404Y-107266666D01*
X164559404Y-107076190D01*
X164511785Y-106838095D01*
X164464166Y-106695238D01*
X164416547Y-106600000D01*
X164321309Y-106457142D01*
X164273690Y-106409523D01*
X165654642Y-106885714D02*
X166035595Y-106885714D01*
X165797499Y-107552380D02*
X165797499Y-106695238D01*
X165845119Y-106600000D01*
X165940357Y-106552380D01*
X166035595Y-106552380D01*
X166749880Y-107504761D02*
X166654642Y-107552380D01*
X166464166Y-107552380D01*
X166368928Y-107504761D01*
X166321309Y-107409523D01*
X166321309Y-107028571D01*
X166368928Y-106933333D01*
X166464166Y-106885714D01*
X166654642Y-106885714D01*
X166749880Y-106933333D01*
X166797499Y-107028571D01*
X166797499Y-107123809D01*
X166321309Y-107219047D01*
X167178452Y-107504761D02*
X167273690Y-107552380D01*
X167464166Y-107552380D01*
X167559404Y-107504761D01*
X167607023Y-107409523D01*
X167607023Y-107361904D01*
X167559404Y-107266666D01*
X167464166Y-107219047D01*
X167321309Y-107219047D01*
X167226071Y-107171428D01*
X167178452Y-107076190D01*
X167178452Y-107028571D01*
X167226071Y-106933333D01*
X167321309Y-106885714D01*
X167464166Y-106885714D01*
X167559404Y-106933333D01*
X167892738Y-106885714D02*
X168273690Y-106885714D01*
X168035595Y-106552380D02*
X168035595Y-107409523D01*
X168083214Y-107504761D01*
X168178452Y-107552380D01*
X168273690Y-107552380D01*
X168749880Y-107552380D02*
X168654642Y-107504761D01*
X168607023Y-107409523D01*
X168607023Y-106552380D01*
X169273690Y-107552380D02*
X169178452Y-107504761D01*
X169130833Y-107457142D01*
X169083214Y-107361904D01*
X169083214Y-107076190D01*
X169130833Y-106980952D01*
X169178452Y-106933333D01*
X169273690Y-106885714D01*
X169416547Y-106885714D01*
X169511785Y-106933333D01*
X169559404Y-106980952D01*
X169607023Y-107076190D01*
X169607023Y-107361904D01*
X169559404Y-107457142D01*
X169511785Y-107504761D01*
X169416547Y-107552380D01*
X169273690Y-107552380D01*
X169178452Y-106552380D02*
X169226071Y-106600000D01*
X169178452Y-106647619D01*
X169130833Y-106600000D01*
X169178452Y-106552380D01*
X169178452Y-106647619D01*
X169559404Y-106552380D02*
X169607023Y-106600000D01*
X169559404Y-106647619D01*
X169511785Y-106600000D01*
X169559404Y-106552380D01*
X169559404Y-106647619D01*
X169892738Y-106885714D02*
X170273690Y-106885714D01*
X170035595Y-106552380D02*
X170035595Y-107409523D01*
X170083214Y-107504761D01*
X170178452Y-107552380D01*
X170273690Y-107552380D01*
X170987976Y-107504761D02*
X170892738Y-107552380D01*
X170702261Y-107552380D01*
X170607023Y-107504761D01*
X170559404Y-107409523D01*
X170559404Y-107028571D01*
X170607023Y-106933333D01*
X170702261Y-106885714D01*
X170892738Y-106885714D01*
X170987976Y-106933333D01*
X171035595Y-107028571D01*
X171035595Y-107123809D01*
X170559404Y-107219047D01*
X171464166Y-106885714D02*
X171464166Y-107552380D01*
X171464166Y-106980952D02*
X171511785Y-106933333D01*
X171607023Y-106885714D01*
X171749880Y-106885714D01*
X171845119Y-106933333D01*
X171892738Y-107028571D01*
X171892738Y-107552380D01*
X172368928Y-107457142D02*
X172416547Y-107504761D01*
X172368928Y-107552380D01*
X172321309Y-107504761D01*
X172368928Y-107457142D01*
X172368928Y-107552380D01*
%TD*%
M02*
