%TF.GenerationSoftware,KiCad,Pcbnew,5.1.10-88a1d61d58~88~ubuntu18.04.1*%
%TF.CreationDate,2021-08-18T13:18:07+02:00*%
%TF.ProjectId,saba-fernbedienung,73616261-2d66-4657-926e-62656469656e,rev?*%
%TF.SameCoordinates,Original*%
%TF.FileFunction,Legend,Bot*%
%TF.FilePolarity,Positive*%
%FSLAX46Y46*%
G04 Gerber Fmt 4.6, Leading zero omitted, Abs format (unit mm)*
G04 Created by KiCad (PCBNEW 5.1.10-88a1d61d58~88~ubuntu18.04.1) date 2021-08-18 13:18:07*
%MOMM*%
%LPD*%
G01*
G04 APERTURE LIST*
%ADD10C,0.153000*%
%ADD11C,0.120000*%
G04 APERTURE END LIST*
D10*
X164462454Y-69125880D02*
X164462454Y-68125880D01*
X164462454Y-68602071D02*
X163891026Y-68602071D01*
X163891026Y-69125880D02*
X163891026Y-68125880D01*
X162986264Y-69125880D02*
X162986264Y-68602071D01*
X163033883Y-68506833D01*
X163129121Y-68459214D01*
X163319597Y-68459214D01*
X163414835Y-68506833D01*
X162986264Y-69078261D02*
X163081502Y-69125880D01*
X163319597Y-69125880D01*
X163414835Y-69078261D01*
X163462454Y-68983023D01*
X163462454Y-68887785D01*
X163414835Y-68792547D01*
X163319597Y-68744928D01*
X163081502Y-68744928D01*
X162986264Y-68697309D01*
X162510073Y-69125880D02*
X162510073Y-68459214D01*
X162510073Y-68649690D02*
X162462454Y-68554452D01*
X162414835Y-68506833D01*
X162319597Y-68459214D01*
X162224359Y-68459214D01*
X161462454Y-69125880D02*
X161462454Y-68125880D01*
X161462454Y-69078261D02*
X161557692Y-69125880D01*
X161748169Y-69125880D01*
X161843407Y-69078261D01*
X161891026Y-69030642D01*
X161938645Y-68935404D01*
X161938645Y-68649690D01*
X161891026Y-68554452D01*
X161843407Y-68506833D01*
X161748169Y-68459214D01*
X161557692Y-68459214D01*
X161462454Y-68506833D01*
X161081502Y-68459214D02*
X160891026Y-69125880D01*
X160700550Y-68649690D01*
X160510073Y-69125880D01*
X160319597Y-68459214D01*
X159510073Y-69125880D02*
X159510073Y-68602071D01*
X159557692Y-68506833D01*
X159652930Y-68459214D01*
X159843407Y-68459214D01*
X159938645Y-68506833D01*
X159510073Y-69078261D02*
X159605311Y-69125880D01*
X159843407Y-69125880D01*
X159938645Y-69078261D01*
X159986264Y-68983023D01*
X159986264Y-68887785D01*
X159938645Y-68792547D01*
X159843407Y-68744928D01*
X159605311Y-68744928D01*
X159510073Y-68697309D01*
X159033883Y-69125880D02*
X159033883Y-68459214D01*
X159033883Y-68649690D02*
X158986264Y-68554452D01*
X158938645Y-68506833D01*
X158843407Y-68459214D01*
X158748169Y-68459214D01*
X158033883Y-69078261D02*
X158129121Y-69125880D01*
X158319597Y-69125880D01*
X158414835Y-69078261D01*
X158462454Y-68983023D01*
X158462454Y-68602071D01*
X158414835Y-68506833D01*
X158319597Y-68459214D01*
X158129121Y-68459214D01*
X158033883Y-68506833D01*
X157986264Y-68602071D01*
X157986264Y-68697309D01*
X158462454Y-68792547D01*
X157557692Y-69030642D02*
X157510073Y-69078261D01*
X157557692Y-69125880D01*
X157605311Y-69078261D01*
X157557692Y-69030642D01*
X157557692Y-69125880D01*
X157557692Y-68506833D02*
X157510073Y-68554452D01*
X157557692Y-68602071D01*
X157605311Y-68554452D01*
X157557692Y-68506833D01*
X157557692Y-68602071D01*
X156319597Y-69125880D02*
X156319597Y-68125880D01*
X155891026Y-69125880D02*
X155891026Y-68602071D01*
X155938645Y-68506833D01*
X156033883Y-68459214D01*
X156176740Y-68459214D01*
X156271978Y-68506833D01*
X156319597Y-68554452D01*
X155557692Y-68459214D02*
X155176740Y-68459214D01*
X155414835Y-68125880D02*
X155414835Y-68983023D01*
X155367216Y-69078261D01*
X155271978Y-69125880D01*
X155176740Y-69125880D01*
X154986264Y-68459214D02*
X154605311Y-68459214D01*
X154843407Y-68125880D02*
X154843407Y-68983023D01*
X154795788Y-69078261D01*
X154700550Y-69125880D01*
X154605311Y-69125880D01*
X154271978Y-68459214D02*
X154271978Y-69459214D01*
X154271978Y-68506833D02*
X154176740Y-68459214D01*
X153986264Y-68459214D01*
X153891026Y-68506833D01*
X153843407Y-68554452D01*
X153795788Y-68649690D01*
X153795788Y-68935404D01*
X153843407Y-69030642D01*
X153891026Y-69078261D01*
X153986264Y-69125880D01*
X154176740Y-69125880D01*
X154271978Y-69078261D01*
X153414835Y-69078261D02*
X153319597Y-69125880D01*
X153129121Y-69125880D01*
X153033883Y-69078261D01*
X152986264Y-68983023D01*
X152986264Y-68935404D01*
X153033883Y-68840166D01*
X153129121Y-68792547D01*
X153271978Y-68792547D01*
X153367216Y-68744928D01*
X153414835Y-68649690D01*
X153414835Y-68602071D01*
X153367216Y-68506833D01*
X153271978Y-68459214D01*
X153129121Y-68459214D01*
X153033883Y-68506833D01*
X152557692Y-69030642D02*
X152510073Y-69078261D01*
X152557692Y-69125880D01*
X152605311Y-69078261D01*
X152557692Y-69030642D01*
X152557692Y-69125880D01*
X152557692Y-68506833D02*
X152510073Y-68554452D01*
X152557692Y-68602071D01*
X152605311Y-68554452D01*
X152557692Y-68506833D01*
X152557692Y-68602071D01*
X151367216Y-68078261D02*
X152224359Y-69363976D01*
X150319597Y-68078261D02*
X151176740Y-69363976D01*
X149557692Y-68459214D02*
X149557692Y-69268738D01*
X149605311Y-69363976D01*
X149652930Y-69411595D01*
X149748169Y-69459214D01*
X149891026Y-69459214D01*
X149986264Y-69411595D01*
X149557692Y-69078261D02*
X149652930Y-69125880D01*
X149843407Y-69125880D01*
X149938645Y-69078261D01*
X149986264Y-69030642D01*
X150033883Y-68935404D01*
X150033883Y-68649690D01*
X149986264Y-68554452D01*
X149938645Y-68506833D01*
X149843407Y-68459214D01*
X149652930Y-68459214D01*
X149557692Y-68506833D01*
X149081502Y-69125880D02*
X149081502Y-68459214D01*
X149081502Y-68125880D02*
X149129121Y-68173500D01*
X149081502Y-68221119D01*
X149033883Y-68173500D01*
X149081502Y-68125880D01*
X149081502Y-68221119D01*
X148748169Y-68459214D02*
X148367216Y-68459214D01*
X148605311Y-68125880D02*
X148605311Y-68983023D01*
X148557692Y-69078261D01*
X148462454Y-69125880D01*
X148367216Y-69125880D01*
X148033883Y-69125880D02*
X148033883Y-68125880D01*
X147605311Y-69125880D02*
X147605311Y-68602071D01*
X147652930Y-68506833D01*
X147748169Y-68459214D01*
X147891026Y-68459214D01*
X147986264Y-68506833D01*
X148033883Y-68554452D01*
X146700550Y-68459214D02*
X146700550Y-69125880D01*
X147129121Y-68459214D02*
X147129121Y-68983023D01*
X147081502Y-69078261D01*
X146986264Y-69125880D01*
X146843407Y-69125880D01*
X146748169Y-69078261D01*
X146700550Y-69030642D01*
X146224359Y-69125880D02*
X146224359Y-68125880D01*
X146224359Y-68506833D02*
X146129121Y-68459214D01*
X145938645Y-68459214D01*
X145843407Y-68506833D01*
X145795788Y-68554452D01*
X145748169Y-68649690D01*
X145748169Y-68935404D01*
X145795788Y-69030642D01*
X145843407Y-69078261D01*
X145938645Y-69125880D01*
X146129121Y-69125880D01*
X146224359Y-69078261D01*
X145319597Y-69030642D02*
X145271978Y-69078261D01*
X145319597Y-69125880D01*
X145367216Y-69078261D01*
X145319597Y-69030642D01*
X145319597Y-69125880D01*
X144414835Y-69078261D02*
X144510073Y-69125880D01*
X144700550Y-69125880D01*
X144795788Y-69078261D01*
X144843407Y-69030642D01*
X144891026Y-68935404D01*
X144891026Y-68649690D01*
X144843407Y-68554452D01*
X144795788Y-68506833D01*
X144700550Y-68459214D01*
X144510073Y-68459214D01*
X144414835Y-68506833D01*
X143843407Y-69125880D02*
X143938645Y-69078261D01*
X143986264Y-69030642D01*
X144033883Y-68935404D01*
X144033883Y-68649690D01*
X143986264Y-68554452D01*
X143938645Y-68506833D01*
X143843407Y-68459214D01*
X143700550Y-68459214D01*
X143605311Y-68506833D01*
X143557692Y-68554452D01*
X143510073Y-68649690D01*
X143510073Y-68935404D01*
X143557692Y-69030642D01*
X143605311Y-69078261D01*
X143700550Y-69125880D01*
X143843407Y-69125880D01*
X143081502Y-69125880D02*
X143081502Y-68459214D01*
X143081502Y-68554452D02*
X143033883Y-68506833D01*
X142938645Y-68459214D01*
X142795788Y-68459214D01*
X142700550Y-68506833D01*
X142652930Y-68602071D01*
X142652930Y-69125880D01*
X142652930Y-68602071D02*
X142605311Y-68506833D01*
X142510073Y-68459214D01*
X142367216Y-68459214D01*
X142271978Y-68506833D01*
X142224359Y-68602071D01*
X142224359Y-69125880D01*
X141033883Y-68078261D02*
X141891026Y-69363976D01*
X140700550Y-69125880D02*
X140700550Y-68459214D01*
X140700550Y-68554452D02*
X140652930Y-68506833D01*
X140557692Y-68459214D01*
X140414835Y-68459214D01*
X140319597Y-68506833D01*
X140271978Y-68602071D01*
X140271978Y-69125880D01*
X140271978Y-68602071D02*
X140224359Y-68506833D01*
X140129121Y-68459214D01*
X139986264Y-68459214D01*
X139891026Y-68506833D01*
X139843407Y-68602071D01*
X139843407Y-69125880D01*
X138938645Y-69125880D02*
X138938645Y-68602071D01*
X138986264Y-68506833D01*
X139081502Y-68459214D01*
X139271978Y-68459214D01*
X139367216Y-68506833D01*
X138938645Y-69078261D02*
X139033883Y-69125880D01*
X139271978Y-69125880D01*
X139367216Y-69078261D01*
X139414835Y-68983023D01*
X139414835Y-68887785D01*
X139367216Y-68792547D01*
X139271978Y-68744928D01*
X139033883Y-68744928D01*
X138938645Y-68697309D01*
X138462454Y-69125880D02*
X138462454Y-68459214D01*
X138462454Y-68649690D02*
X138414835Y-68554452D01*
X138367216Y-68506833D01*
X138271978Y-68459214D01*
X138176740Y-68459214D01*
X137986264Y-68459214D02*
X137605311Y-68459214D01*
X137843407Y-68125880D02*
X137843407Y-68983023D01*
X137795788Y-69078261D01*
X137700550Y-69125880D01*
X137605311Y-69125880D01*
X137271978Y-69125880D02*
X137271978Y-68459214D01*
X137271978Y-68125880D02*
X137319597Y-68173500D01*
X137271978Y-68221119D01*
X137224359Y-68173500D01*
X137271978Y-68125880D01*
X137271978Y-68221119D01*
X136795788Y-68459214D02*
X136795788Y-69125880D01*
X136795788Y-68554452D02*
X136748169Y-68506833D01*
X136652930Y-68459214D01*
X136510073Y-68459214D01*
X136414835Y-68506833D01*
X136367216Y-68602071D01*
X136367216Y-69125880D01*
X135891026Y-68744928D02*
X135129121Y-68744928D01*
X134748169Y-68459214D02*
X134557692Y-69125880D01*
X134367216Y-68649690D01*
X134176740Y-69125880D01*
X133986264Y-68459214D01*
X133176740Y-69125880D02*
X133176740Y-68602071D01*
X133224359Y-68506833D01*
X133319597Y-68459214D01*
X133510073Y-68459214D01*
X133605311Y-68506833D01*
X133176740Y-69078261D02*
X133271978Y-69125880D01*
X133510073Y-69125880D01*
X133605311Y-69078261D01*
X133652930Y-68983023D01*
X133652930Y-68887785D01*
X133605311Y-68792547D01*
X133510073Y-68744928D01*
X133271978Y-68744928D01*
X133176740Y-68697309D01*
X132271978Y-68459214D02*
X132271978Y-69268738D01*
X132319597Y-69363976D01*
X132367216Y-69411595D01*
X132462454Y-69459214D01*
X132605311Y-69459214D01*
X132700550Y-69411595D01*
X132271978Y-69078261D02*
X132367216Y-69125880D01*
X132557692Y-69125880D01*
X132652930Y-69078261D01*
X132700550Y-69030642D01*
X132748169Y-68935404D01*
X132748169Y-68649690D01*
X132700550Y-68554452D01*
X132652930Y-68506833D01*
X132557692Y-68459214D01*
X132367216Y-68459214D01*
X132271978Y-68506833D01*
X131795788Y-68459214D02*
X131795788Y-69125880D01*
X131795788Y-68554452D02*
X131748169Y-68506833D01*
X131652930Y-68459214D01*
X131510073Y-68459214D01*
X131414835Y-68506833D01*
X131367216Y-68602071D01*
X131367216Y-69125880D01*
X130510073Y-69078261D02*
X130605311Y-69125880D01*
X130795788Y-69125880D01*
X130891026Y-69078261D01*
X130938645Y-68983023D01*
X130938645Y-68602071D01*
X130891026Y-68506833D01*
X130795788Y-68459214D01*
X130605311Y-68459214D01*
X130510073Y-68506833D01*
X130462454Y-68602071D01*
X130462454Y-68697309D01*
X130938645Y-68792547D01*
X130033883Y-69125880D02*
X130033883Y-68459214D01*
X130033883Y-68649690D02*
X129986264Y-68554452D01*
X129938645Y-68506833D01*
X129843407Y-68459214D01*
X129748169Y-68459214D01*
X128700550Y-68078261D02*
X129557692Y-69363976D01*
X128414835Y-69078261D02*
X128319597Y-69125880D01*
X128129121Y-69125880D01*
X128033883Y-69078261D01*
X127986264Y-68983023D01*
X127986264Y-68935404D01*
X128033883Y-68840166D01*
X128129121Y-68792547D01*
X128271978Y-68792547D01*
X128367216Y-68744928D01*
X128414835Y-68649690D01*
X128414835Y-68602071D01*
X128367216Y-68506833D01*
X128271978Y-68459214D01*
X128129121Y-68459214D01*
X128033883Y-68506833D01*
X127129121Y-69125880D02*
X127129121Y-68602071D01*
X127176740Y-68506833D01*
X127271978Y-68459214D01*
X127462454Y-68459214D01*
X127557692Y-68506833D01*
X127129121Y-69078261D02*
X127224359Y-69125880D01*
X127462454Y-69125880D01*
X127557692Y-69078261D01*
X127605311Y-68983023D01*
X127605311Y-68887785D01*
X127557692Y-68792547D01*
X127462454Y-68744928D01*
X127224359Y-68744928D01*
X127129121Y-68697309D01*
X126652930Y-69125880D02*
X126652930Y-68125880D01*
X126652930Y-68506833D02*
X126557692Y-68459214D01*
X126367216Y-68459214D01*
X126271978Y-68506833D01*
X126224359Y-68554452D01*
X126176740Y-68649690D01*
X126176740Y-68935404D01*
X126224359Y-69030642D01*
X126271978Y-69078261D01*
X126367216Y-69125880D01*
X126557692Y-69125880D01*
X126652930Y-69078261D01*
X125319597Y-69125880D02*
X125319597Y-68602071D01*
X125367216Y-68506833D01*
X125462454Y-68459214D01*
X125652930Y-68459214D01*
X125748169Y-68506833D01*
X125319597Y-69078261D02*
X125414835Y-69125880D01*
X125652930Y-69125880D01*
X125748169Y-69078261D01*
X125795788Y-68983023D01*
X125795788Y-68887785D01*
X125748169Y-68792547D01*
X125652930Y-68744928D01*
X125414835Y-68744928D01*
X125319597Y-68697309D01*
X124843407Y-68744928D02*
X124081502Y-68744928D01*
X123176740Y-68125880D02*
X123367216Y-68125880D01*
X123462454Y-68173500D01*
X123510073Y-68221119D01*
X123605311Y-68363976D01*
X123652930Y-68554452D01*
X123652930Y-68935404D01*
X123605311Y-69030642D01*
X123557692Y-69078261D01*
X123462454Y-69125880D01*
X123271978Y-69125880D01*
X123176740Y-69078261D01*
X123129121Y-69030642D01*
X123081502Y-68935404D01*
X123081502Y-68697309D01*
X123129121Y-68602071D01*
X123176740Y-68554452D01*
X123271978Y-68506833D01*
X123462454Y-68506833D01*
X123557692Y-68554452D01*
X123605311Y-68602071D01*
X123652930Y-68697309D01*
X122652930Y-68744928D02*
X121891026Y-68744928D01*
X121510073Y-68125880D02*
X120891026Y-68125880D01*
X121224359Y-68506833D01*
X121081502Y-68506833D01*
X120986264Y-68554452D01*
X120938645Y-68602071D01*
X120891026Y-68697309D01*
X120891026Y-68935404D01*
X120938645Y-69030642D01*
X120986264Y-69078261D01*
X121081502Y-69125880D01*
X121367216Y-69125880D01*
X121462454Y-69078261D01*
X121510073Y-69030642D01*
X120033883Y-69125880D02*
X120033883Y-68125880D01*
X120033883Y-69078261D02*
X120129121Y-69125880D01*
X120319597Y-69125880D01*
X120414835Y-69078261D01*
X120462454Y-69030642D01*
X120510073Y-68935404D01*
X120510073Y-68649690D01*
X120462454Y-68554452D01*
X120414835Y-68506833D01*
X120319597Y-68459214D01*
X120129121Y-68459214D01*
X120033883Y-68506833D01*
X119557692Y-68744928D02*
X118795788Y-68744928D01*
X118462454Y-68459214D02*
X118081502Y-68459214D01*
X118319597Y-69125880D02*
X118319597Y-68268738D01*
X118271978Y-68173500D01*
X118176740Y-68125880D01*
X118081502Y-68125880D01*
X117367216Y-69078261D02*
X117462454Y-69125880D01*
X117652930Y-69125880D01*
X117748169Y-69078261D01*
X117795788Y-68983023D01*
X117795788Y-68602071D01*
X117748169Y-68506833D01*
X117652930Y-68459214D01*
X117462454Y-68459214D01*
X117367216Y-68506833D01*
X117319597Y-68602071D01*
X117319597Y-68697309D01*
X117795788Y-68792547D01*
X116891026Y-69125880D02*
X116891026Y-68459214D01*
X116891026Y-68649690D02*
X116843407Y-68554452D01*
X116795788Y-68506833D01*
X116700550Y-68459214D01*
X116605311Y-68459214D01*
X116271978Y-68459214D02*
X116271978Y-69125880D01*
X116271978Y-68554452D02*
X116224359Y-68506833D01*
X116129121Y-68459214D01*
X115986264Y-68459214D01*
X115891026Y-68506833D01*
X115843407Y-68602071D01*
X115843407Y-69125880D01*
X115367216Y-69125880D02*
X115367216Y-68125880D01*
X115367216Y-68506833D02*
X115271978Y-68459214D01*
X115081502Y-68459214D01*
X114986264Y-68506833D01*
X114938645Y-68554452D01*
X114891026Y-68649690D01*
X114891026Y-68935404D01*
X114938645Y-69030642D01*
X114986264Y-69078261D01*
X115081502Y-69125880D01*
X115271978Y-69125880D01*
X115367216Y-69078261D01*
X114081502Y-69078261D02*
X114176740Y-69125880D01*
X114367216Y-69125880D01*
X114462454Y-69078261D01*
X114510073Y-68983023D01*
X114510073Y-68602071D01*
X114462454Y-68506833D01*
X114367216Y-68459214D01*
X114176740Y-68459214D01*
X114081502Y-68506833D01*
X114033883Y-68602071D01*
X114033883Y-68697309D01*
X114510073Y-68792547D01*
X113176740Y-69125880D02*
X113176740Y-68125880D01*
X113176740Y-69078261D02*
X113271978Y-69125880D01*
X113462454Y-69125880D01*
X113557692Y-69078261D01*
X113605311Y-69030642D01*
X113652930Y-68935404D01*
X113652930Y-68649690D01*
X113605311Y-68554452D01*
X113557692Y-68506833D01*
X113462454Y-68459214D01*
X113271978Y-68459214D01*
X113176740Y-68506833D01*
X112700550Y-69125880D02*
X112700550Y-68459214D01*
X112700550Y-68125880D02*
X112748169Y-68173500D01*
X112700550Y-68221119D01*
X112652930Y-68173500D01*
X112700550Y-68125880D01*
X112700550Y-68221119D01*
X111843407Y-69078261D02*
X111938645Y-69125880D01*
X112129121Y-69125880D01*
X112224359Y-69078261D01*
X112271978Y-68983023D01*
X112271978Y-68602071D01*
X112224359Y-68506833D01*
X112129121Y-68459214D01*
X111938645Y-68459214D01*
X111843407Y-68506833D01*
X111795788Y-68602071D01*
X111795788Y-68697309D01*
X112271978Y-68792547D01*
X111367216Y-68459214D02*
X111367216Y-69125880D01*
X111367216Y-68554452D02*
X111319597Y-68506833D01*
X111224359Y-68459214D01*
X111081502Y-68459214D01*
X110986264Y-68506833D01*
X110938645Y-68602071D01*
X110938645Y-69125880D01*
X110033883Y-68459214D02*
X110033883Y-69125880D01*
X110462454Y-68459214D02*
X110462454Y-68983023D01*
X110414835Y-69078261D01*
X110319597Y-69125880D01*
X110176740Y-69125880D01*
X110081502Y-69078261D01*
X110033883Y-69030642D01*
X109557692Y-68459214D02*
X109557692Y-69125880D01*
X109557692Y-68554452D02*
X109510073Y-68506833D01*
X109414835Y-68459214D01*
X109271978Y-68459214D01*
X109176740Y-68506833D01*
X109129121Y-68602071D01*
X109129121Y-69125880D01*
X108224359Y-68459214D02*
X108224359Y-69268738D01*
X108271978Y-69363976D01*
X108319597Y-69411595D01*
X108414835Y-69459214D01*
X108557692Y-69459214D01*
X108652930Y-69411595D01*
X108224359Y-69078261D02*
X108319597Y-69125880D01*
X108510073Y-69125880D01*
X108605311Y-69078261D01*
X108652930Y-69030642D01*
X108700550Y-68935404D01*
X108700550Y-68649690D01*
X108652930Y-68554452D01*
X108605311Y-68506833D01*
X108510073Y-68459214D01*
X108319597Y-68459214D01*
X108224359Y-68506833D01*
X107748169Y-68744928D02*
X106986264Y-68744928D01*
X106510073Y-69125880D02*
X106510073Y-68125880D01*
X106081502Y-69125880D02*
X106081502Y-68602071D01*
X106129121Y-68506833D01*
X106224359Y-68459214D01*
X106367216Y-68459214D01*
X106462454Y-68506833D01*
X106510073Y-68554452D01*
X105700550Y-68459214D02*
X105510073Y-69125880D01*
X105319597Y-68649690D01*
X105129121Y-69125880D01*
X104938645Y-68459214D01*
X164510073Y-70731261D02*
X164367216Y-70778880D01*
X164129121Y-70778880D01*
X164033883Y-70731261D01*
X163986264Y-70683642D01*
X163938645Y-70588404D01*
X163938645Y-70493166D01*
X163986264Y-70397928D01*
X164033883Y-70350309D01*
X164129121Y-70302690D01*
X164319597Y-70255071D01*
X164414835Y-70207452D01*
X164462454Y-70159833D01*
X164510073Y-70064595D01*
X164510073Y-69969357D01*
X164462454Y-69874119D01*
X164414835Y-69826500D01*
X164319597Y-69778880D01*
X164081502Y-69778880D01*
X163938645Y-69826500D01*
X163367216Y-70778880D02*
X163462454Y-70731261D01*
X163510073Y-70683642D01*
X163557692Y-70588404D01*
X163557692Y-70302690D01*
X163510073Y-70207452D01*
X163462454Y-70159833D01*
X163367216Y-70112214D01*
X163224359Y-70112214D01*
X163129121Y-70159833D01*
X163081502Y-70207452D01*
X163033883Y-70302690D01*
X163033883Y-70588404D01*
X163081502Y-70683642D01*
X163129121Y-70731261D01*
X163224359Y-70778880D01*
X163367216Y-70778880D01*
X162748169Y-70112214D02*
X162367216Y-70112214D01*
X162605311Y-70778880D02*
X162605311Y-69921738D01*
X162557692Y-69826500D01*
X162462454Y-69778880D01*
X162367216Y-69778880D01*
X162176740Y-70112214D02*
X161795788Y-70112214D01*
X162033883Y-69778880D02*
X162033883Y-70636023D01*
X161986264Y-70731261D01*
X161891026Y-70778880D01*
X161795788Y-70778880D01*
X161557692Y-70112214D02*
X161367216Y-70778880D01*
X161176740Y-70302690D01*
X160986264Y-70778880D01*
X160795788Y-70112214D01*
X159986264Y-70778880D02*
X159986264Y-70255071D01*
X160033883Y-70159833D01*
X160129121Y-70112214D01*
X160319597Y-70112214D01*
X160414835Y-70159833D01*
X159986264Y-70731261D02*
X160081502Y-70778880D01*
X160319597Y-70778880D01*
X160414835Y-70731261D01*
X160462454Y-70636023D01*
X160462454Y-70540785D01*
X160414835Y-70445547D01*
X160319597Y-70397928D01*
X160081502Y-70397928D01*
X159986264Y-70350309D01*
X159510073Y-70778880D02*
X159510073Y-70112214D01*
X159510073Y-70302690D02*
X159462454Y-70207452D01*
X159414835Y-70159833D01*
X159319597Y-70112214D01*
X159224359Y-70112214D01*
X158510073Y-70731261D02*
X158605311Y-70778880D01*
X158795788Y-70778880D01*
X158891026Y-70731261D01*
X158938645Y-70636023D01*
X158938645Y-70255071D01*
X158891026Y-70159833D01*
X158795788Y-70112214D01*
X158605311Y-70112214D01*
X158510073Y-70159833D01*
X158462454Y-70255071D01*
X158462454Y-70350309D01*
X158938645Y-70445547D01*
X158033883Y-70683642D02*
X157986264Y-70731261D01*
X158033883Y-70778880D01*
X158081502Y-70731261D01*
X158033883Y-70683642D01*
X158033883Y-70778880D01*
X158033883Y-70159833D02*
X157986264Y-70207452D01*
X158033883Y-70255071D01*
X158081502Y-70207452D01*
X158033883Y-70159833D01*
X158033883Y-70255071D01*
X156795788Y-70778880D02*
X156795788Y-69778880D01*
X156367216Y-70778880D02*
X156367216Y-70255071D01*
X156414835Y-70159833D01*
X156510073Y-70112214D01*
X156652930Y-70112214D01*
X156748169Y-70159833D01*
X156795788Y-70207452D01*
X156033883Y-70112214D02*
X155652930Y-70112214D01*
X155891026Y-69778880D02*
X155891026Y-70636023D01*
X155843407Y-70731261D01*
X155748169Y-70778880D01*
X155652930Y-70778880D01*
X155462454Y-70112214D02*
X155081502Y-70112214D01*
X155319597Y-69778880D02*
X155319597Y-70636023D01*
X155271978Y-70731261D01*
X155176740Y-70778880D01*
X155081502Y-70778880D01*
X154748169Y-70112214D02*
X154748169Y-71112214D01*
X154748169Y-70159833D02*
X154652930Y-70112214D01*
X154462454Y-70112214D01*
X154367216Y-70159833D01*
X154319597Y-70207452D01*
X154271978Y-70302690D01*
X154271978Y-70588404D01*
X154319597Y-70683642D01*
X154367216Y-70731261D01*
X154462454Y-70778880D01*
X154652930Y-70778880D01*
X154748169Y-70731261D01*
X153891026Y-70731261D02*
X153795788Y-70778880D01*
X153605311Y-70778880D01*
X153510073Y-70731261D01*
X153462454Y-70636023D01*
X153462454Y-70588404D01*
X153510073Y-70493166D01*
X153605311Y-70445547D01*
X153748169Y-70445547D01*
X153843407Y-70397928D01*
X153891026Y-70302690D01*
X153891026Y-70255071D01*
X153843407Y-70159833D01*
X153748169Y-70112214D01*
X153605311Y-70112214D01*
X153510073Y-70159833D01*
X153033883Y-70683642D02*
X152986264Y-70731261D01*
X153033883Y-70778880D01*
X153081502Y-70731261D01*
X153033883Y-70683642D01*
X153033883Y-70778880D01*
X153033883Y-70159833D02*
X152986264Y-70207452D01*
X153033883Y-70255071D01*
X153081502Y-70207452D01*
X153033883Y-70159833D01*
X153033883Y-70255071D01*
X151843407Y-69731261D02*
X152700550Y-71016976D01*
X150795788Y-69731261D02*
X151652930Y-71016976D01*
X150033883Y-70112214D02*
X150033883Y-70921738D01*
X150081502Y-71016976D01*
X150129121Y-71064595D01*
X150224359Y-71112214D01*
X150367216Y-71112214D01*
X150462454Y-71064595D01*
X150033883Y-70731261D02*
X150129121Y-70778880D01*
X150319597Y-70778880D01*
X150414835Y-70731261D01*
X150462454Y-70683642D01*
X150510073Y-70588404D01*
X150510073Y-70302690D01*
X150462454Y-70207452D01*
X150414835Y-70159833D01*
X150319597Y-70112214D01*
X150129121Y-70112214D01*
X150033883Y-70159833D01*
X149557692Y-70778880D02*
X149557692Y-70112214D01*
X149557692Y-69778880D02*
X149605311Y-69826500D01*
X149557692Y-69874119D01*
X149510073Y-69826500D01*
X149557692Y-69778880D01*
X149557692Y-69874119D01*
X149224359Y-70112214D02*
X148843407Y-70112214D01*
X149081502Y-69778880D02*
X149081502Y-70636023D01*
X149033883Y-70731261D01*
X148938645Y-70778880D01*
X148843407Y-70778880D01*
X148510073Y-70778880D02*
X148510073Y-69778880D01*
X148081502Y-70778880D02*
X148081502Y-70255071D01*
X148129121Y-70159833D01*
X148224359Y-70112214D01*
X148367216Y-70112214D01*
X148462454Y-70159833D01*
X148510073Y-70207452D01*
X147176740Y-70112214D02*
X147176740Y-70778880D01*
X147605311Y-70112214D02*
X147605311Y-70636023D01*
X147557692Y-70731261D01*
X147462454Y-70778880D01*
X147319597Y-70778880D01*
X147224359Y-70731261D01*
X147176740Y-70683642D01*
X146700550Y-70778880D02*
X146700550Y-69778880D01*
X146700550Y-70159833D02*
X146605311Y-70112214D01*
X146414835Y-70112214D01*
X146319597Y-70159833D01*
X146271978Y-70207452D01*
X146224359Y-70302690D01*
X146224359Y-70588404D01*
X146271978Y-70683642D01*
X146319597Y-70731261D01*
X146414835Y-70778880D01*
X146605311Y-70778880D01*
X146700550Y-70731261D01*
X145795788Y-70683642D02*
X145748169Y-70731261D01*
X145795788Y-70778880D01*
X145843407Y-70731261D01*
X145795788Y-70683642D01*
X145795788Y-70778880D01*
X144891026Y-70731261D02*
X144986264Y-70778880D01*
X145176740Y-70778880D01*
X145271978Y-70731261D01*
X145319597Y-70683642D01*
X145367216Y-70588404D01*
X145367216Y-70302690D01*
X145319597Y-70207452D01*
X145271978Y-70159833D01*
X145176740Y-70112214D01*
X144986264Y-70112214D01*
X144891026Y-70159833D01*
X144319597Y-70778880D02*
X144414835Y-70731261D01*
X144462454Y-70683642D01*
X144510073Y-70588404D01*
X144510073Y-70302690D01*
X144462454Y-70207452D01*
X144414835Y-70159833D01*
X144319597Y-70112214D01*
X144176740Y-70112214D01*
X144081502Y-70159833D01*
X144033883Y-70207452D01*
X143986264Y-70302690D01*
X143986264Y-70588404D01*
X144033883Y-70683642D01*
X144081502Y-70731261D01*
X144176740Y-70778880D01*
X144319597Y-70778880D01*
X143557692Y-70778880D02*
X143557692Y-70112214D01*
X143557692Y-70207452D02*
X143510073Y-70159833D01*
X143414835Y-70112214D01*
X143271978Y-70112214D01*
X143176740Y-70159833D01*
X143129121Y-70255071D01*
X143129121Y-70778880D01*
X143129121Y-70255071D02*
X143081502Y-70159833D01*
X142986264Y-70112214D01*
X142843407Y-70112214D01*
X142748169Y-70159833D01*
X142700550Y-70255071D01*
X142700550Y-70778880D01*
X141510073Y-69731261D02*
X142367216Y-71016976D01*
X141176740Y-70778880D02*
X141176740Y-70112214D01*
X141176740Y-70207452D02*
X141129121Y-70159833D01*
X141033883Y-70112214D01*
X140891026Y-70112214D01*
X140795788Y-70159833D01*
X140748169Y-70255071D01*
X140748169Y-70778880D01*
X140748169Y-70255071D02*
X140700550Y-70159833D01*
X140605311Y-70112214D01*
X140462454Y-70112214D01*
X140367216Y-70159833D01*
X140319597Y-70255071D01*
X140319597Y-70778880D01*
X139414835Y-70778880D02*
X139414835Y-70255071D01*
X139462454Y-70159833D01*
X139557692Y-70112214D01*
X139748169Y-70112214D01*
X139843407Y-70159833D01*
X139414835Y-70731261D02*
X139510073Y-70778880D01*
X139748169Y-70778880D01*
X139843407Y-70731261D01*
X139891026Y-70636023D01*
X139891026Y-70540785D01*
X139843407Y-70445547D01*
X139748169Y-70397928D01*
X139510073Y-70397928D01*
X139414835Y-70350309D01*
X138938645Y-70778880D02*
X138938645Y-70112214D01*
X138938645Y-70302690D02*
X138891026Y-70207452D01*
X138843407Y-70159833D01*
X138748169Y-70112214D01*
X138652930Y-70112214D01*
X138462454Y-70112214D02*
X138081502Y-70112214D01*
X138319597Y-69778880D02*
X138319597Y-70636023D01*
X138271978Y-70731261D01*
X138176740Y-70778880D01*
X138081502Y-70778880D01*
X137748169Y-70778880D02*
X137748169Y-70112214D01*
X137748169Y-69778880D02*
X137795788Y-69826500D01*
X137748169Y-69874119D01*
X137700550Y-69826500D01*
X137748169Y-69778880D01*
X137748169Y-69874119D01*
X137271978Y-70112214D02*
X137271978Y-70778880D01*
X137271978Y-70207452D02*
X137224359Y-70159833D01*
X137129121Y-70112214D01*
X136986264Y-70112214D01*
X136891026Y-70159833D01*
X136843407Y-70255071D01*
X136843407Y-70778880D01*
X136367216Y-70397928D02*
X135605311Y-70397928D01*
X135224359Y-70112214D02*
X135033883Y-70778880D01*
X134843407Y-70302690D01*
X134652930Y-70778880D01*
X134462454Y-70112214D01*
X133652930Y-70778880D02*
X133652930Y-70255071D01*
X133700550Y-70159833D01*
X133795788Y-70112214D01*
X133986264Y-70112214D01*
X134081502Y-70159833D01*
X133652930Y-70731261D02*
X133748169Y-70778880D01*
X133986264Y-70778880D01*
X134081502Y-70731261D01*
X134129121Y-70636023D01*
X134129121Y-70540785D01*
X134081502Y-70445547D01*
X133986264Y-70397928D01*
X133748169Y-70397928D01*
X133652930Y-70350309D01*
X132748169Y-70112214D02*
X132748169Y-70921738D01*
X132795788Y-71016976D01*
X132843407Y-71064595D01*
X132938645Y-71112214D01*
X133081502Y-71112214D01*
X133176740Y-71064595D01*
X132748169Y-70731261D02*
X132843407Y-70778880D01*
X133033883Y-70778880D01*
X133129121Y-70731261D01*
X133176740Y-70683642D01*
X133224359Y-70588404D01*
X133224359Y-70302690D01*
X133176740Y-70207452D01*
X133129121Y-70159833D01*
X133033883Y-70112214D01*
X132843407Y-70112214D01*
X132748169Y-70159833D01*
X132271978Y-70112214D02*
X132271978Y-70778880D01*
X132271978Y-70207452D02*
X132224359Y-70159833D01*
X132129121Y-70112214D01*
X131986264Y-70112214D01*
X131891026Y-70159833D01*
X131843407Y-70255071D01*
X131843407Y-70778880D01*
X130986264Y-70731261D02*
X131081502Y-70778880D01*
X131271978Y-70778880D01*
X131367216Y-70731261D01*
X131414835Y-70636023D01*
X131414835Y-70255071D01*
X131367216Y-70159833D01*
X131271978Y-70112214D01*
X131081502Y-70112214D01*
X130986264Y-70159833D01*
X130938645Y-70255071D01*
X130938645Y-70350309D01*
X131414835Y-70445547D01*
X130510073Y-70778880D02*
X130510073Y-70112214D01*
X130510073Y-70302690D02*
X130462454Y-70207452D01*
X130414835Y-70159833D01*
X130319597Y-70112214D01*
X130224359Y-70112214D01*
X129176740Y-69731261D02*
X130033883Y-71016976D01*
X128843407Y-70255071D02*
X128510073Y-70255071D01*
X128367216Y-70778880D02*
X128843407Y-70778880D01*
X128843407Y-69778880D01*
X128367216Y-69778880D01*
X127986264Y-70731261D02*
X127843407Y-70778880D01*
X127605311Y-70778880D01*
X127510073Y-70731261D01*
X127462454Y-70683642D01*
X127414835Y-70588404D01*
X127414835Y-70493166D01*
X127462454Y-70397928D01*
X127510073Y-70350309D01*
X127605311Y-70302690D01*
X127795788Y-70255071D01*
X127891026Y-70207452D01*
X127938645Y-70159833D01*
X127986264Y-70064595D01*
X127986264Y-69969357D01*
X127938645Y-69874119D01*
X127891026Y-69826500D01*
X127795788Y-69778880D01*
X127557692Y-69778880D01*
X127414835Y-69826500D01*
X126986264Y-70778880D02*
X126986264Y-69778880D01*
X126605311Y-69778880D01*
X126510073Y-69826500D01*
X126462454Y-69874119D01*
X126414835Y-69969357D01*
X126414835Y-70112214D01*
X126462454Y-70207452D01*
X126510073Y-70255071D01*
X126605311Y-70302690D01*
X126986264Y-70302690D01*
X126081502Y-69778880D02*
X125462454Y-69778880D01*
X125795788Y-70159833D01*
X125652930Y-70159833D01*
X125557692Y-70207452D01*
X125510073Y-70255071D01*
X125462454Y-70350309D01*
X125462454Y-70588404D01*
X125510073Y-70683642D01*
X125557692Y-70731261D01*
X125652930Y-70778880D01*
X125938645Y-70778880D01*
X126033883Y-70731261D01*
X126081502Y-70683642D01*
X125081502Y-69874119D02*
X125033883Y-69826500D01*
X124938645Y-69778880D01*
X124700550Y-69778880D01*
X124605311Y-69826500D01*
X124557692Y-69874119D01*
X124510073Y-69969357D01*
X124510073Y-70064595D01*
X124557692Y-70207452D01*
X125129121Y-70778880D01*
X124510073Y-70778880D01*
X124081502Y-70397928D02*
X123319597Y-70397928D01*
X122271978Y-70778880D02*
X122605311Y-70302690D01*
X122843407Y-70778880D02*
X122843407Y-69778880D01*
X122462454Y-69778880D01*
X122367216Y-69826500D01*
X122319597Y-69874119D01*
X122271978Y-69969357D01*
X122271978Y-70112214D01*
X122319597Y-70207452D01*
X122367216Y-70255071D01*
X122462454Y-70302690D01*
X122843407Y-70302690D01*
X121414835Y-70778880D02*
X121414835Y-70255071D01*
X121462454Y-70159833D01*
X121557692Y-70112214D01*
X121748169Y-70112214D01*
X121843407Y-70159833D01*
X121414835Y-70731261D02*
X121510073Y-70778880D01*
X121748169Y-70778880D01*
X121843407Y-70731261D01*
X121891026Y-70636023D01*
X121891026Y-70540785D01*
X121843407Y-70445547D01*
X121748169Y-70397928D01*
X121510073Y-70397928D01*
X121414835Y-70350309D01*
X120510073Y-70778880D02*
X120510073Y-69778880D01*
X120510073Y-70731261D02*
X120605311Y-70778880D01*
X120795788Y-70778880D01*
X120891026Y-70731261D01*
X120938645Y-70683642D01*
X120986264Y-70588404D01*
X120986264Y-70302690D01*
X120938645Y-70207452D01*
X120891026Y-70159833D01*
X120795788Y-70112214D01*
X120605311Y-70112214D01*
X120510073Y-70159833D01*
X120033883Y-70778880D02*
X120033883Y-70112214D01*
X120033883Y-69778880D02*
X120081502Y-69826500D01*
X120033883Y-69874119D01*
X119986264Y-69826500D01*
X120033883Y-69778880D01*
X120033883Y-69874119D01*
X119414835Y-70778880D02*
X119510073Y-70731261D01*
X119557692Y-70683642D01*
X119605311Y-70588404D01*
X119605311Y-70302690D01*
X119557692Y-70207452D01*
X119510073Y-70159833D01*
X119414835Y-70112214D01*
X119271978Y-70112214D01*
X119176740Y-70159833D01*
X119129121Y-70207452D01*
X119081502Y-70302690D01*
X119081502Y-70588404D01*
X119129121Y-70683642D01*
X119176740Y-70731261D01*
X119271978Y-70778880D01*
X119414835Y-70778880D01*
D11*
%TO.C,R209*%
X132922500Y-118137258D02*
X132922500Y-117662742D01*
X131877500Y-118137258D02*
X131877500Y-117662742D01*
%TO.C,R208*%
X127922500Y-118137258D02*
X127922500Y-117662742D01*
X126877500Y-118137258D02*
X126877500Y-117662742D01*
%TO.C,R207*%
X132922500Y-92162258D02*
X132922500Y-91687742D01*
X131877500Y-92162258D02*
X131877500Y-91687742D01*
%TO.C,R206*%
X130422500Y-118137258D02*
X130422500Y-117662742D01*
X129377500Y-118137258D02*
X129377500Y-117662742D01*
%TO.C,R209*%
D10*
X132861904Y-120304761D02*
X132480952Y-120038095D01*
X132861904Y-119847619D02*
X132061904Y-119847619D01*
X132061904Y-120152380D01*
X132100000Y-120228571D01*
X132138095Y-120266666D01*
X132214285Y-120304761D01*
X132328571Y-120304761D01*
X132404761Y-120266666D01*
X132442857Y-120228571D01*
X132480952Y-120152380D01*
X132480952Y-119847619D01*
X132138095Y-120609523D02*
X132100000Y-120647619D01*
X132061904Y-120723809D01*
X132061904Y-120914285D01*
X132100000Y-120990476D01*
X132138095Y-121028571D01*
X132214285Y-121066666D01*
X132290476Y-121066666D01*
X132404761Y-121028571D01*
X132861904Y-120571428D01*
X132861904Y-121066666D01*
X132061904Y-121561904D02*
X132061904Y-121638095D01*
X132100000Y-121714285D01*
X132138095Y-121752380D01*
X132214285Y-121790476D01*
X132366666Y-121828571D01*
X132557142Y-121828571D01*
X132709523Y-121790476D01*
X132785714Y-121752380D01*
X132823809Y-121714285D01*
X132861904Y-121638095D01*
X132861904Y-121561904D01*
X132823809Y-121485714D01*
X132785714Y-121447619D01*
X132709523Y-121409523D01*
X132557142Y-121371428D01*
X132366666Y-121371428D01*
X132214285Y-121409523D01*
X132138095Y-121447619D01*
X132100000Y-121485714D01*
X132061904Y-121561904D01*
X132861904Y-122209523D02*
X132861904Y-122361904D01*
X132823809Y-122438095D01*
X132785714Y-122476190D01*
X132671428Y-122552380D01*
X132519047Y-122590476D01*
X132214285Y-122590476D01*
X132138095Y-122552380D01*
X132100000Y-122514285D01*
X132061904Y-122438095D01*
X132061904Y-122285714D01*
X132100000Y-122209523D01*
X132138095Y-122171428D01*
X132214285Y-122133333D01*
X132404761Y-122133333D01*
X132480952Y-122171428D01*
X132519047Y-122209523D01*
X132557142Y-122285714D01*
X132557142Y-122438095D01*
X132519047Y-122514285D01*
X132480952Y-122552380D01*
X132404761Y-122590476D01*
%TO.C,R208*%
X127761904Y-120304761D02*
X127380952Y-120038095D01*
X127761904Y-119847619D02*
X126961904Y-119847619D01*
X126961904Y-120152380D01*
X127000000Y-120228571D01*
X127038095Y-120266666D01*
X127114285Y-120304761D01*
X127228571Y-120304761D01*
X127304761Y-120266666D01*
X127342857Y-120228571D01*
X127380952Y-120152380D01*
X127380952Y-119847619D01*
X127038095Y-120609523D02*
X127000000Y-120647619D01*
X126961904Y-120723809D01*
X126961904Y-120914285D01*
X127000000Y-120990476D01*
X127038095Y-121028571D01*
X127114285Y-121066666D01*
X127190476Y-121066666D01*
X127304761Y-121028571D01*
X127761904Y-120571428D01*
X127761904Y-121066666D01*
X126961904Y-121561904D02*
X126961904Y-121638095D01*
X127000000Y-121714285D01*
X127038095Y-121752380D01*
X127114285Y-121790476D01*
X127266666Y-121828571D01*
X127457142Y-121828571D01*
X127609523Y-121790476D01*
X127685714Y-121752380D01*
X127723809Y-121714285D01*
X127761904Y-121638095D01*
X127761904Y-121561904D01*
X127723809Y-121485714D01*
X127685714Y-121447619D01*
X127609523Y-121409523D01*
X127457142Y-121371428D01*
X127266666Y-121371428D01*
X127114285Y-121409523D01*
X127038095Y-121447619D01*
X127000000Y-121485714D01*
X126961904Y-121561904D01*
X127304761Y-122285714D02*
X127266666Y-122209523D01*
X127228571Y-122171428D01*
X127152380Y-122133333D01*
X127114285Y-122133333D01*
X127038095Y-122171428D01*
X127000000Y-122209523D01*
X126961904Y-122285714D01*
X126961904Y-122438095D01*
X127000000Y-122514285D01*
X127038095Y-122552380D01*
X127114285Y-122590476D01*
X127152380Y-122590476D01*
X127228571Y-122552380D01*
X127266666Y-122514285D01*
X127304761Y-122438095D01*
X127304761Y-122285714D01*
X127342857Y-122209523D01*
X127380952Y-122171428D01*
X127457142Y-122133333D01*
X127609523Y-122133333D01*
X127685714Y-122171428D01*
X127723809Y-122209523D01*
X127761904Y-122285714D01*
X127761904Y-122438095D01*
X127723809Y-122514285D01*
X127685714Y-122552380D01*
X127609523Y-122590476D01*
X127457142Y-122590476D01*
X127380952Y-122552380D01*
X127342857Y-122514285D01*
X127304761Y-122438095D01*
%TO.C,R207*%
X132761904Y-94304761D02*
X132380952Y-94038095D01*
X132761904Y-93847619D02*
X131961904Y-93847619D01*
X131961904Y-94152380D01*
X132000000Y-94228571D01*
X132038095Y-94266666D01*
X132114285Y-94304761D01*
X132228571Y-94304761D01*
X132304761Y-94266666D01*
X132342857Y-94228571D01*
X132380952Y-94152380D01*
X132380952Y-93847619D01*
X132038095Y-94609523D02*
X132000000Y-94647619D01*
X131961904Y-94723809D01*
X131961904Y-94914285D01*
X132000000Y-94990476D01*
X132038095Y-95028571D01*
X132114285Y-95066666D01*
X132190476Y-95066666D01*
X132304761Y-95028571D01*
X132761904Y-94571428D01*
X132761904Y-95066666D01*
X131961904Y-95561904D02*
X131961904Y-95638095D01*
X132000000Y-95714285D01*
X132038095Y-95752380D01*
X132114285Y-95790476D01*
X132266666Y-95828571D01*
X132457142Y-95828571D01*
X132609523Y-95790476D01*
X132685714Y-95752380D01*
X132723809Y-95714285D01*
X132761904Y-95638095D01*
X132761904Y-95561904D01*
X132723809Y-95485714D01*
X132685714Y-95447619D01*
X132609523Y-95409523D01*
X132457142Y-95371428D01*
X132266666Y-95371428D01*
X132114285Y-95409523D01*
X132038095Y-95447619D01*
X132000000Y-95485714D01*
X131961904Y-95561904D01*
X131961904Y-96095238D02*
X131961904Y-96628571D01*
X132761904Y-96285714D01*
%TO.C,R206*%
X130361904Y-120304761D02*
X129980952Y-120038095D01*
X130361904Y-119847619D02*
X129561904Y-119847619D01*
X129561904Y-120152380D01*
X129600000Y-120228571D01*
X129638095Y-120266666D01*
X129714285Y-120304761D01*
X129828571Y-120304761D01*
X129904761Y-120266666D01*
X129942857Y-120228571D01*
X129980952Y-120152380D01*
X129980952Y-119847619D01*
X129638095Y-120609523D02*
X129600000Y-120647619D01*
X129561904Y-120723809D01*
X129561904Y-120914285D01*
X129600000Y-120990476D01*
X129638095Y-121028571D01*
X129714285Y-121066666D01*
X129790476Y-121066666D01*
X129904761Y-121028571D01*
X130361904Y-120571428D01*
X130361904Y-121066666D01*
X129561904Y-121561904D02*
X129561904Y-121638095D01*
X129600000Y-121714285D01*
X129638095Y-121752380D01*
X129714285Y-121790476D01*
X129866666Y-121828571D01*
X130057142Y-121828571D01*
X130209523Y-121790476D01*
X130285714Y-121752380D01*
X130323809Y-121714285D01*
X130361904Y-121638095D01*
X130361904Y-121561904D01*
X130323809Y-121485714D01*
X130285714Y-121447619D01*
X130209523Y-121409523D01*
X130057142Y-121371428D01*
X129866666Y-121371428D01*
X129714285Y-121409523D01*
X129638095Y-121447619D01*
X129600000Y-121485714D01*
X129561904Y-121561904D01*
X129561904Y-122514285D02*
X129561904Y-122361904D01*
X129600000Y-122285714D01*
X129638095Y-122247619D01*
X129752380Y-122171428D01*
X129904761Y-122133333D01*
X130209523Y-122133333D01*
X130285714Y-122171428D01*
X130323809Y-122209523D01*
X130361904Y-122285714D01*
X130361904Y-122438095D01*
X130323809Y-122514285D01*
X130285714Y-122552380D01*
X130209523Y-122590476D01*
X130019047Y-122590476D01*
X129942857Y-122552380D01*
X129904761Y-122514285D01*
X129866666Y-122438095D01*
X129866666Y-122285714D01*
X129904761Y-122209523D01*
X129942857Y-122171428D01*
X130019047Y-122133333D01*
%TD*%
M02*
