M48
; DRILL file {KiCad 5.1.10-88a1d61d58~88~ubuntu18.04.1} date Wed Aug 18 13:18:34 2021
; FORMAT={-:-/ absolute / inch / decimal}
; #@! TF.CreationDate,2021-08-18T13:18:34+02:00
; #@! TF.GenerationSoftware,Kicad,Pcbnew,5.1.10-88a1d61d58~88~ubuntu18.04.1
; #@! TF.FileFunction,Plated,1,4,PTH
FMAT,2
INCH
T1C0.0157
T2C0.0236
T3C0.0256
T4C0.0276
T5C0.0315
T6C0.0319
T7C0.0335
T8C0.0394
T9C0.0512
%
G90
G05
T1
X3.9961Y-3.3976
X4.0197Y-3.6575
X4.0512Y-2.9055
X4.0531Y-2.8563
X4.0768Y-2.9508
X4.0827Y-4.3701
X4.0866Y-3.3976
X4.1587Y-3.947
X4.1614Y-4.5984
X4.1654Y-2.6142
X4.1811Y-3.6181
X4.1909Y-3.1142
X4.1988Y-2.6476
X4.2047Y-3.3957
X4.2756Y-4.372
X4.2874Y-3.4173
X4.3189Y-4.6732
X4.3386Y-4.8386
X4.3496Y-4.1144
X4.3583Y-4.3583
X4.374Y-3.4173
X4.4173Y-3.7992
X4.4213Y-3.8465
X4.4252Y-3.5945
X4.448Y-4.0553
X4.448Y-4.1695
X4.45Y-4.0159
X4.4528Y-3.874
X4.4646Y-3.5945
X4.4783Y-3.7992
X4.4823Y-3.1142
X4.4921Y-3.3957
X4.4961Y-3.2835
X4.5079Y-4.2244
X4.5079Y-4.3543
X4.5118Y-3.3228
X4.5364Y-4.1063
X4.5472Y-4.3543
X4.5512Y-4.4567
X4.5531Y-3.6299
X4.5622Y-3.8014
X4.5827Y-4.1063
X4.5906Y-3.0315
X4.5925Y-4.1801
X4.6102Y-4.2283
X4.6102Y-4.2717
X4.6134Y-3.9156
X4.6134Y-4.014
X4.6142Y-4.0551
X4.6181Y-4.3543
X4.6299Y-4.6496
X4.6356Y-4.1982
X4.637Y-3.6941
X4.6614Y-3.622
X4.6732Y-2.9961
X4.6929Y-4.2165
X4.6929Y-5.4173
X4.6969Y-4.2598
X4.7126Y-2.9764
X4.7256Y-3.6323
X4.7269Y-3.8543
X4.752Y-4.0787
X4.752Y-5.1929
X4.7559Y-2.9685
X4.7638Y-3.5394
X4.7717Y-4.7407
X4.7728Y-3.8545
X4.7874Y-3.3976
X4.7913Y-5.4252
X4.7953Y-3.2244
X4.7953Y-5.2756
X4.811Y-3.0787
X4.8189Y-3.6181
X4.822Y-4.0691
X4.8228Y-3.437
X4.8307Y-3.9606
X4.8319Y-3.8762
X4.8319Y-4.0041
X4.8346Y-3.1378
X4.8346Y-3.6929
X4.8363Y-3.7488
X4.8465Y-5.2008
X4.8465Y-5.2598
X4.8504Y-5.0394
X4.8543Y-4.2323
X4.8811Y-3.8014
X4.8831Y-4.1281
X4.935Y-4.7638
X4.9685Y-4.2323
X4.9803Y-4.1102
X4.9843Y-4.3543
X5.0Y-3.2441
X5.0248Y-3.9175
X5.0337Y-4.012
X5.0472Y-3.0787
X5.0524Y-4.0789
X5.0591Y-4.2323
X5.0591Y-5.315
X5.063Y-2.9016
X5.063Y-3.122
X5.0871Y-4.4493
X5.0984Y-3.622
X5.1022Y-5.261
X5.1024Y-2.9016
X5.1024Y-3.7283
X5.1043Y-4.7421
X5.1043Y-5.3563
X5.1102Y-4.0276
X5.1378Y-3.9675
X5.1378Y-3.0394
X5.1496Y-3.8575
X5.1614Y-4.1614
X5.1693Y-3.0079
X5.1693Y-3.9016
X5.1929Y-3.9921
X5.2362Y-4.9843
X5.2874Y-3.9331
X5.2953Y-4.1614
X5.311Y-4.2638
X5.315Y-2.9843
X5.3346Y-3.622
X5.3346Y-3.7303
X5.3386Y-3.3071
X5.3661Y-5.1772
X5.374Y-5.2913
X5.374Y-5.3346
X5.3839Y-5.063
X5.3839Y-5.1378
X5.3917Y-5.2343
X5.3937Y-4.3465
X5.4134Y-3.937
X5.4768Y-3.8114
X5.4843Y-5.3445
X5.5Y-3.3583
X5.6102Y-3.0157
X5.6102Y-3.0551
X5.6457Y-3.0157
X5.6457Y-3.0551
X5.685Y-3.1732
X5.6969Y-3.2598
X5.7047Y-4.874
X5.7362Y-4.7362
X5.7598Y-4.9803
X5.7913Y-3.5551
X5.8346Y-3.0709
X5.8346Y-3.1732
X5.878Y-4.1772
X5.8819Y-4.563
X5.9646Y-4.2441
X6.0945Y-4.2165
X6.122Y-3.7402
X6.2953Y-4.4055
X6.3031Y-3.7402
X6.311Y-4.2441
X6.5039Y-4.5748
X6.5118Y-4.8386
X6.5236Y-4.626
X6.5551Y-4.1378
X6.5551Y-4.189
X6.7441Y-4.8504
X6.748Y-4.998
X7.063Y-2.6772
X7.1496Y-2.8189
X7.2441Y-5.3583
X7.2441Y-4.8228
X7.2795Y-4.9213
X7.2953Y-5.3583
X7.311Y-2.7835
X7.3189Y-2.6772
X7.3189Y-4.8228
X7.3504Y-5.0118
X7.3504Y-5.063
X7.5787Y-3.1811
X7.6142Y-4.685
X7.622Y-3.1811
X7.6535Y-5.0827
X7.6654Y-3.1811
X7.7087Y-3.1811
X7.7087Y-4.8661
X7.7087Y-5.1299
X7.752Y-3.1811
X7.7795Y-3.2362
X7.7795Y-3.2795
X7.7795Y-3.3228
X7.7795Y-3.3661
X7.7795Y-3.4094
T3
X4.5248Y-4.6559
X4.5248Y-4.7059
X4.5248Y-4.7559
X4.5248Y-4.8059
X4.5248Y-4.8559
X4.5748Y-4.6559
X4.5748Y-4.7059
X4.5748Y-4.7559
X4.5748Y-4.8059
X4.5748Y-4.8559
T4
X4.0354Y-4.9827
X4.0354Y-5.0827
X4.0354Y-5.2827
T5
X5.7185Y-3.8189
X5.7197Y-4.1142
X6.0185Y-3.8189
X6.0197Y-4.1142
X6.1665Y-3.9764
X6.4665Y-3.9764
T6
X5.5354Y-2.5945
X5.5354Y-2.9882
X5.7323Y-2.5945
X5.7323Y-2.9882
X6.1299Y-2.5945
X6.1299Y-2.9882
X6.3268Y-2.5945
X6.3268Y-2.9882
T7
X5.9795Y-3.178
X5.9795Y-3.378
X5.9795Y-3.4732
X5.9795Y-3.6732
X5.9795Y-4.3197
X5.9795Y-4.5197
X5.9795Y-4.6063
X5.9795Y-4.8063
X5.9795Y-4.8937
X5.9795Y-5.0937
X5.9795Y-5.1811
X5.9795Y-5.3811
X6.0795Y-3.178
X6.0795Y-3.378
X6.0795Y-3.4732
X6.0795Y-3.6732
X6.0795Y-4.3197
X6.0795Y-4.5197
X6.0795Y-4.6063
X6.0795Y-4.8063
X6.0795Y-4.8937
X6.0795Y-5.0937
X6.0795Y-5.1811
X6.0795Y-5.3811
X6.1795Y-3.178
X6.1795Y-3.378
X6.1795Y-3.4732
X6.1795Y-3.6732
X6.1795Y-4.3197
X6.1795Y-4.5197
X6.1795Y-4.6063
X6.1795Y-4.8063
X6.1795Y-4.8937
X6.1795Y-5.0937
X6.1795Y-5.1811
X6.1795Y-5.3811
X6.2795Y-3.178
X6.2795Y-3.378
X6.2795Y-3.4732
X6.2795Y-3.6732
X6.2795Y-4.3197
X6.2795Y-4.5197
X6.2795Y-4.6063
X6.2795Y-4.8063
X6.2795Y-4.8937
X6.2795Y-5.0937
X6.2795Y-5.1811
X6.2795Y-5.3811
T8
X4.013Y-3.5079
X4.013Y-4.5079
X4.113Y-3.5079
X4.113Y-4.5079
X4.213Y-3.5079
X4.213Y-4.5079
X4.313Y-3.5079
X4.313Y-4.5079
X4.413Y-3.5079
X4.413Y-4.5079
X4.513Y-3.5079
X4.513Y-4.5079
X4.613Y-3.5079
X4.613Y-4.5079
X4.713Y-3.5079
X4.713Y-4.5079
X4.813Y-3.5079
X4.813Y-4.5079
X4.913Y-3.5079
X4.913Y-4.5079
X5.013Y-3.5079
X5.013Y-4.5079
X5.113Y-3.5079
X5.113Y-4.5079
X5.213Y-3.5079
X5.213Y-4.5079
X5.313Y-3.5099
X5.313Y-4.5079
X5.4129Y-3.5079
X5.413Y-4.5079
X6.1614Y-3.8189
X6.1614Y-4.1732
X6.2614Y-3.8189
X6.2614Y-4.1732
X6.3614Y-3.8189
X6.3614Y-4.1732
X6.4134Y-3.378
X6.4134Y-3.478
X6.4134Y-3.578
X6.4134Y-3.678
X6.4134Y-4.315
X6.4134Y-4.415
X6.4134Y-4.515
X6.4134Y-4.615
X6.4614Y-3.8189
X6.4614Y-4.1732
X6.5748Y-5.1102
X6.5748Y-5.3071
X6.5906Y-2.6339
X6.5906Y-2.7874
X6.8661Y-3.7008
X6.9252Y-2.7165
X6.9661Y-3.7008
X7.0118Y-5.1102
X7.0118Y-5.3071
X7.0661Y-3.7008
X7.0669Y-4.2913
X7.0945Y-3.0551
X7.1661Y-3.7008
X7.1669Y-4.2913
X7.2598Y-3.2244
X7.2598Y-3.4213
X7.2913Y-3.0551
T9
X7.3583Y-3.5984
X7.3583Y-3.7969
X7.3583Y-3.9953
X7.3583Y-4.5961
X7.5059Y-4.5961
X7.6535Y-3.5984
X7.6535Y-3.7969
X7.6535Y-3.9953
X7.6535Y-4.5961
T2
G00X7.022Y-2.4311
M15
G01X7.022Y-2.4075
M16
G05
G00X7.022Y-2.6055
M15
G01X7.022Y-2.5622
M16
G05
G00X7.3622Y-2.4311
M15
G01X7.3622Y-2.4075
M16
G05
G00X7.3622Y-2.6055
M15
G01X7.3622Y-2.5622
M16
G05
T0
M30
