%TF.GenerationSoftware,KiCad,Pcbnew,5.1.10-88a1d61d58~88~ubuntu18.04.1*%
%TF.CreationDate,2021-08-18T13:18:07+02:00*%
%TF.ProjectId,saba-fernbedienung,73616261-2d66-4657-926e-62656469656e,rev?*%
%TF.SameCoordinates,Original*%
%TF.FileFunction,Soldermask,Bot*%
%TF.FilePolarity,Negative*%
%FSLAX46Y46*%
G04 Gerber Fmt 4.6, Leading zero omitted, Abs format (unit mm)*
G04 Created by KiCad (PCBNEW 5.1.10-88a1d61d58~88~ubuntu18.04.1) date 2021-08-18 13:18:07*
%MOMM*%
%LPD*%
G01*
G04 APERTURE LIST*
%ADD10C,3.200000*%
%ADD11C,1.700000*%
%ADD12R,2.000000X2.000000*%
%ADD13C,2.000000*%
%ADD14R,1.700000X1.700000*%
%ADD15O,3.000000X2.000000*%
%ADD16O,2.000000X3.000000*%
%ADD17R,2.000000X3.000000*%
%ADD18C,1.520000*%
%ADD19R,1.520000X1.520000*%
%ADD20O,1.700000X1.700000*%
%ADD21O,1.000000X2.100000*%
%ADD22C,0.650000*%
%ADD23O,1.000000X1.600000*%
%ADD24C,1.400000*%
%ADD25C,1.600000*%
%ADD26O,1.600000X1.600000*%
%ADD27O,1.000000X1.000000*%
%ADD28R,1.000000X1.000000*%
G04 APERTURE END LIST*
D10*
%TO.C,REF\u002A\u002A*%
X180000000Y-101500000D03*
%TD*%
%TO.C,REF\u002A\u002A*%
X170000000Y-101500000D03*
%TD*%
%TO.C,REF\u002A\u002A*%
X191000000Y-130500000D03*
%TD*%
%TO.C,REF\u002A\u002A*%
X109000000Y-72500000D03*
%TD*%
%TO.C,REF\u002A\u002A*%
X109000000Y-130500000D03*
%TD*%
%TO.C,REF\u002A\u002A*%
X191000000Y-72500000D03*
%TD*%
D11*
%TO.C,J305*%
X171700000Y-72400000D03*
X171700000Y-65400000D03*
%TD*%
D12*
%TO.C,C405*%
X180200000Y-77600000D03*
D13*
X185200000Y-77600000D03*
%TD*%
D12*
%TO.C,C402*%
X184400000Y-86900000D03*
D13*
X184400000Y-81900000D03*
%TD*%
D14*
%TO.C,J310*%
X167400000Y-70800000D03*
%TD*%
%TO.C,J309*%
X175900000Y-69000000D03*
%TD*%
%TO.C,J308*%
X167400000Y-66900000D03*
%TD*%
D15*
%TO.C,K607*%
X194400000Y-91400000D03*
X186900000Y-96440000D03*
X194400000Y-101480000D03*
X186900000Y-101480000D03*
X186900000Y-91400000D03*
X194400000Y-96440000D03*
D16*
X186900000Y-116740000D03*
D17*
X194400000Y-116740000D03*
D16*
X190650000Y-116740000D03*
%TD*%
D18*
%TO.C,T702*%
X155700000Y-75900000D03*
D19*
X160700000Y-75900000D03*
D18*
X155700000Y-65900000D03*
X160700000Y-65900000D03*
%TD*%
%TO.C,T701*%
X140600000Y-75900000D03*
D19*
X145600000Y-75900000D03*
D18*
X140600000Y-65900000D03*
X145600000Y-65900000D03*
%TD*%
D20*
%TO.C,U201*%
X137490000Y-114500000D03*
X134950000Y-114500000D03*
X132410000Y-114500000D03*
X129870000Y-114500000D03*
X127330000Y-114500000D03*
X124790000Y-114500000D03*
X122250000Y-114500000D03*
X119710000Y-114500000D03*
X117170000Y-114500000D03*
X114630000Y-114500000D03*
X112090000Y-114500000D03*
X109550000Y-114500000D03*
X107010000Y-114500000D03*
X104470000Y-114500000D03*
X101930000Y-114500000D03*
X101930000Y-89100000D03*
X104470000Y-89100000D03*
X107010000Y-89100000D03*
X109550000Y-89100000D03*
X112090000Y-89100000D03*
X114630000Y-89100000D03*
X117170000Y-89100000D03*
X119710000Y-89100000D03*
X122250000Y-89100000D03*
X124790000Y-89100000D03*
X127330000Y-89100000D03*
X129870000Y-89100000D03*
X132410000Y-89100000D03*
X134950000Y-89150800D03*
X137488000Y-89100800D03*
%TD*%
D12*
%TO.C,C415*%
X178100000Y-129800000D03*
D13*
X178100000Y-134800000D03*
%TD*%
D14*
%TO.C,K606*%
X151880000Y-114800000D03*
D11*
X154420000Y-114800000D03*
X156960000Y-114800000D03*
X159500000Y-114800000D03*
X159500000Y-109720000D03*
X156960000Y-109720000D03*
X154420000Y-109720000D03*
X151880000Y-109720000D03*
%TD*%
D14*
%TO.C,K605*%
X151880000Y-136680000D03*
D11*
X154420000Y-136680000D03*
X156960000Y-136680000D03*
X159500000Y-136680000D03*
X159500000Y-131600000D03*
X156960000Y-131600000D03*
X154420000Y-131600000D03*
X151880000Y-131600000D03*
%TD*%
D14*
%TO.C,K604*%
X151880000Y-129380000D03*
D11*
X154420000Y-129380000D03*
X156960000Y-129380000D03*
X159500000Y-129380000D03*
X159500000Y-124300000D03*
X156960000Y-124300000D03*
X154420000Y-124300000D03*
X151880000Y-124300000D03*
%TD*%
D14*
%TO.C,K603*%
X151880000Y-85800000D03*
D11*
X154420000Y-85800000D03*
X156960000Y-85800000D03*
X159500000Y-85800000D03*
X159500000Y-80720000D03*
X156960000Y-80720000D03*
X154420000Y-80720000D03*
X151880000Y-80720000D03*
%TD*%
D14*
%TO.C,K602*%
X151880000Y-122080000D03*
D11*
X154420000Y-122080000D03*
X156960000Y-122080000D03*
X159500000Y-122080000D03*
X159500000Y-117000000D03*
X156960000Y-117000000D03*
X154420000Y-117000000D03*
X151880000Y-117000000D03*
%TD*%
D14*
%TO.C,K601*%
X151880000Y-93300000D03*
D11*
X154420000Y-93300000D03*
X156960000Y-93300000D03*
X159500000Y-93300000D03*
X159500000Y-88220000D03*
X156960000Y-88220000D03*
X154420000Y-88220000D03*
X151880000Y-88220000D03*
%TD*%
D14*
%TO.C,J306*%
X179500000Y-109000000D03*
D20*
X182040000Y-109000000D03*
%TD*%
D21*
%TO.C,J312*%
X178360000Y-65630000D03*
X187000000Y-65630000D03*
D22*
X185570000Y-65100000D03*
D23*
X187000000Y-61450000D03*
D22*
X179790000Y-65100000D03*
D23*
X178360000Y-61450000D03*
%TD*%
%TO.C,U301*%
G36*
G01*
X102049200Y-125860000D02*
X102950800Y-125860000D01*
G75*
G02*
X103200000Y-126109200I0J-249200D01*
G01*
X103200000Y-127010800D01*
G75*
G02*
X102950800Y-127260000I-249200J0D01*
G01*
X102049200Y-127260000D01*
G75*
G02*
X101800000Y-127010800I0J249200D01*
G01*
X101800000Y-126109200D01*
G75*
G02*
X102049200Y-125860000I249200J0D01*
G01*
G37*
D24*
X102500000Y-129100000D03*
X102500000Y-134180000D03*
%TD*%
D25*
%TO.C,R618*%
X152900000Y-104500000D03*
D26*
X145280000Y-104500000D03*
%TD*%
%TO.C,R617*%
X164250000Y-101000000D03*
D25*
X156630000Y-101000000D03*
%TD*%
D26*
%TO.C,R603*%
X152870000Y-97000000D03*
D25*
X145250000Y-97000000D03*
%TD*%
%TO.C,R209*%
G36*
G01*
X132675000Y-117475000D02*
X132125000Y-117475000D01*
G75*
G02*
X131925000Y-117275000I0J200000D01*
G01*
X131925000Y-116875000D01*
G75*
G02*
X132125000Y-116675000I200000J0D01*
G01*
X132675000Y-116675000D01*
G75*
G02*
X132875000Y-116875000I0J-200000D01*
G01*
X132875000Y-117275000D01*
G75*
G02*
X132675000Y-117475000I-200000J0D01*
G01*
G37*
G36*
G01*
X132675000Y-119125000D02*
X132125000Y-119125000D01*
G75*
G02*
X131925000Y-118925000I0J200000D01*
G01*
X131925000Y-118525000D01*
G75*
G02*
X132125000Y-118325000I200000J0D01*
G01*
X132675000Y-118325000D01*
G75*
G02*
X132875000Y-118525000I0J-200000D01*
G01*
X132875000Y-118925000D01*
G75*
G02*
X132675000Y-119125000I-200000J0D01*
G01*
G37*
%TD*%
%TO.C,R208*%
G36*
G01*
X127675000Y-117475000D02*
X127125000Y-117475000D01*
G75*
G02*
X126925000Y-117275000I0J200000D01*
G01*
X126925000Y-116875000D01*
G75*
G02*
X127125000Y-116675000I200000J0D01*
G01*
X127675000Y-116675000D01*
G75*
G02*
X127875000Y-116875000I0J-200000D01*
G01*
X127875000Y-117275000D01*
G75*
G02*
X127675000Y-117475000I-200000J0D01*
G01*
G37*
G36*
G01*
X127675000Y-119125000D02*
X127125000Y-119125000D01*
G75*
G02*
X126925000Y-118925000I0J200000D01*
G01*
X126925000Y-118525000D01*
G75*
G02*
X127125000Y-118325000I200000J0D01*
G01*
X127675000Y-118325000D01*
G75*
G02*
X127875000Y-118525000I0J-200000D01*
G01*
X127875000Y-118925000D01*
G75*
G02*
X127675000Y-119125000I-200000J0D01*
G01*
G37*
%TD*%
%TO.C,R207*%
G36*
G01*
X132675000Y-91500000D02*
X132125000Y-91500000D01*
G75*
G02*
X131925000Y-91300000I0J200000D01*
G01*
X131925000Y-90900000D01*
G75*
G02*
X132125000Y-90700000I200000J0D01*
G01*
X132675000Y-90700000D01*
G75*
G02*
X132875000Y-90900000I0J-200000D01*
G01*
X132875000Y-91300000D01*
G75*
G02*
X132675000Y-91500000I-200000J0D01*
G01*
G37*
G36*
G01*
X132675000Y-93150000D02*
X132125000Y-93150000D01*
G75*
G02*
X131925000Y-92950000I0J200000D01*
G01*
X131925000Y-92550000D01*
G75*
G02*
X132125000Y-92350000I200000J0D01*
G01*
X132675000Y-92350000D01*
G75*
G02*
X132875000Y-92550000I0J-200000D01*
G01*
X132875000Y-92950000D01*
G75*
G02*
X132675000Y-93150000I-200000J0D01*
G01*
G37*
%TD*%
%TO.C,R206*%
G36*
G01*
X130175000Y-117475000D02*
X129625000Y-117475000D01*
G75*
G02*
X129425000Y-117275000I0J200000D01*
G01*
X129425000Y-116875000D01*
G75*
G02*
X129625000Y-116675000I200000J0D01*
G01*
X130175000Y-116675000D01*
G75*
G02*
X130375000Y-116875000I0J-200000D01*
G01*
X130375000Y-117275000D01*
G75*
G02*
X130175000Y-117475000I-200000J0D01*
G01*
G37*
G36*
G01*
X130175000Y-119125000D02*
X129625000Y-119125000D01*
G75*
G02*
X129425000Y-118925000I0J200000D01*
G01*
X129425000Y-118525000D01*
G75*
G02*
X129625000Y-118325000I200000J0D01*
G01*
X130175000Y-118325000D01*
G75*
G02*
X130375000Y-118525000I0J-200000D01*
G01*
X130375000Y-118925000D01*
G75*
G02*
X130175000Y-119125000I-200000J0D01*
G01*
G37*
%TD*%
D20*
%TO.C,J311*%
X162900000Y-117220000D03*
X162900000Y-114680000D03*
X162900000Y-112140000D03*
D14*
X162900000Y-109600000D03*
%TD*%
%TO.C,J307*%
X174400000Y-94000000D03*
D20*
X176940000Y-94000000D03*
X179480000Y-94000000D03*
X182020000Y-94000000D03*
%TD*%
D14*
%TO.C,J304*%
X156500000Y-106000000D03*
D20*
X159040000Y-106000000D03*
X161580000Y-106000000D03*
X164120000Y-106000000D03*
%TD*%
D14*
%TO.C,J302*%
X162900000Y-85800000D03*
D20*
X162900000Y-88340000D03*
X162900000Y-90880000D03*
X162900000Y-93420000D03*
%TD*%
D14*
%TO.C,J301*%
X156500000Y-97000000D03*
D20*
X159040000Y-97000000D03*
X161580000Y-97000000D03*
X164120000Y-97000000D03*
%TD*%
D27*
%TO.C,J201*%
X116200000Y-123340000D03*
X114930000Y-123340000D03*
X116200000Y-122070000D03*
X114930000Y-122070000D03*
X116200000Y-120800000D03*
X114930000Y-120800000D03*
X116200000Y-119530000D03*
X114930000Y-119530000D03*
X116200000Y-118260000D03*
D28*
X114930000Y-118260000D03*
%TD*%
D12*
%TO.C,C407*%
X167000000Y-129800000D03*
D13*
X167000000Y-134800000D03*
%TD*%
M02*
