M48
; DRILL file {KiCad 5.1.9-73d0e3b20d~88~ubuntu18.04.1} date Mon Jan 11 11:23:43 2021
; FORMAT={-:-/ absolute / inch / decimal}
; #@! TF.CreationDate,2021-01-11T11:23:43+01:00
; #@! TF.GenerationSoftware,Kicad,Pcbnew,5.1.9-73d0e3b20d~88~ubuntu18.04.1
; #@! TF.FileFunction,Plated,1,2,PTH
FMAT,2
INCH
T1C0.0394
T2C0.0709
%
G90
G05
T1
X4.5866Y-2.9724
X4.5866Y-3.3268
X4.6866Y-2.9724
X4.6866Y-3.3268
X4.7866Y-2.9724
X4.7866Y-3.3268
X4.8386Y-2.5307
X4.8386Y-2.6307
X4.8386Y-2.7307
X4.8386Y-2.8307
X4.8386Y-3.4685
X4.8386Y-3.5685
X4.8386Y-3.6685
X4.8386Y-3.7685
X4.8866Y-2.9724
X4.8866Y-3.3268
X5.2913Y-2.8543
X5.3913Y-2.8543
X5.4913Y-2.8543
X5.4921Y-3.4449
X5.5913Y-2.8543
X5.5921Y-3.4449
T2
G00X4.5079Y-3.1201
M15
G01X4.5079Y-3.1791
M16
G05
G00X4.6654Y-2.7657
M15
G01X4.6654Y-2.8248
M16
G05
G00X4.6654Y-3.4744
M15
G01X4.6654Y-3.5335
M16
G05
G00X4.8228Y-3.1201
M15
G01X4.8228Y-3.1791
M16
G05
G00X4.9803Y-2.7657
M15
G01X4.9803Y-2.8248
M16
G05
G00X4.9803Y-3.4744
M15
G01X4.9803Y-3.5335
M16
G05
G00X4.9803Y-3.7106
M15
G01X4.9803Y-3.7697
M16
G05
G00X5.1181Y-2.5295
M15
G01X5.1181Y-2.5886
M16
G05
G00X5.1575Y-3.7106
M15
G01X5.1575Y-3.7697
M16
G05
G00X5.315Y-3.4744
M15
G01X5.315Y-3.5335
M16
G05
G00X5.4921Y-2.6476
M15
G01X5.4921Y-2.7067
M16
G05
G00X5.4921Y-3.5925
M15
G01X5.4921Y-3.6516
M16
G05
T0
M30
