%TF.GenerationSoftware,KiCad,Pcbnew,5.1.9-73d0e3b20d~88~ubuntu18.04.1*%
%TF.CreationDate,2021-01-11T11:23:41+01:00*%
%TF.ProjectId,saba-fernbedienung-anschlussstecker,73616261-2d66-4657-926e-62656469656e,1*%
%TF.SameCoordinates,Original*%
%TF.FileFunction,Copper,L1,Top*%
%TF.FilePolarity,Positive*%
%FSLAX46Y46*%
G04 Gerber Fmt 4.6, Leading zero omitted, Abs format (unit mm)*
G04 Created by KiCad (PCBNEW 5.1.9-73d0e3b20d~88~ubuntu18.04.1) date 2021-01-11 11:23:41*
%MOMM*%
%LPD*%
G01*
G04 APERTURE LIST*
%TA.AperFunction,ComponentPad*%
%ADD10O,1.700000X1.700000*%
%TD*%
%TA.AperFunction,ComponentPad*%
%ADD11R,1.700000X1.700000*%
%TD*%
%TA.AperFunction,Conductor*%
%ADD12C,1.500000*%
%TD*%
%TA.AperFunction,Conductor*%
%ADD13C,0.750000*%
%TD*%
%TA.AperFunction,Conductor*%
%ADD14C,1.000000*%
%TD*%
G04 APERTURE END LIST*
%TO.P,X101,1*%
%TO.N,Net-(J103-Pad2)*%
%TA.AperFunction,ComponentPad*%
G36*
G01*
X112750000Y-81625000D02*
X112750000Y-78375000D01*
G75*
G02*
X113625000Y-77500000I875000J0D01*
G01*
X115375000Y-77500000D01*
G75*
G02*
X116250000Y-78375000I0J-875000D01*
G01*
X116250000Y-81625000D01*
G75*
G02*
X115375000Y-82500000I-875000J0D01*
G01*
X113625000Y-82500000D01*
G75*
G02*
X112750000Y-81625000I0J875000D01*
G01*
G37*
%TD.AperFunction*%
%TO.P,X101,2*%
%TO.N,Net-(J101-Pad1)*%
%TA.AperFunction,ComponentPad*%
G36*
G01*
X116750000Y-72625000D02*
X116750000Y-69375000D01*
G75*
G02*
X117625000Y-68500000I875000J0D01*
G01*
X119375000Y-68500000D01*
G75*
G02*
X120250000Y-69375000I0J-875000D01*
G01*
X120250000Y-72625000D01*
G75*
G02*
X119375000Y-73500000I-875000J0D01*
G01*
X117625000Y-73500000D01*
G75*
G02*
X116750000Y-72625000I0J875000D01*
G01*
G37*
%TD.AperFunction*%
%TO.P,X101,5*%
%TO.N,Net-(J103-Pad1)*%
%TA.AperFunction,ComponentPad*%
G36*
G01*
X116750000Y-90625000D02*
X116750000Y-87375000D01*
G75*
G02*
X117625000Y-86500000I875000J0D01*
G01*
X119375000Y-86500000D01*
G75*
G02*
X120250000Y-87375000I0J-875000D01*
G01*
X120250000Y-90625000D01*
G75*
G02*
X119375000Y-91500000I-875000J0D01*
G01*
X117625000Y-91500000D01*
G75*
G02*
X116750000Y-90625000I0J875000D01*
G01*
G37*
%TD.AperFunction*%
%TO.P,X101,8*%
%TO.N,Net-(J102-Pad3)*%
%TA.AperFunction,ComponentPad*%
G36*
G01*
X120750000Y-81625000D02*
X120750000Y-78375000D01*
G75*
G02*
X121625000Y-77500000I875000J0D01*
G01*
X123375000Y-77500000D01*
G75*
G02*
X124250000Y-78375000I0J-875000D01*
G01*
X124250000Y-81625000D01*
G75*
G02*
X123375000Y-82500000I-875000J0D01*
G01*
X121625000Y-82500000D01*
G75*
G02*
X120750000Y-81625000I0J875000D01*
G01*
G37*
%TD.AperFunction*%
%TO.P,X101,12*%
%TO.N,Net-(J101-Pad4)*%
%TA.AperFunction,ComponentPad*%
G36*
G01*
X124750000Y-72625000D02*
X124750000Y-69375000D01*
G75*
G02*
X125625000Y-68500000I875000J0D01*
G01*
X127375000Y-68500000D01*
G75*
G02*
X128250000Y-69375000I0J-875000D01*
G01*
X128250000Y-72625000D01*
G75*
G02*
X127375000Y-73500000I-875000J0D01*
G01*
X125625000Y-73500000D01*
G75*
G02*
X124750000Y-72625000I0J875000D01*
G01*
G37*
%TD.AperFunction*%
%TO.P,X101,13*%
%TO.N,Net-(J101-Pad2)*%
%TA.AperFunction,ComponentPad*%
G36*
G01*
X124750000Y-90625000D02*
X124750000Y-87375000D01*
G75*
G02*
X125625000Y-86500000I875000J0D01*
G01*
X127375000Y-86500000D01*
G75*
G02*
X128250000Y-87375000I0J-875000D01*
G01*
X128250000Y-90625000D01*
G75*
G02*
X127375000Y-91500000I-875000J0D01*
G01*
X125625000Y-91500000D01*
G75*
G02*
X124750000Y-90625000I0J875000D01*
G01*
G37*
%TD.AperFunction*%
%TO.P,X101,14*%
%TO.N,Net-(J103-Pad3)*%
%TA.AperFunction,ComponentPad*%
G36*
G01*
X124750000Y-96625000D02*
X124750000Y-93375000D01*
G75*
G02*
X125625000Y-92500000I875000J0D01*
G01*
X127375000Y-92500000D01*
G75*
G02*
X128250000Y-93375000I0J-875000D01*
G01*
X128250000Y-96625000D01*
G75*
G02*
X127375000Y-97500000I-875000J0D01*
G01*
X125625000Y-97500000D01*
G75*
G02*
X124750000Y-96625000I0J875000D01*
G01*
G37*
%TD.AperFunction*%
%TO.P,X101,15*%
%TO.N,Net-(J102-Pad1)*%
%TA.AperFunction,ComponentPad*%
G36*
G01*
X128250000Y-66625000D02*
X128250000Y-63375000D01*
G75*
G02*
X129125000Y-62500000I875000J0D01*
G01*
X130875000Y-62500000D01*
G75*
G02*
X131750000Y-63375000I0J-875000D01*
G01*
X131750000Y-66625000D01*
G75*
G02*
X130875000Y-67500000I-875000J0D01*
G01*
X129125000Y-67500000D01*
G75*
G02*
X128250000Y-66625000I0J875000D01*
G01*
G37*
%TD.AperFunction*%
%TO.P,X101,18*%
%TO.N,Net-(J103-Pad4)*%
%TA.AperFunction,ComponentPad*%
G36*
G01*
X129250000Y-96625000D02*
X129250000Y-93375000D01*
G75*
G02*
X130125000Y-92500000I875000J0D01*
G01*
X131875000Y-92500000D01*
G75*
G02*
X132750000Y-93375000I0J-875000D01*
G01*
X132750000Y-96625000D01*
G75*
G02*
X131875000Y-97500000I-875000J0D01*
G01*
X130125000Y-97500000D01*
G75*
G02*
X129250000Y-96625000I0J875000D01*
G01*
G37*
%TD.AperFunction*%
%TO.P,X101,23*%
%TO.N,Net-(J105-Pad3)*%
%TA.AperFunction,ComponentPad*%
G36*
G01*
X137750000Y-69625000D02*
X137750000Y-66375000D01*
G75*
G02*
X138625000Y-65500000I875000J0D01*
G01*
X140375000Y-65500000D01*
G75*
G02*
X141250000Y-66375000I0J-875000D01*
G01*
X141250000Y-69625000D01*
G75*
G02*
X140375000Y-70500000I-875000J0D01*
G01*
X138625000Y-70500000D01*
G75*
G02*
X137750000Y-69625000I0J875000D01*
G01*
G37*
%TD.AperFunction*%
%TO.P,X101,21*%
%TO.N,Net-(J105-Pad1)*%
%TA.AperFunction,ComponentPad*%
G36*
G01*
X133250000Y-90625000D02*
X133250000Y-87375000D01*
G75*
G02*
X134125000Y-86500000I875000J0D01*
G01*
X135875000Y-86500000D01*
G75*
G02*
X136750000Y-87375000I0J-875000D01*
G01*
X136750000Y-90625000D01*
G75*
G02*
X135875000Y-91500000I-875000J0D01*
G01*
X134125000Y-91500000D01*
G75*
G02*
X133250000Y-90625000I0J875000D01*
G01*
G37*
%TD.AperFunction*%
%TO.P,X101,24*%
%TO.N,Net-(J104-Pad1)*%
%TA.AperFunction,ComponentPad*%
G36*
G01*
X137750000Y-93625000D02*
X137750000Y-90375000D01*
G75*
G02*
X138625000Y-89500000I875000J0D01*
G01*
X140375000Y-89500000D01*
G75*
G02*
X141250000Y-90375000I0J-875000D01*
G01*
X141250000Y-93625000D01*
G75*
G02*
X140375000Y-94500000I-875000J0D01*
G01*
X138625000Y-94500000D01*
G75*
G02*
X137750000Y-93625000I0J875000D01*
G01*
G37*
%TD.AperFunction*%
%TD*%
D10*
%TO.P,J104,2*%
%TO.N,Net-(J104-Pad1)*%
X142040000Y-87500000D03*
D11*
%TO.P,J104,1*%
X139500000Y-87500000D03*
%TD*%
D10*
%TO.P,J106,4*%
%TO.N,N/C*%
X122900000Y-95720000D03*
%TO.P,J106,3*%
X122900000Y-93180000D03*
%TO.P,J106,2*%
X122900000Y-90640000D03*
D11*
%TO.P,J106,1*%
X122900000Y-88100000D03*
%TD*%
D10*
%TO.P,J105,4*%
%TO.N,Net-(J105-Pad3)*%
X142020000Y-72500000D03*
%TO.P,J105,3*%
X139480000Y-72500000D03*
%TO.P,J105,2*%
%TO.N,Net-(J105-Pad1)*%
X136940000Y-72500000D03*
D11*
%TO.P,J105,1*%
X134400000Y-72500000D03*
%TD*%
D10*
%TO.P,J103,4*%
%TO.N,Net-(J103-Pad4)*%
X124120000Y-84500000D03*
%TO.P,J103,3*%
%TO.N,Net-(J103-Pad3)*%
X121580000Y-84500000D03*
%TO.P,J103,2*%
%TO.N,Net-(J103-Pad2)*%
X119040000Y-84500000D03*
D11*
%TO.P,J103,1*%
%TO.N,Net-(J103-Pad1)*%
X116500000Y-84500000D03*
%TD*%
D10*
%TO.P,J102,4*%
%TO.N,Net-(J102-Pad3)*%
X122900000Y-71900000D03*
%TO.P,J102,3*%
X122900000Y-69360000D03*
%TO.P,J102,2*%
%TO.N,Net-(J102-Pad1)*%
X122900000Y-66820000D03*
D11*
%TO.P,J102,1*%
X122900000Y-64280000D03*
%TD*%
%TO.P,J101,1*%
%TO.N,Net-(J101-Pad1)*%
X116500000Y-75500000D03*
D10*
%TO.P,J101,2*%
%TO.N,Net-(J101-Pad2)*%
X119040000Y-75500000D03*
%TO.P,J101,3*%
X121580000Y-75500000D03*
%TO.P,J101,4*%
%TO.N,Net-(J101-Pad4)*%
X124120000Y-75500000D03*
%TD*%
D12*
%TO.N,Net-(J101-Pad4)*%
X124120000Y-75500000D02*
X126000000Y-75500000D01*
X126500000Y-75000000D02*
X126500000Y-71000000D01*
X126000000Y-75500000D02*
X126500000Y-75000000D01*
%TO.N,Net-(J101-Pad2)*%
X121580000Y-75500000D02*
X119100000Y-75500000D01*
D13*
X123435999Y-76925001D02*
X124225001Y-76925001D01*
X122010998Y-75500000D02*
X123435999Y-76925001D01*
X121580000Y-75500000D02*
X122010998Y-75500000D01*
X124225001Y-76925001D02*
X125200000Y-77900000D01*
D12*
X125200000Y-81046002D02*
X126500000Y-82346002D01*
X125200000Y-77900000D02*
X125200000Y-81046002D01*
X126500000Y-82346002D02*
X126500000Y-89200000D01*
%TO.N,Net-(J101-Pad1)*%
X116500000Y-75500000D02*
X116500000Y-73800000D01*
X116500000Y-73800000D02*
X118500000Y-71800000D01*
%TO.N,Net-(J102-Pad1)*%
X123600000Y-65000000D02*
X122900000Y-64300000D01*
X124720000Y-65000000D02*
X125500000Y-65000000D01*
X122900000Y-66820000D02*
X124720000Y-65000000D01*
X130000000Y-65000000D02*
X125500000Y-65000000D01*
X125500000Y-65000000D02*
X123600000Y-65000000D01*
D14*
%TO.N,Net-(J103-Pad3)*%
X121200000Y-96314002D02*
X121846557Y-96960559D01*
X126500000Y-95800000D02*
X126500000Y-95000000D01*
X124900000Y-97400000D02*
X126500000Y-95800000D01*
X122832072Y-97400000D02*
X124900000Y-97400000D01*
X122006273Y-97036899D02*
X122251300Y-97149731D01*
X121846557Y-96960559D02*
X122006273Y-97036899D01*
X122251300Y-97149731D02*
X122497823Y-97258996D01*
X122497823Y-97258996D02*
X122745944Y-97364743D01*
X122745944Y-97364743D02*
X122832072Y-97400000D01*
X121580000Y-86620000D02*
X121200000Y-87000000D01*
X121580000Y-84500000D02*
X121580000Y-86620000D01*
X121200000Y-87000000D02*
X121200000Y-96314002D01*
X121846557Y-96960559D02*
X122006273Y-97036899D01*
X121580000Y-84500000D02*
X121580000Y-86620000D01*
X122497823Y-97258996D02*
X122745944Y-97364743D01*
X122832072Y-97400000D02*
X124900000Y-97400000D01*
X124900000Y-97400000D02*
X126500000Y-95800000D01*
X121200000Y-87000000D02*
X121200000Y-96314002D01*
X121580000Y-86620000D02*
X121200000Y-87000000D01*
X126500000Y-95800000D02*
X126500000Y-95000000D01*
X122251300Y-97149731D02*
X122497823Y-97258996D01*
X122745944Y-97364743D02*
X122832072Y-97400000D01*
X121200000Y-96314002D02*
X121846557Y-96960559D01*
X122006273Y-97036899D02*
X122251300Y-97149731D01*
D12*
%TO.N,Net-(J103-Pad2)*%
X114500000Y-80000000D02*
X117200000Y-80000000D01*
X117200000Y-80000000D02*
X119000000Y-81800000D01*
X119000000Y-81800000D02*
X119000000Y-84500000D01*
%TO.N,Net-(J103-Pad1)*%
X116500000Y-84500000D02*
X116500000Y-86200000D01*
X116500000Y-86200000D02*
X118500000Y-88200000D01*
X118500000Y-88200000D02*
X118500000Y-89000000D01*
%TO.N,Net-(J104-Pad1)*%
X139500000Y-92000000D02*
X139500000Y-87500000D01*
X139500000Y-87500000D02*
X142000000Y-87500000D01*
%TO.N,Net-(J105-Pad3)*%
X139500000Y-68000000D02*
X139500000Y-72500000D01*
X139500000Y-72500000D02*
X142000000Y-72500000D01*
%TO.N,Net-(J105-Pad1)*%
X135000000Y-89000000D02*
X135000000Y-84100000D01*
X135000000Y-84100000D02*
X134200000Y-83300000D01*
X134200000Y-83300000D02*
X134200000Y-72600000D01*
X134400000Y-72500000D02*
X137000000Y-72500000D01*
%TD*%
M02*
