%TF.GenerationSoftware,KiCad,Pcbnew,5.1.9-73d0e3b20d~88~ubuntu18.04.1*%
%TF.CreationDate,2021-01-16T14:46:19+01:00*%
%TF.ProjectId,saba-fernbedienung,73616261-2d66-4657-926e-62656469656e,rev?*%
%TF.SameCoordinates,Original*%
%TF.FileFunction,Copper,L4,Bot*%
%TF.FilePolarity,Positive*%
%FSLAX46Y46*%
G04 Gerber Fmt 4.6, Leading zero omitted, Abs format (unit mm)*
G04 Created by KiCad (PCBNEW 5.1.9-73d0e3b20d~88~ubuntu18.04.1) date 2021-01-16 14:46:19*
%MOMM*%
%LPD*%
G01*
G04 APERTURE LIST*
%TA.AperFunction,NonConductor*%
%ADD10C,0.150000*%
%TD*%
%TA.AperFunction,ComponentPad*%
%ADD11C,2.000000*%
%TD*%
%TA.AperFunction,ComponentPad*%
%ADD12R,2.000000X2.000000*%
%TD*%
%TA.AperFunction,ComponentPad*%
%ADD13O,1.700000X1.700000*%
%TD*%
%TA.AperFunction,ComponentPad*%
%ADD14R,1.700000X1.700000*%
%TD*%
%TA.AperFunction,ComponentPad*%
%ADD15C,1.700000*%
%TD*%
%TA.AperFunction,ComponentPad*%
%ADD16O,1.000000X2.100000*%
%TD*%
%TA.AperFunction,ComponentPad*%
%ADD17O,1.000000X1.600000*%
%TD*%
%TA.AperFunction,ComponentPad*%
%ADD18O,1.500000X3.000000*%
%TD*%
%TA.AperFunction,ComponentPad*%
%ADD19R,1.500000X3.000000*%
%TD*%
%TA.AperFunction,ComponentPad*%
%ADD20C,1.400000*%
%TD*%
%TA.AperFunction,ComponentPad*%
%ADD21C,1.600000*%
%TD*%
%TA.AperFunction,ComponentPad*%
%ADD22O,1.600000X1.600000*%
%TD*%
%TA.AperFunction,ComponentPad*%
%ADD23C,1.500000*%
%TD*%
%TA.AperFunction,ComponentPad*%
%ADD24O,1.000000X1.000000*%
%TD*%
%TA.AperFunction,ComponentPad*%
%ADD25R,1.000000X1.000000*%
%TD*%
%TA.AperFunction,ViaPad*%
%ADD26C,0.800000*%
%TD*%
%TA.AperFunction,Conductor*%
%ADD27C,1.500000*%
%TD*%
%TA.AperFunction,Conductor*%
%ADD28C,1.000000*%
%TD*%
%TA.AperFunction,Conductor*%
%ADD29C,0.500000*%
%TD*%
%TA.AperFunction,Conductor*%
%ADD30C,0.250000*%
%TD*%
G04 APERTURE END LIST*
D10*
X107985714Y-137078571D02*
X107985714Y-138078571D01*
X107628571Y-136507142D02*
X107271428Y-137578571D01*
X108200000Y-137578571D01*
D11*
%TO.P,C407,2*%
%TO.N,GND*%
X155800000Y-77600000D03*
D12*
%TO.P,C407,1*%
%TO.N,+5V*%
X150800000Y-77600000D03*
%TD*%
D13*
%TO.P,U201,30*%
%TO.N,+5V*%
X137490000Y-114500000D03*
%TO.P,U201,29*%
%TO.N,GND*%
X134950000Y-114500000D03*
%TO.P,U201,28*%
%TO.N,SABA_Suchlauf_R*%
X132410000Y-114500000D03*
%TO.P,U201,27*%
%TO.N,SABA_Schnelllauf*%
X129870000Y-114500000D03*
%TO.P,U201,26*%
%TO.N,SABA_Suchlauf_L*%
X127330000Y-114500000D03*
%TO.P,U201,25*%
%TO.N,SABA_Laufrichtung*%
X124790000Y-114500000D03*
%TO.P,U201,24*%
%TO.N,SABA_Netz*%
X122250000Y-114500000D03*
%TO.P,U201,23*%
%TO.N,SPI_CS_LCD*%
X119710000Y-114500000D03*
%TO.P,U201,22*%
%TO.N,SABA_Suchlauf_Langsam*%
X117170000Y-114500000D03*
%TO.P,U201,21*%
%TO.N,SPI_DCS_VS1053*%
X114630000Y-114500000D03*
%TO.P,U201,20*%
%TO.N,IR_RX*%
X112090000Y-114500000D03*
%TO.P,U201,19*%
%TO.N,SABA_Suchlauf_Schnell*%
X109550000Y-114500000D03*
%TO.P,U201,18*%
%TO.N,Net-(R204-Pad2)*%
X107010000Y-114500000D03*
%TO.P,U201,17*%
%TO.N,SABA_HS*%
X104470000Y-114500000D03*
%TO.P,U201,16*%
%TO.N,~RESET*%
X101930000Y-114500000D03*
%TO.P,U201,15*%
%TO.N,LCD_A0*%
X101930000Y-89100000D03*
%TO.P,U201,14*%
%TO.N,SPI_CS_SDCARD*%
X104470000Y-89100000D03*
%TO.P,U201,13*%
%TO.N,N/C*%
X107010000Y-89100000D03*
%TO.P,U201,12*%
X109550000Y-89100000D03*
%TO.P,U201,11*%
%TO.N,SPI_MOSI*%
X112090000Y-89100000D03*
%TO.P,U201,10*%
%TO.N,SPI_MISO*%
X114630000Y-89100000D03*
%TO.P,U201,9*%
%TO.N,SPI_SCK*%
X117170000Y-89100000D03*
%TO.P,U201,8*%
%TO.N,SPI_CS_VS1053*%
X119710000Y-89100000D03*
%TO.P,U201,7*%
%TO.N,Net-(R203-Pad2)*%
X122250000Y-89100000D03*
%TO.P,U201,6*%
%TO.N,SABA_Mute*%
X124790000Y-89100000D03*
%TO.P,U201,5*%
%TO.N,VS1053_DREQ*%
X127330000Y-89100000D03*
%TO.P,U201,4*%
%TO.N,SABA_Laut*%
X129870000Y-89100000D03*
%TO.P,U201,3*%
%TO.N,SABA_Leise*%
X132410000Y-89100000D03*
%TO.P,U201,2*%
%TO.N,GND*%
X134950000Y-89150800D03*
%TO.P,U201,1*%
%TO.N,+3V3*%
X137488000Y-89100800D03*
%TD*%
D14*
%TO.P,J312,1*%
%TO.N,SPI_CS_LCD*%
X111180000Y-118960000D03*
D13*
%TO.P,J312,2*%
%TO.N,SPI_SCK*%
X111180000Y-121500000D03*
%TO.P,J312,3*%
%TO.N,SPI_MOSI*%
X108640000Y-118960000D03*
%TO.P,J312,4*%
%TO.N,~RESET*%
X108640000Y-121500000D03*
%TO.P,J312,5*%
%TO.N,LCD_BL*%
X106100000Y-118960000D03*
%TO.P,J312,6*%
%TO.N,+5V*%
X106100000Y-121500000D03*
%TO.P,J312,7*%
%TO.N,GND*%
X103560000Y-118960000D03*
%TO.P,J312,8*%
%TO.N,LCD_A0*%
X103560000Y-121500000D03*
%TD*%
D12*
%TO.P,C418,1*%
%TO.N,SABA_GND_AC*%
X178100000Y-129800000D03*
D11*
%TO.P,C418,2*%
%TO.N,-24V*%
X178100000Y-134800000D03*
%TD*%
D14*
%TO.P,K606,1*%
%TO.N,+5V*%
X151880000Y-114800000D03*
D15*
%TO.P,K606,2*%
%TO.N,SABA_Suchlauf*%
X154420000Y-114800000D03*
%TO.P,K606,3*%
%TO.N,/Fernbedienung/Suchlauf*%
X156960000Y-114800000D03*
%TO.P,K606,4*%
%TO.N,N/C*%
X159500000Y-114800000D03*
%TO.P,K606,5*%
%TO.N,SABA_Suchlauf*%
X159500000Y-109720000D03*
%TO.P,K606,6*%
%TO.N,SABA_GND_AC*%
X156960000Y-109720000D03*
%TO.P,K606,7*%
%TO.N,N/C*%
X154420000Y-109720000D03*
%TO.P,K606,8*%
%TO.N,/Fernbedienung/Relais_Mute*%
X151880000Y-109720000D03*
%TD*%
D14*
%TO.P,K605,1*%
%TO.N,+5V*%
X151880000Y-136680000D03*
D15*
%TO.P,K605,2*%
%TO.N,N/C*%
X154420000Y-136680000D03*
%TO.P,K605,3*%
%TO.N,Net-(K605-Pad3)*%
X156960000Y-136680000D03*
%TO.P,K605,4*%
%TO.N,Net-(K604-Pad5)*%
X159500000Y-136680000D03*
%TO.P,K605,5*%
%TO.N,/Fernbedienung/Suchlauf*%
X159500000Y-131600000D03*
%TO.P,K605,6*%
%TO.N,Net-(K605-Pad6)*%
X156960000Y-131600000D03*
%TO.P,K605,7*%
%TO.N,N/C*%
X154420000Y-131600000D03*
%TO.P,K605,8*%
%TO.N,/Fernbedienung/Relais_Suchlauf_L*%
X151880000Y-131600000D03*
%TD*%
D14*
%TO.P,K604,1*%
%TO.N,+5V*%
X151880000Y-129380000D03*
D15*
%TO.P,K604,2*%
%TO.N,N/C*%
X154420000Y-129380000D03*
%TO.P,K604,3*%
%TO.N,/Fernbedienung/Suchlauf*%
X156960000Y-129380000D03*
%TO.P,K604,4*%
%TO.N,Net-(K602-Pad4)*%
X159500000Y-129380000D03*
%TO.P,K604,5*%
%TO.N,Net-(K604-Pad5)*%
X159500000Y-124300000D03*
%TO.P,K604,6*%
%TO.N,/Fernbedienung/Suchlauf*%
X156960000Y-124300000D03*
%TO.P,K604,7*%
%TO.N,N/C*%
X154420000Y-124300000D03*
%TO.P,K604,8*%
%TO.N,/Fernbedienung/Relais_Schnelllauf*%
X151880000Y-124300000D03*
%TD*%
D14*
%TO.P,K603,1*%
%TO.N,+5V*%
X151880000Y-85800000D03*
D15*
%TO.P,K603,2*%
%TO.N,/Fernbedienung/Relais_Laut*%
X154420000Y-85800000D03*
%TO.P,K603,3*%
%TO.N,Net-(D602-Pad2)*%
X156960000Y-85800000D03*
%TO.P,K603,4*%
%TO.N,N/C*%
X159500000Y-85800000D03*
%TO.P,K603,5*%
%TO.N,SABA_~15V_AC*%
X159500000Y-80720000D03*
%TO.P,K603,6*%
%TO.N,SABA_Lautstaerke*%
X156960000Y-80720000D03*
%TO.P,K603,7*%
%TO.N,N/C*%
X154420000Y-80720000D03*
%TO.P,K603,8*%
%TO.N,Net-(D604-Pad2)*%
X151880000Y-80720000D03*
%TD*%
D14*
%TO.P,K602,1*%
%TO.N,+5V*%
X151880000Y-122080000D03*
D15*
%TO.P,K602,2*%
%TO.N,N/C*%
X154420000Y-122080000D03*
%TO.P,K602,3*%
%TO.N,Net-(K602-Pad3)*%
X156960000Y-122080000D03*
%TO.P,K602,4*%
%TO.N,Net-(K602-Pad4)*%
X159500000Y-122080000D03*
%TO.P,K602,5*%
%TO.N,/Fernbedienung/Suchlauf*%
X159500000Y-117000000D03*
%TO.P,K602,6*%
%TO.N,Net-(K602-Pad6)*%
X156960000Y-117000000D03*
%TO.P,K602,7*%
%TO.N,N/C*%
X154420000Y-117000000D03*
%TO.P,K602,8*%
%TO.N,/Fernbedienung/Relais_Suchlauf_R*%
X151880000Y-117000000D03*
%TD*%
D14*
%TO.P,K601,1*%
%TO.N,+5V*%
X151880000Y-93300000D03*
D15*
%TO.P,K601,2*%
%TO.N,/Fernbedienung/Relais_Leise*%
X154420000Y-93300000D03*
%TO.P,K601,3*%
%TO.N,Net-(D604-Pad2)*%
X156960000Y-93300000D03*
%TO.P,K601,4*%
%TO.N,N/C*%
X159500000Y-93300000D03*
%TO.P,K601,5*%
%TO.N,SABA_15V_AC*%
X159500000Y-88220000D03*
%TO.P,K601,6*%
%TO.N,SABA_Lautstaerke*%
X156960000Y-88220000D03*
%TO.P,K601,7*%
%TO.N,N/C*%
X154420000Y-88220000D03*
%TO.P,K601,8*%
%TO.N,Net-(D602-Pad2)*%
X151880000Y-88220000D03*
%TD*%
D14*
%TO.P,J306,1*%
%TO.N,SABA_N2*%
X179500000Y-109000000D03*
D13*
%TO.P,J306,2*%
X182040000Y-109000000D03*
%TD*%
D16*
%TO.P,J313,S1*%
%TO.N,Net-(J313-PadS1)*%
X148960000Y-65630000D03*
X157600000Y-65630000D03*
D17*
X157600000Y-61450000D03*
X148960000Y-61450000D03*
%TD*%
D18*
%TO.P,U401,8*%
%TO.N,N/C*%
X164220000Y-71000000D03*
%TO.P,U401,7*%
%TO.N,GND*%
X166760000Y-71000000D03*
%TO.P,U401,3*%
%TO.N,N/C*%
X176920000Y-71000000D03*
%TO.P,U401,6*%
%TO.N,+5V*%
X169300000Y-71000000D03*
%TO.P,U401,5*%
%TO.N,N/C*%
X171840000Y-71000000D03*
%TO.P,U401,2*%
%TO.N,Net-(C401-Pad1)*%
X179460000Y-71000000D03*
D19*
%TO.P,U401,1*%
%TO.N,Net-(C402-Pad2)*%
X182000000Y-71000000D03*
%TD*%
%TO.P,U301,1*%
%TO.N,GND*%
%TA.AperFunction,ComponentPad*%
G36*
G01*
X102049200Y-125860000D02*
X102950800Y-125860000D01*
G75*
G02*
X103200000Y-126109200I0J-249200D01*
G01*
X103200000Y-127010800D01*
G75*
G02*
X102950800Y-127260000I-249200J0D01*
G01*
X102049200Y-127260000D01*
G75*
G02*
X101800000Y-127010800I0J249200D01*
G01*
X101800000Y-126109200D01*
G75*
G02*
X102049200Y-125860000I249200J0D01*
G01*
G37*
%TD.AperFunction*%
D20*
%TO.P,U301,2*%
%TO.N,Net-(C304-Pad1)*%
X102500000Y-129100000D03*
%TO.P,U301,3*%
%TO.N,IR_RX*%
X102500000Y-134180000D03*
%TD*%
D21*
%TO.P,R618,1*%
%TO.N,SABA_HS2*%
X152900000Y-104500000D03*
D22*
%TO.P,R618,2*%
%TO.N,Net-(D609-Pad1)*%
X145280000Y-104500000D03*
%TD*%
%TO.P,R617,2*%
%TO.N,SABA_~15V_AC*%
X164250000Y-101000000D03*
D21*
%TO.P,R617,1*%
%TO.N,Net-(K605-Pad3)*%
X156630000Y-101000000D03*
%TD*%
D22*
%TO.P,R603,2*%
%TO.N,SABA_15V_AC*%
X152870000Y-97000000D03*
D21*
%TO.P,R603,1*%
%TO.N,Net-(K602-Pad3)*%
X145250000Y-97000000D03*
%TD*%
%TO.P,R208,2*%
%TO.N,SABA_Suchlauf_R*%
%TA.AperFunction,SMDPad,CuDef*%
G36*
G01*
X132675000Y-117475000D02*
X132125000Y-117475000D01*
G75*
G02*
X131925000Y-117275000I0J200000D01*
G01*
X131925000Y-116875000D01*
G75*
G02*
X132125000Y-116675000I200000J0D01*
G01*
X132675000Y-116675000D01*
G75*
G02*
X132875000Y-116875000I0J-200000D01*
G01*
X132875000Y-117275000D01*
G75*
G02*
X132675000Y-117475000I-200000J0D01*
G01*
G37*
%TD.AperFunction*%
%TO.P,R208,1*%
%TO.N,Net-(J201-Pad4)*%
%TA.AperFunction,SMDPad,CuDef*%
G36*
G01*
X132675000Y-119125000D02*
X132125000Y-119125000D01*
G75*
G02*
X131925000Y-118925000I0J200000D01*
G01*
X131925000Y-118525000D01*
G75*
G02*
X132125000Y-118325000I200000J0D01*
G01*
X132675000Y-118325000D01*
G75*
G02*
X132875000Y-118525000I0J-200000D01*
G01*
X132875000Y-118925000D01*
G75*
G02*
X132675000Y-119125000I-200000J0D01*
G01*
G37*
%TD.AperFunction*%
%TD*%
%TO.P,R207,2*%
%TO.N,SABA_Suchlauf_L*%
%TA.AperFunction,SMDPad,CuDef*%
G36*
G01*
X127675000Y-117475000D02*
X127125000Y-117475000D01*
G75*
G02*
X126925000Y-117275000I0J200000D01*
G01*
X126925000Y-116875000D01*
G75*
G02*
X127125000Y-116675000I200000J0D01*
G01*
X127675000Y-116675000D01*
G75*
G02*
X127875000Y-116875000I0J-200000D01*
G01*
X127875000Y-117275000D01*
G75*
G02*
X127675000Y-117475000I-200000J0D01*
G01*
G37*
%TD.AperFunction*%
%TO.P,R207,1*%
%TO.N,Net-(J201-Pad2)*%
%TA.AperFunction,SMDPad,CuDef*%
G36*
G01*
X127675000Y-119125000D02*
X127125000Y-119125000D01*
G75*
G02*
X126925000Y-118925000I0J200000D01*
G01*
X126925000Y-118525000D01*
G75*
G02*
X127125000Y-118325000I200000J0D01*
G01*
X127675000Y-118325000D01*
G75*
G02*
X127875000Y-118525000I0J-200000D01*
G01*
X127875000Y-118925000D01*
G75*
G02*
X127675000Y-119125000I-200000J0D01*
G01*
G37*
%TD.AperFunction*%
%TD*%
%TO.P,R206,2*%
%TO.N,SABA_Leise*%
%TA.AperFunction,SMDPad,CuDef*%
G36*
G01*
X132675000Y-91500000D02*
X132125000Y-91500000D01*
G75*
G02*
X131925000Y-91300000I0J200000D01*
G01*
X131925000Y-90900000D01*
G75*
G02*
X132125000Y-90700000I200000J0D01*
G01*
X132675000Y-90700000D01*
G75*
G02*
X132875000Y-90900000I0J-200000D01*
G01*
X132875000Y-91300000D01*
G75*
G02*
X132675000Y-91500000I-200000J0D01*
G01*
G37*
%TD.AperFunction*%
%TO.P,R206,1*%
%TO.N,Net-(J201-Pad6)*%
%TA.AperFunction,SMDPad,CuDef*%
G36*
G01*
X132675000Y-93150000D02*
X132125000Y-93150000D01*
G75*
G02*
X131925000Y-92950000I0J200000D01*
G01*
X131925000Y-92550000D01*
G75*
G02*
X132125000Y-92350000I200000J0D01*
G01*
X132675000Y-92350000D01*
G75*
G02*
X132875000Y-92550000I0J-200000D01*
G01*
X132875000Y-92950000D01*
G75*
G02*
X132675000Y-93150000I-200000J0D01*
G01*
G37*
%TD.AperFunction*%
%TD*%
%TO.P,R205,2*%
%TO.N,SABA_Schnelllauf*%
%TA.AperFunction,SMDPad,CuDef*%
G36*
G01*
X130175000Y-117475000D02*
X129625000Y-117475000D01*
G75*
G02*
X129425000Y-117275000I0J200000D01*
G01*
X129425000Y-116875000D01*
G75*
G02*
X129625000Y-116675000I200000J0D01*
G01*
X130175000Y-116675000D01*
G75*
G02*
X130375000Y-116875000I0J-200000D01*
G01*
X130375000Y-117275000D01*
G75*
G02*
X130175000Y-117475000I-200000J0D01*
G01*
G37*
%TD.AperFunction*%
%TO.P,R205,1*%
%TO.N,Net-(J201-Pad8)*%
%TA.AperFunction,SMDPad,CuDef*%
G36*
G01*
X130175000Y-119125000D02*
X129625000Y-119125000D01*
G75*
G02*
X129425000Y-118925000I0J200000D01*
G01*
X129425000Y-118525000D01*
G75*
G02*
X129625000Y-118325000I200000J0D01*
G01*
X130175000Y-118325000D01*
G75*
G02*
X130375000Y-118525000I0J-200000D01*
G01*
X130375000Y-118925000D01*
G75*
G02*
X130175000Y-119125000I-200000J0D01*
G01*
G37*
%TD.AperFunction*%
%TD*%
D23*
%TO.P,K607,12*%
%TO.N,Net-(D607-Pad2)*%
X192580000Y-94800000D03*
%TO.P,K607,10*%
%TO.N,Net-(D607-Pad1)*%
X192580000Y-99880000D03*
%TO.P,K607,9*%
%TO.N,+5V*%
X192580000Y-102420000D03*
%TO.P,K607,8*%
%TO.N,Net-(D608-Pad1)*%
X192580000Y-104960000D03*
%TO.P,K607,7*%
%TO.N,Net-(D607-Pad2)*%
X192580000Y-107500000D03*
%TO.P,K607,6*%
%TO.N,Net-(D608-Pad1)*%
X187500000Y-107500000D03*
%TO.P,K607,5*%
%TO.N,SABA_N2*%
X187500000Y-104960000D03*
%TO.P,K607,4*%
%TO.N,SABA_230V_AC*%
X187500000Y-102420000D03*
%TO.P,K607,3*%
%TO.N,SABA_N1*%
X187500000Y-99880000D03*
%TO.P,K607,1*%
%TO.N,Net-(D607-Pad1)*%
%TA.AperFunction,ComponentPad*%
G36*
G01*
X186750000Y-95299500D02*
X186750000Y-94300500D01*
G75*
G02*
X187000500Y-94050000I250500J0D01*
G01*
X187999500Y-94050000D01*
G75*
G02*
X188250000Y-94300500I0J-250500D01*
G01*
X188250000Y-95299500D01*
G75*
G02*
X187999500Y-95550000I-250500J0D01*
G01*
X187000500Y-95550000D01*
G75*
G02*
X186750000Y-95299500I0J250500D01*
G01*
G37*
%TD.AperFunction*%
%TD*%
D13*
%TO.P,J311,4*%
%TO.N,N/C*%
X162900000Y-117220000D03*
%TO.P,J311,3*%
X162900000Y-114680000D03*
%TO.P,J311,2*%
X162900000Y-112140000D03*
D14*
%TO.P,J311,1*%
X162900000Y-109600000D03*
%TD*%
%TO.P,J310,1*%
%TO.N,Net-(D301-Pad2)*%
X145000000Y-69750000D03*
%TD*%
%TO.P,J309,1*%
%TO.N,Net-(D301-Pad1)*%
X137750000Y-67250000D03*
%TD*%
%TO.P,J308,1*%
%TO.N,GND*%
X137750000Y-70750000D03*
%TD*%
%TO.P,J307,1*%
%TO.N,SABA_N1*%
X174400000Y-94000000D03*
D13*
%TO.P,J307,2*%
X176940000Y-94000000D03*
%TO.P,J307,3*%
%TO.N,SABA_230V_AC*%
X179480000Y-94000000D03*
%TO.P,J307,4*%
X182020000Y-94000000D03*
%TD*%
D14*
%TO.P,J304,1*%
%TO.N,SABA_Lautstaerke*%
X156500000Y-106000000D03*
D13*
%TO.P,J304,2*%
%TO.N,SABA_Suchlauf*%
X159040000Y-106000000D03*
%TO.P,J304,3*%
%TO.N,SABA_HS2*%
X161580000Y-106000000D03*
%TO.P,J304,4*%
%TO.N,SABA_HS3*%
X164120000Y-106000000D03*
%TD*%
D14*
%TO.P,J302,1*%
%TO.N,SABA_6\u002C3V_AC*%
X162900000Y-85800000D03*
D13*
%TO.P,J302,2*%
X162900000Y-88340000D03*
%TO.P,J302,3*%
%TO.N,Earth*%
X162900000Y-90880000D03*
%TO.P,J302,4*%
X162900000Y-93420000D03*
%TD*%
D14*
%TO.P,J301,1*%
%TO.N,SABA_15V_AC*%
X156500000Y-97000000D03*
D13*
%TO.P,J301,2*%
%TO.N,SABA_GND_AC*%
X159040000Y-97000000D03*
%TO.P,J301,3*%
X161580000Y-97000000D03*
%TO.P,J301,4*%
%TO.N,SABA_~15V_AC*%
X164120000Y-97000000D03*
%TD*%
D24*
%TO.P,J201,10*%
%TO.N,~RESET*%
X117070000Y-130880000D03*
%TO.P,J201,9*%
%TO.N,GND*%
X115800000Y-130880000D03*
%TO.P,J201,8*%
%TO.N,Net-(J201-Pad8)*%
X117070000Y-129610000D03*
%TO.P,J201,7*%
%TO.N,N/C*%
X115800000Y-129610000D03*
%TO.P,J201,6*%
%TO.N,Net-(J201-Pad6)*%
X117070000Y-128340000D03*
%TO.P,J201,5*%
%TO.N,GND*%
X115800000Y-128340000D03*
%TO.P,J201,4*%
%TO.N,Net-(J201-Pad4)*%
X117070000Y-127070000D03*
%TO.P,J201,3*%
%TO.N,GND*%
X115800000Y-127070000D03*
%TO.P,J201,2*%
%TO.N,Net-(J201-Pad2)*%
X117070000Y-125800000D03*
D25*
%TO.P,J201,1*%
%TO.N,+3V3*%
X115800000Y-125800000D03*
%TD*%
D12*
%TO.P,C410,1*%
%TO.N,+24V*%
X167000000Y-129800000D03*
D11*
%TO.P,C410,2*%
%TO.N,SABA_GND_AC*%
X167000000Y-134800000D03*
%TD*%
D12*
%TO.P,C403,1*%
%TO.N,Net-(C402-Pad1)*%
X185800000Y-87200000D03*
D11*
%TO.P,C403,2*%
%TO.N,Net-(C402-Pad2)*%
X185800000Y-82200000D03*
%TD*%
D26*
%TO.N,+3V3*%
X128200000Y-78300000D03*
X113030000Y-102005000D03*
X120700000Y-103600000D03*
X110480000Y-104505000D03*
X116650153Y-106175153D03*
X112300000Y-97700000D03*
X103300000Y-110000000D03*
X110700000Y-110700000D03*
X117300000Y-110600000D03*
X126600000Y-110600000D03*
X135100000Y-108700000D03*
X121000000Y-89900004D03*
%TO.N,+5V*%
X150800000Y-76100000D03*
X150800000Y-75100000D03*
X115200000Y-123300008D03*
X116400000Y-123300000D03*
X161000000Y-69000000D03*
X161000000Y-67500000D03*
X161000000Y-66000000D03*
X159750000Y-66000000D03*
X159750000Y-67500000D03*
X159750000Y-69000000D03*
X144700000Y-82800000D03*
X102900000Y-73800000D03*
X105800000Y-66400000D03*
%TO.N,SABA_GND_AC*%
X171400000Y-126950000D03*
X123099998Y-132100000D03*
X121800000Y-134000000D03*
X123200000Y-127999996D03*
X133000000Y-126600000D03*
X129594965Y-133629996D03*
X119200000Y-137600000D03*
X139300000Y-135750000D03*
X136500000Y-134400000D03*
X136750000Y-128600000D03*
X186700000Y-127300000D03*
%TO.N,+24V*%
X123100000Y-133600000D03*
X121700000Y-137800000D03*
X120700000Y-131900000D03*
X136500000Y-135500000D03*
X136300000Y-131500000D03*
X171300000Y-123200000D03*
X184900000Y-125000000D03*
%TO.N,+1V8*%
X122800000Y-93800000D03*
X117780000Y-93830000D03*
X123300000Y-107500000D03*
X101500000Y-86300000D03*
X103800000Y-86300000D03*
X115225000Y-104300000D03*
%TO.N,+3.3VA*%
X127855000Y-101905000D03*
X108900000Y-86800000D03*
X111100000Y-86800000D03*
X130800000Y-97979981D03*
X126500000Y-104400000D03*
%TO.N,Net-(C503-Pad1)*%
X185300000Y-136100000D03*
X186700004Y-128600000D03*
%TO.N,/Suchlauf Messung/Phase*%
X136750000Y-130500000D03*
X129650000Y-136050000D03*
%TO.N,/Suchlauf Messung/Amplitude*%
X128500000Y-135000000D03*
X136950000Y-132950000D03*
%TO.N,+5VA*%
X139700000Y-85300000D03*
X122800000Y-79700000D03*
%TO.N,SABA_15V_AC*%
X165700000Y-117500000D03*
X165200000Y-116200000D03*
%TO.N,Net-(D504-Pad1)*%
X184000000Y-122500000D03*
X165400000Y-122900000D03*
%TO.N,SABA_HS3*%
X149300000Y-106100000D03*
%TO.N,~RESET*%
X122840789Y-95218334D03*
%TO.N,Net-(J201-Pad6)*%
X118500000Y-123200000D03*
%TO.N,SPI_MISO*%
X130799998Y-73700000D03*
X119200000Y-107100000D03*
%TO.N,SPI_SCK*%
X117744524Y-106635401D03*
X122500000Y-87300000D03*
X128600000Y-73700000D03*
%TO.N,SPI_MOSI*%
X117100000Y-107400000D03*
X114600000Y-84400000D03*
X126400000Y-73700000D03*
%TO.N,SPI_CS_SDCARD*%
X125300000Y-73000000D03*
%TO.N,LCD_BL*%
X103105001Y-112305001D03*
%TO.N,Net-(K605-Pad6)*%
X154800000Y-107100000D03*
%TO.N,Net-(R203-Pad2)*%
X102825010Y-104400000D03*
%TO.N,Net-(R501-Pad1)*%
X185900000Y-122500000D03*
X183999998Y-136100000D03*
%TO.N,SABA_Mute*%
X139110010Y-96810010D03*
%TO.N,Net-(R716-Pad2)*%
X131900000Y-101400010D03*
X122700000Y-100600000D03*
%TO.N,SPI_DCS_VS1053*%
X113750000Y-96500000D03*
X114500000Y-110600000D03*
%TO.N,SPI_CS_VS1053*%
X117200000Y-103000000D03*
%TO.N,VS1053_DREQ*%
X120063967Y-97900000D03*
%TO.N,GND*%
X131100000Y-105700000D03*
X147100000Y-90300000D03*
X149400000Y-115900000D03*
X145700000Y-120300000D03*
X144900000Y-123800000D03*
X146300000Y-126500000D03*
X125350000Y-121000000D03*
X129650000Y-120450000D03*
X108600000Y-111050000D03*
X138337340Y-107237340D03*
X152200000Y-71600000D03*
X150000000Y-68000000D03*
X156500000Y-68000000D03*
X156300000Y-70700000D03*
X158250000Y-76750000D03*
X159750000Y-76750000D03*
X158250000Y-78250000D03*
X159750000Y-78250000D03*
X161250000Y-76750000D03*
X161250000Y-78250000D03*
X146600000Y-78600000D03*
X128600000Y-79300000D03*
X135000000Y-75800000D03*
X130600000Y-86600000D03*
X127000084Y-82400000D03*
X121600000Y-86300000D03*
X138700000Y-84500000D03*
X113850000Y-79100000D03*
X106450000Y-79100000D03*
X103550000Y-74950000D03*
X102950000Y-72550000D03*
X114100000Y-86250000D03*
X129212660Y-113012660D03*
X121812660Y-120412660D03*
X124030000Y-104855000D03*
X129800000Y-102300000D03*
X120030000Y-92260000D03*
X115880000Y-96555000D03*
X130500000Y-100774990D03*
X129500000Y-92000000D03*
X122400000Y-91900000D03*
X117180000Y-101955000D03*
X134300000Y-99900000D03*
X116400000Y-104300000D03*
X131300000Y-99100000D03*
X128500000Y-107500000D03*
X114500000Y-107300000D03*
X117180000Y-99455000D03*
X112200000Y-96500000D03*
X121230000Y-97905000D03*
X115650000Y-92200000D03*
X122730000Y-98455000D03*
X105630000Y-100255000D03*
X122480000Y-103355000D03*
X128330000Y-103605000D03*
X127630000Y-99505000D03*
X126200000Y-107500000D03*
X112980000Y-103005000D03*
X112980000Y-105905000D03*
X122730000Y-101705000D03*
X113100000Y-98400000D03*
X123980000Y-96555000D03*
X119300000Y-108200000D03*
X118400000Y-92000000D03*
X106800000Y-86250062D03*
X105100000Y-92700000D03*
X121799992Y-81900000D03*
X122199996Y-78200000D03*
X129600000Y-94700000D03*
X135500000Y-92000000D03*
X135500000Y-94750000D03*
X135500000Y-105750000D03*
X137500000Y-100000000D03*
X115600000Y-113200000D03*
X194200000Y-118200000D03*
X117800000Y-79400000D03*
%TD*%
D27*
%TO.N,+5V*%
X115500000Y-123300000D02*
X115500000Y-123300000D01*
X115200008Y-123300000D02*
X116400000Y-123300000D01*
X114500008Y-124000000D02*
X115200008Y-123300000D01*
X108400000Y-124000000D02*
X114500008Y-124000000D01*
X106100000Y-121500000D02*
X106100000Y-121700000D01*
X106100000Y-121700000D02*
X108400000Y-124000000D01*
D28*
%TO.N,SABA_GND_AC*%
X178700000Y-129800000D02*
X171400000Y-129800000D01*
X171400000Y-126950000D02*
X171400000Y-129800000D01*
X169050000Y-132850000D02*
X167100000Y-134800000D01*
X171400000Y-129800000D02*
X171400000Y-130500000D01*
X171400000Y-130500000D02*
X169050000Y-132850000D01*
X169300000Y-105400000D02*
X169300000Y-124850000D01*
X169300000Y-124850000D02*
X171400000Y-126950000D01*
X161580000Y-97620000D02*
X162810000Y-98850000D01*
X162810000Y-98850000D02*
X164900000Y-98850000D01*
X161580000Y-97000000D02*
X161580000Y-97620000D01*
X164900000Y-98850000D02*
X166000000Y-99950000D01*
X166000000Y-99950000D02*
X166000000Y-102100000D01*
X166000000Y-102100000D02*
X169300000Y-105400000D01*
D29*
%TO.N,+24V*%
X171300000Y-123200000D02*
X183100000Y-123200000D01*
X183100000Y-123200000D02*
X184900000Y-125000000D01*
D30*
%TO.N,+3.3VA*%
X126500000Y-103260000D02*
X126500000Y-104400000D01*
X127855000Y-101905000D02*
X126500000Y-103260000D01*
%TO.N,Net-(C503-Pad1)*%
X185300000Y-136100000D02*
X186700004Y-134699996D01*
X186700004Y-134699996D02*
X186700004Y-128600000D01*
%TO.N,/Suchlauf Messung/Phase*%
X130950000Y-136050000D02*
X129650000Y-136050000D01*
X133350000Y-133650000D02*
X130950000Y-136050000D01*
X137675001Y-131425001D02*
X137675001Y-133324999D01*
X136750000Y-130500000D02*
X137675001Y-131425001D01*
X137675001Y-133324999D02*
X137300000Y-133700000D01*
X136750000Y-133700000D02*
X136700000Y-133650000D01*
X137300000Y-133700000D02*
X136750000Y-133700000D01*
X136700000Y-133650000D02*
X133350000Y-133650000D01*
%TO.N,/Suchlauf Messung/Amplitude*%
X136950000Y-132950000D02*
X133200000Y-132950000D01*
X131150000Y-135000000D02*
X128500000Y-135000000D01*
X133200000Y-132950000D02*
X131150000Y-135000000D01*
D29*
%TO.N,+5VA*%
X139300001Y-85699999D02*
X139700000Y-85300000D01*
X130100000Y-80500000D02*
X135299999Y-85699999D01*
X135299999Y-85699999D02*
X139300001Y-85699999D01*
X130100000Y-80500000D02*
X130000000Y-80400000D01*
X130000000Y-80400000D02*
X123300000Y-80400000D01*
X123300000Y-80400000D02*
X122800000Y-79900000D01*
X122800000Y-79900000D02*
X122800000Y-79700000D01*
D30*
%TO.N,SABA_15V_AC*%
X158135001Y-89584999D02*
X158135001Y-95364999D01*
X159500000Y-88220000D02*
X158135001Y-89584999D01*
X158135001Y-95364999D02*
X156900000Y-96600000D01*
D28*
X166099999Y-117100001D02*
X165700000Y-117500000D01*
X166500000Y-105000000D02*
X166500000Y-116700000D01*
X156745998Y-97000000D02*
X158295999Y-98550001D01*
X166500000Y-116700000D02*
X166099999Y-117100001D01*
X156500000Y-97000000D02*
X156745998Y-97000000D01*
X158295999Y-98550001D02*
X159616742Y-98550001D01*
X163866741Y-102800000D02*
X164300000Y-102800000D01*
X159616742Y-98550001D02*
X163866741Y-102800000D01*
X164300000Y-102800000D02*
X166500000Y-105000000D01*
D30*
%TO.N,Net-(D602-Pad2)*%
X155784999Y-86975001D02*
X153124999Y-86975001D01*
X156960000Y-85800000D02*
X155784999Y-86975001D01*
X153124999Y-86975001D02*
X151900000Y-88200000D01*
%TO.N,Net-(D607-Pad1)*%
X192580000Y-99880000D02*
X192580000Y-96580000D01*
X192580000Y-96580000D02*
X190750000Y-94750000D01*
X190750000Y-94750000D02*
X187500000Y-94750000D01*
%TO.N,Net-(D608-Pad1)*%
X192580000Y-104960000D02*
X192580000Y-105920000D01*
X192580000Y-105920000D02*
X192075001Y-106424999D01*
X192075001Y-106424999D02*
X191000000Y-107500000D01*
X191000000Y-107500000D02*
X187500000Y-107500000D01*
%TO.N,SABA_HS3*%
X149400000Y-106000000D02*
X149300000Y-106100000D01*
X155650000Y-99750000D02*
X149400000Y-106000000D01*
X158050000Y-99750000D02*
X155650000Y-99750000D01*
X164120000Y-106000000D02*
X164120000Y-105820000D01*
X164120000Y-105820000D02*
X158050000Y-99750000D01*
%TO.N,~RESET*%
X121955001Y-102744999D02*
X121955001Y-96104122D01*
X121425001Y-103274999D02*
X121955001Y-102744999D01*
X121955001Y-96104122D02*
X122840789Y-95218334D01*
X121000000Y-114949002D02*
X121000000Y-113400000D01*
X113149002Y-122800000D02*
X121000000Y-114949002D01*
X121000000Y-113400000D02*
X121425001Y-112974999D01*
X101930000Y-114500000D02*
X104800000Y-117370000D01*
X121425001Y-112974999D02*
X121425001Y-103274999D01*
X104800000Y-119399002D02*
X105600998Y-120200000D01*
X107400000Y-120200000D02*
X110000000Y-122800000D01*
X105600998Y-120200000D02*
X107400000Y-120200000D01*
X104800000Y-117370000D02*
X104800000Y-119399002D01*
X110000000Y-122800000D02*
X113149002Y-122800000D01*
%TO.N,Net-(J201-Pad8)*%
X117000000Y-129600000D02*
X117100000Y-129600000D01*
X118800000Y-126000000D02*
X118800000Y-128900000D01*
X128525000Y-120100000D02*
X124700000Y-120100000D01*
X129900000Y-118725000D02*
X128525000Y-120100000D01*
X124700000Y-120100000D02*
X118800000Y-126000000D01*
X118800000Y-128900000D02*
X118100000Y-129600000D01*
X118100000Y-129600000D02*
X117000000Y-129600000D01*
%TO.N,Net-(J201-Pad6)*%
X132700000Y-107200000D02*
X126100000Y-113800000D01*
X132700000Y-93050000D02*
X132700000Y-107200000D01*
X132400000Y-92750000D02*
X132700000Y-93050000D01*
X126100000Y-113800000D02*
X126100000Y-115014501D01*
X126100000Y-115014501D02*
X118534999Y-122579502D01*
X118534999Y-122579502D02*
X118534999Y-123165001D01*
X118534999Y-123165001D02*
X118500000Y-123200000D01*
%TO.N,Net-(J201-Pad4)*%
X118000000Y-126200000D02*
X117000000Y-127200000D01*
X131575000Y-117900000D02*
X129507522Y-117900000D01*
X118000000Y-126017366D02*
X118000000Y-126200000D01*
X132400000Y-118725000D02*
X131575000Y-117900000D01*
X124517366Y-119500000D02*
X118000000Y-126017366D01*
X129507522Y-117900000D02*
X127907522Y-119500000D01*
X127907522Y-119500000D02*
X124517366Y-119500000D01*
%TO.N,Net-(J201-Pad2)*%
X117650000Y-125250000D02*
X117100000Y-125800000D01*
X118048322Y-125250000D02*
X117650000Y-125250000D01*
X127400000Y-118725000D02*
X124573322Y-118725000D01*
X124573322Y-118725000D02*
X118048322Y-125250000D01*
%TO.N,SPI_MISO*%
X125672998Y-75800000D02*
X128699998Y-75800000D01*
X122389002Y-90700000D02*
X123500000Y-89589002D01*
X128699998Y-75800000D02*
X130799998Y-73700000D01*
X119200000Y-90700000D02*
X122389002Y-90700000D01*
X123500000Y-81473002D02*
X122074999Y-80048001D01*
X123500000Y-89589002D02*
X123500000Y-81473002D01*
X122074999Y-80048001D02*
X122074999Y-79397999D01*
X122074999Y-79397999D02*
X125672998Y-75800000D01*
X114600000Y-89100000D02*
X115900000Y-87800000D01*
X117800000Y-87800000D02*
X118400000Y-88400000D01*
X115900000Y-87800000D02*
X117800000Y-87800000D01*
X118400000Y-88400000D02*
X118400000Y-89600000D01*
X119200000Y-90400000D02*
X119200000Y-107100000D01*
X118400000Y-89600000D02*
X119200000Y-90400000D01*
%TO.N,SPI_SCK*%
X118600000Y-105779925D02*
X117744524Y-106635401D01*
X118600000Y-93273002D02*
X118600000Y-105779925D01*
X117100000Y-89100000D02*
X117100000Y-91773002D01*
X117100000Y-91773002D02*
X118600000Y-93273002D01*
X127000000Y-75300000D02*
X128600000Y-73700000D01*
X123000000Y-86800000D02*
X123000000Y-81700000D01*
X124026994Y-75300000D02*
X127000000Y-75300000D01*
X122500000Y-87300000D02*
X123000000Y-86800000D01*
X121474995Y-80174995D02*
X121474995Y-77851999D01*
X123000000Y-81700000D02*
X121474995Y-80174995D01*
X121474995Y-77851999D02*
X124026994Y-75300000D01*
X115900000Y-114098321D02*
X115900000Y-115300000D01*
X109900000Y-117954998D02*
X109900000Y-120200000D01*
X109900000Y-120200000D02*
X111300000Y-121600000D01*
X111555008Y-116299990D02*
X109900000Y-117954998D01*
X117744524Y-106635401D02*
X118144523Y-107035400D01*
X118144523Y-107035400D02*
X118144523Y-111853798D01*
X115900000Y-115300000D02*
X114900010Y-116299990D01*
X114900010Y-116299990D02*
X111555008Y-116299990D01*
X118144523Y-111853798D02*
X115900000Y-114098321D01*
%TO.N,SPI_MOSI*%
X114600000Y-82626994D02*
X114700000Y-82526994D01*
X114600000Y-84400000D02*
X114600000Y-82626994D01*
X114700000Y-82526994D02*
X114700000Y-77600000D01*
X114700000Y-77600000D02*
X118500000Y-73800000D01*
X118500000Y-73800000D02*
X126300000Y-73800000D01*
X126300000Y-73800000D02*
X126400000Y-73700000D01*
X117100000Y-107400000D02*
X117100000Y-109400000D01*
X108600000Y-117400000D02*
X108600000Y-119000000D01*
X113300000Y-113200000D02*
X113300000Y-115029002D01*
X110300000Y-115700000D02*
X108600000Y-117400000D01*
X117100000Y-109400000D02*
X113300000Y-113200000D01*
X113300000Y-115029002D02*
X112629002Y-115700000D01*
X112629002Y-115700000D02*
X110300000Y-115700000D01*
X112100000Y-89300000D02*
X112100000Y-89100000D01*
X114500000Y-91700000D02*
X112100000Y-89300000D01*
X114500000Y-105200000D02*
X114500000Y-91700000D01*
X117100000Y-107400000D02*
X116700000Y-107400000D01*
X116700000Y-107400000D02*
X114500000Y-105200000D01*
%TO.N,SPI_CS_SDCARD*%
X118300000Y-73000000D02*
X125300000Y-73000000D01*
X104550000Y-86750000D02*
X118300000Y-73000000D01*
X104470000Y-89100000D02*
X104550000Y-89020000D01*
X104550000Y-89020000D02*
X104550000Y-86750000D01*
%TO.N,SABA_HS2*%
X161580000Y-106000000D02*
X161580000Y-105930000D01*
X160150000Y-104500000D02*
X152900000Y-104500000D01*
X161580000Y-105930000D02*
X160150000Y-104500000D01*
D27*
%TO.N,SABA_N2*%
X187500000Y-104960000D02*
X183540000Y-104960000D01*
X183540000Y-104960000D02*
X182000000Y-106500000D01*
X182000000Y-106500000D02*
X182000000Y-109000000D01*
X182000000Y-109000000D02*
X179500000Y-109000000D01*
%TO.N,SABA_N1*%
X187500000Y-99880000D02*
X184880000Y-99880000D01*
X184880000Y-99880000D02*
X181500000Y-96500000D01*
X181500000Y-96500000D02*
X178750000Y-96500000D01*
X178750000Y-96500000D02*
X177000000Y-94750000D01*
X177000000Y-94750000D02*
X177000000Y-94000000D01*
X177000000Y-94000000D02*
X174500000Y-94000000D01*
D30*
%TO.N,LCD_BL*%
X106100000Y-118960000D02*
X106100000Y-118900000D01*
X103105001Y-115005001D02*
X103105001Y-112305001D01*
X106100000Y-118900000D02*
X106100000Y-118000000D01*
X106100000Y-118000000D02*
X103105001Y-115005001D01*
%TO.N,LCD_A0*%
X101950000Y-89150000D02*
X102000000Y-89100000D01*
X101950000Y-119850000D02*
X101950000Y-116250000D01*
X103700000Y-121600000D02*
X101950000Y-119850000D01*
X101950000Y-112740998D02*
X101950000Y-89150000D01*
X101950000Y-116250000D02*
X100700000Y-115000000D01*
X100700000Y-115000000D02*
X100700000Y-113990998D01*
X100700000Y-113990998D02*
X101950000Y-112740998D01*
%TO.N,SPI_CS_LCD*%
X113350000Y-116750000D02*
X117450000Y-116750000D01*
X111180000Y-118960000D02*
X111180000Y-118920000D01*
X117450000Y-116750000D02*
X119600000Y-114600000D01*
X111180000Y-118920000D02*
X113350000Y-116750000D01*
%TO.N,Net-(J313-PadS1)*%
X157600000Y-65630000D02*
X157600000Y-61500000D01*
X157600000Y-61500000D02*
X149000000Y-61500000D01*
X149000000Y-61500000D02*
X149000000Y-65800000D01*
%TO.N,Net-(K602-Pad4)*%
X158324999Y-123511411D02*
X159500000Y-122336410D01*
X159500000Y-129380000D02*
X158324999Y-128204999D01*
X158324999Y-128204999D02*
X158324999Y-123511411D01*
X159500000Y-122336410D02*
X159500000Y-122100000D01*
%TO.N,/Fernbedienung/Suchlauf*%
X159500000Y-131600000D02*
X159100000Y-131600000D01*
X159100000Y-131600000D02*
X159100000Y-131500000D01*
X159100000Y-131500000D02*
X156900000Y-129300000D01*
X156900000Y-129300000D02*
X157000000Y-129200000D01*
X157000000Y-129200000D02*
X156900000Y-129100000D01*
X156900000Y-129100000D02*
X156900000Y-124300000D01*
X158135001Y-123064999D02*
X158135001Y-118364999D01*
X156900000Y-124300000D02*
X158135001Y-123064999D01*
X158135001Y-118364999D02*
X159500000Y-117000000D01*
X159500000Y-117000000D02*
X159200000Y-117000000D01*
X159200000Y-117000000D02*
X159200000Y-116700000D01*
X159200000Y-116700000D02*
X158400000Y-115900000D01*
X158400000Y-115900000D02*
X158000000Y-115900000D01*
X158000000Y-115900000D02*
X157000000Y-114900000D01*
%TO.N,Net-(K604-Pad5)*%
X160675001Y-135504999D02*
X160675001Y-125475001D01*
X159500000Y-136680000D02*
X160675001Y-135504999D01*
X160675001Y-125475001D02*
X159500000Y-124300000D01*
%TO.N,Net-(K605-Pad3)*%
X157400000Y-101800000D02*
X156600000Y-101000000D01*
X158800000Y-101800000D02*
X157400000Y-101800000D01*
X161600000Y-104600000D02*
X158800000Y-101800000D01*
X162100000Y-104600000D02*
X161600000Y-104600000D01*
X156960000Y-136680000D02*
X158135001Y-137855001D01*
X162900000Y-105400000D02*
X162100000Y-104600000D01*
X160064001Y-137855001D02*
X161125011Y-136793991D01*
X158135001Y-137855001D02*
X160064001Y-137855001D01*
X161125011Y-136793991D02*
X161125011Y-108574989D01*
X162900000Y-106800000D02*
X162900000Y-105400000D01*
X161125011Y-108574989D02*
X162900000Y-106800000D01*
%TO.N,Net-(K605-Pad6)*%
X155595001Y-130235001D02*
X155595001Y-107895001D01*
X155595001Y-107895001D02*
X154800000Y-107100000D01*
X156960000Y-131600000D02*
X155595001Y-130235001D01*
%TO.N,Net-(R203-Pad2)*%
X105750000Y-89559002D02*
X102825010Y-92483992D01*
X102825010Y-92483992D02*
X102825010Y-104400000D01*
X108800000Y-85500000D02*
X105750000Y-88550000D01*
X122300000Y-89000000D02*
X118800000Y-85500000D01*
X105750000Y-88550000D02*
X105750000Y-89559002D01*
X122300000Y-89200000D02*
X122300000Y-89000000D01*
X118800000Y-85500000D02*
X108800000Y-85500000D01*
%TO.N,SABA_Suchlauf_L*%
X127400000Y-117075000D02*
X127400000Y-114600000D01*
X127400000Y-114600000D02*
X127300000Y-114500000D01*
%TO.N,SABA_Schnelllauf*%
X129900000Y-117075000D02*
X129900000Y-114600000D01*
%TO.N,SABA_Suchlauf_R*%
X132400000Y-117075000D02*
X132400000Y-114500000D01*
%TO.N,Net-(R501-Pad1)*%
X185900000Y-134199998D02*
X183999998Y-136100000D01*
X185900000Y-122500000D02*
X185900000Y-134199998D01*
%TO.N,SABA_Leise*%
X132400000Y-91100000D02*
X132400000Y-89000000D01*
%TO.N,SABA_Mute*%
X134200000Y-91900000D02*
X139110010Y-96810010D01*
X124800000Y-89200000D02*
X126200000Y-87800000D01*
X128600000Y-89700000D02*
X130800000Y-91900000D01*
X127900000Y-87800000D02*
X128600000Y-88500000D01*
X126200000Y-87800000D02*
X127900000Y-87800000D01*
X128600000Y-88500000D02*
X128600000Y-89700000D01*
X130800000Y-91900000D02*
X134200000Y-91900000D01*
%TO.N,Net-(R716-Pad2)*%
X131800010Y-101500000D02*
X131900000Y-101400010D01*
X122700000Y-100600000D02*
X129126998Y-100600000D01*
X130026998Y-101500000D02*
X131800010Y-101500000D01*
X129126998Y-100600000D02*
X130026998Y-101500000D01*
%TO.N,SPI_DCS_VS1053*%
X114500000Y-108400000D02*
X114500000Y-110600000D01*
X113750000Y-107650000D02*
X114500000Y-108400000D01*
X113750000Y-106976998D02*
X113750000Y-107650000D01*
X113900000Y-106826998D02*
X113750000Y-106976998D01*
X113750000Y-96500000D02*
X113900000Y-96650000D01*
X113900000Y-96650000D02*
X113900000Y-106826998D01*
%TO.N,SPI_CS_VS1053*%
X119700000Y-88800000D02*
X119700000Y-89100000D01*
X113400000Y-88495499D02*
X114695499Y-87200000D01*
X114095499Y-90400000D02*
X113400000Y-89704501D01*
X114695499Y-87200000D02*
X118100000Y-87200000D01*
X117905001Y-102294999D02*
X117905001Y-96991502D01*
X113400000Y-89704501D02*
X113400000Y-88495499D01*
X117905001Y-96991502D02*
X116500000Y-95586501D01*
X116500000Y-95586501D02*
X116500000Y-92000000D01*
X118100000Y-87200000D02*
X119700000Y-88800000D01*
X116500000Y-92000000D02*
X114900000Y-90400000D01*
X117200000Y-103000000D02*
X117905001Y-102294999D01*
X114900000Y-90400000D02*
X114095499Y-90400000D01*
%TO.N,VS1053_DREQ*%
X125800000Y-90700000D02*
X127400000Y-89100000D01*
X124826998Y-90700000D02*
X125800000Y-90700000D01*
X120063967Y-97900000D02*
X120063967Y-95463031D01*
X120063967Y-95463031D02*
X124826998Y-90700000D01*
%TD*%
M02*
