M48
; DRILL file {KiCad 5.1.9-73d0e3b20d~88~ubuntu18.04.1} date Sat Jan 16 14:30:11 2021
; FORMAT={-:-/ absolute / inch / decimal}
; #@! TF.CreationDate,2021-01-16T14:30:11+01:00
; #@! TF.GenerationSoftware,Kicad,Pcbnew,5.1.9-73d0e3b20d~88~ubuntu18.04.1
; #@! TF.FileFunction,Plated,1,4,PTH
FMAT,2
INCH
T1C0.0157
T2C0.0236
T3C0.0256
T4C0.0276
T5C0.0315
T6C0.0335
T7C0.0394
%
G90
G05
T1
X3.9961Y-3.3976
X4.0482Y-4.1102
X4.0512Y-2.9055
X4.0531Y-2.8563
X4.0593Y-4.4215
X4.0669Y-4.3307
X4.0768Y-2.9508
X4.0866Y-3.3976
X4.1378Y-3.6496
X4.1587Y-3.947
X4.1654Y-2.6142
X4.1909Y-3.1142
X4.2047Y-3.3957
X4.2756Y-4.372
X4.2874Y-3.4173
X4.3496Y-4.1144
X4.3583Y-4.3583
X4.374Y-3.4173
X4.4173Y-3.7992
X4.4213Y-3.8465
X4.448Y-4.0553
X4.448Y-4.1695
X4.45Y-4.0159
X4.4528Y-3.874
X4.4783Y-3.7992
X4.4823Y-3.1142
X4.4921Y-3.3957
X4.5079Y-4.2244
X4.5079Y-4.3543
X4.5118Y-3.3228
X4.5354Y-4.8543
X4.5364Y-4.1063
X4.5512Y-4.4567
X4.5531Y-3.6299
X4.5622Y-3.8014
X4.5827Y-4.1063
X4.5827Y-4.8543
X4.5925Y-4.1801
X4.6102Y-4.2283
X4.6134Y-3.9156
X4.6134Y-4.014
X4.6142Y-4.0551
X4.6181Y-4.3543
X4.6356Y-4.1982
X4.637Y-3.6941
X4.6378Y-3.126
X4.6614Y-3.622
X4.6654Y-4.8504
X4.6929Y-4.2165
X4.6929Y-5.4173
X4.6969Y-4.2598
X4.7256Y-3.6323
X4.7269Y-3.8543
X4.752Y-4.0787
X4.752Y-5.1929
X4.7638Y-3.5394
X4.7728Y-3.8545
X4.7874Y-3.3976
X4.7913Y-5.4252
X4.7953Y-3.2244
X4.7953Y-5.2756
X4.7958Y-4.7407
X4.811Y-3.0787
X4.8189Y-3.6181
X4.822Y-4.0691
X4.8228Y-3.437
X4.8307Y-3.9606
X4.8319Y-3.8762
X4.8319Y-4.0041
X4.8346Y-3.1378
X4.8346Y-3.6929
X4.8363Y-3.7488
X4.8465Y-5.2008
X4.8465Y-5.2598
X4.8504Y-5.0394
X4.8543Y-4.2323
X4.8811Y-3.8014
X4.8831Y-4.1281
X4.9331Y-2.874
X4.935Y-4.7638
X4.9685Y-4.2323
X4.9764Y-2.9016
X4.9803Y-4.1102
X4.9843Y-4.3543
X5.0Y-3.2441
X5.0248Y-3.9175
X5.0337Y-4.012
X5.0472Y-3.0827
X5.0524Y-4.0789
X5.0591Y-4.2323
X5.0591Y-5.315
X5.063Y-2.9016
X5.063Y-3.122
X5.0871Y-4.4493
X5.0984Y-3.622
X5.1022Y-5.261
X5.1024Y-3.7283
X5.1043Y-4.7421
X5.1043Y-5.3563
X5.1102Y-4.0276
X5.1378Y-3.9675
X5.1417Y-3.4094
X5.1496Y-2.9016
X5.1496Y-3.8575
X5.1614Y-4.1614
X5.1693Y-3.9016
X5.1929Y-3.9921
X5.2362Y-4.9843
X5.2874Y-3.9331
X5.315Y-2.9843
X5.3189Y-4.2795
X5.3346Y-3.622
X5.3346Y-3.7303
X5.3346Y-4.1634
X5.3661Y-5.1772
X5.374Y-5.2913
X5.374Y-5.3346
X5.3839Y-5.063
X5.3839Y-5.1378
X5.3917Y-5.2343
X5.4134Y-3.937
X5.4464Y-4.2219
X5.4606Y-3.3268
X5.4768Y-3.8114
X5.4843Y-5.3445
X5.5Y-3.3583
X5.6969Y-3.2598
X5.7047Y-4.874
X5.7362Y-4.7362
X5.7598Y-4.9803
X5.7717Y-3.0945
X5.7913Y-3.5551
X5.878Y-4.1772
X5.8819Y-4.563
X5.9055Y-2.6772
X5.937Y-2.9567
X5.937Y-2.9961
X5.9921Y-2.8189
X6.0945Y-4.2165
X6.1535Y-2.7835
X6.1614Y-2.6772
X6.2303Y-3.0217
X6.2303Y-3.0807
X6.2894Y-2.5984
X6.2894Y-2.6575
X6.2894Y-2.7165
X6.2894Y-3.0217
X6.2894Y-3.0807
X6.3386Y-2.5984
X6.3386Y-2.6575
X6.3386Y-2.7165
X6.3484Y-3.0217
X6.3484Y-3.0807
X6.5039Y-4.5748
X6.5118Y-4.8386
X6.5236Y-4.626
X6.7441Y-4.8504
X6.748Y-4.998
X7.2441Y-5.3583
X7.2441Y-4.8228
X7.2795Y-4.9213
X7.2953Y-5.3583
X7.3189Y-4.8228
X7.3504Y-5.0118
X7.3504Y-5.063
X7.6457Y-4.6535
T3
X4.5591Y-4.9528
X4.5591Y-5.0028
X4.5591Y-5.0528
X4.5591Y-5.1028
X4.5591Y-5.1528
X4.6091Y-4.9528
X4.6091Y-5.0028
X4.6091Y-5.0528
X4.6091Y-5.1028
X4.6091Y-5.1528
T4
X4.0354Y-4.9827
X4.0354Y-5.0827
X4.0354Y-5.2827
T5
X5.7185Y-3.8189
X5.7197Y-4.1142
X6.0185Y-3.8189
X6.0197Y-4.1142
X6.1665Y-3.9764
X6.4665Y-3.9764
X7.3819Y-3.7323
X7.3819Y-3.9323
X7.3819Y-4.0323
X7.3819Y-4.1323
X7.3819Y-4.2323
X7.5819Y-3.7323
X7.5819Y-3.9323
X7.5819Y-4.0323
X7.5819Y-4.1323
X7.5819Y-4.2323
T6
X5.9795Y-3.178
X5.9795Y-3.378
X5.9795Y-3.4732
X5.9795Y-3.6732
X5.9795Y-4.3197
X5.9795Y-4.5197
X5.9795Y-4.6063
X5.9795Y-4.8063
X5.9795Y-4.8937
X5.9795Y-5.0937
X5.9795Y-5.1811
X5.9795Y-5.3811
X6.0795Y-3.178
X6.0795Y-3.378
X6.0795Y-3.4732
X6.0795Y-3.6732
X6.0795Y-4.3197
X6.0795Y-4.5197
X6.0795Y-4.6063
X6.0795Y-4.8063
X6.0795Y-4.8937
X6.0795Y-5.0937
X6.0795Y-5.1811
X6.0795Y-5.3811
X6.1795Y-3.178
X6.1795Y-3.378
X6.1795Y-3.4732
X6.1795Y-3.6732
X6.1795Y-4.3197
X6.1795Y-4.5197
X6.1795Y-4.6063
X6.1795Y-4.8063
X6.1795Y-4.8937
X6.1795Y-5.0937
X6.1795Y-5.1811
X6.1795Y-5.3811
X6.2795Y-3.178
X6.2795Y-3.378
X6.2795Y-3.4732
X6.2795Y-3.6732
X6.2795Y-4.3197
X6.2795Y-4.5197
X6.2795Y-4.6063
X6.2795Y-4.8063
X6.2795Y-4.8937
X6.2795Y-5.0937
X6.2795Y-5.1811
X6.2795Y-5.3811
T7
X4.013Y-3.5079
X4.013Y-4.5079
X4.0772Y-4.6835
X4.0772Y-4.7835
X4.113Y-3.5079
X4.113Y-4.5079
X4.1772Y-4.6835
X4.1772Y-4.7835
X4.213Y-3.5079
X4.213Y-4.5079
X4.2772Y-4.6835
X4.2772Y-4.7835
X4.313Y-3.5079
X4.313Y-4.5079
X4.3772Y-4.6835
X4.3772Y-4.7835
X4.413Y-3.5079
X4.413Y-4.5079
X4.513Y-3.5079
X4.513Y-4.5079
X4.613Y-3.5079
X4.613Y-4.5079
X4.713Y-3.5079
X4.713Y-4.5079
X4.813Y-3.5079
X4.813Y-4.5079
X4.913Y-3.5079
X4.913Y-4.5079
X5.013Y-3.5079
X5.013Y-4.5079
X5.113Y-3.5079
X5.113Y-4.5079
X5.213Y-3.5079
X5.213Y-4.5079
X5.313Y-3.5099
X5.313Y-4.5079
X5.4129Y-3.5079
X5.413Y-4.5079
X5.4232Y-2.6476
X5.4232Y-2.7854
X5.7087Y-2.7461
X5.937Y-3.0551
X6.1339Y-3.0551
X6.1614Y-3.8189
X6.1614Y-4.1732
X6.2614Y-3.8189
X6.2614Y-4.1732
X6.3614Y-3.8189
X6.3614Y-4.1732
X6.4134Y-3.378
X6.4134Y-3.478
X6.4134Y-3.578
X6.4134Y-3.678
X6.4134Y-4.315
X6.4134Y-4.415
X6.4134Y-4.515
X6.4134Y-4.615
X6.4614Y-3.8189
X6.4614Y-4.1732
X6.4654Y-2.7953
X6.5654Y-2.7953
X6.5748Y-5.1102
X6.5748Y-5.3071
X6.6654Y-2.7953
X6.7654Y-2.7953
X6.8661Y-3.7008
X6.9654Y-2.7953
X6.9661Y-3.7008
X7.0118Y-5.1102
X7.0118Y-5.3071
X7.0654Y-2.7953
X7.0661Y-3.7008
X7.0669Y-4.2913
X7.1654Y-2.7953
X7.1661Y-3.7008
X7.1669Y-4.2913
X7.315Y-3.2362
X7.315Y-3.4331
T2
G00X5.8646Y-2.4311
M15
G01X5.8646Y-2.4075
M16
G05
G00X5.8646Y-2.6055
M15
G01X5.8646Y-2.5622
M16
G05
G00X6.2047Y-2.4311
M15
G01X6.2047Y-2.4075
M16
G05
G00X6.2047Y-2.6055
M15
G01X6.2047Y-2.5622
M16
G05
T0
M30
