%TF.GenerationSoftware,KiCad,Pcbnew,5.1.9-73d0e3b20d~88~ubuntu18.04.1*%
%TF.CreationDate,2021-01-16T14:46:19+01:00*%
%TF.ProjectId,saba-fernbedienung,73616261-2d66-4657-926e-62656469656e,rev?*%
%TF.SameCoordinates,Original*%
%TF.FileFunction,Soldermask,Bot*%
%TF.FilePolarity,Negative*%
%FSLAX46Y46*%
G04 Gerber Fmt 4.6, Leading zero omitted, Abs format (unit mm)*
G04 Created by KiCad (PCBNEW 5.1.9-73d0e3b20d~88~ubuntu18.04.1) date 2021-01-16 14:46:19*
%MOMM*%
%LPD*%
G01*
G04 APERTURE LIST*
%ADD10C,2.000000*%
%ADD11R,2.000000X2.000000*%
%ADD12O,1.700000X1.700000*%
%ADD13R,1.700000X1.700000*%
%ADD14C,3.200000*%
%ADD15C,1.700000*%
%ADD16O,1.000000X2.100000*%
%ADD17C,0.650000*%
%ADD18O,1.000000X1.600000*%
%ADD19O,1.500000X3.000000*%
%ADD20R,1.500000X3.000000*%
%ADD21C,1.400000*%
%ADD22C,1.600000*%
%ADD23O,1.600000X1.600000*%
%ADD24C,1.500000*%
%ADD25O,1.000000X1.000000*%
%ADD26R,1.000000X1.000000*%
G04 APERTURE END LIST*
D10*
%TO.C,C407*%
X155800000Y-77600000D03*
D11*
X150800000Y-77600000D03*
%TD*%
D12*
%TO.C,U201*%
X137490000Y-114500000D03*
X134950000Y-114500000D03*
X132410000Y-114500000D03*
X129870000Y-114500000D03*
X127330000Y-114500000D03*
X124790000Y-114500000D03*
X122250000Y-114500000D03*
X119710000Y-114500000D03*
X117170000Y-114500000D03*
X114630000Y-114500000D03*
X112090000Y-114500000D03*
X109550000Y-114500000D03*
X107010000Y-114500000D03*
X104470000Y-114500000D03*
X101930000Y-114500000D03*
X101930000Y-89100000D03*
X104470000Y-89100000D03*
X107010000Y-89100000D03*
X109550000Y-89100000D03*
X112090000Y-89100000D03*
X114630000Y-89100000D03*
X117170000Y-89100000D03*
X119710000Y-89100000D03*
X122250000Y-89100000D03*
X124790000Y-89100000D03*
X127330000Y-89100000D03*
X129870000Y-89100000D03*
X132410000Y-89100000D03*
X134950000Y-89150800D03*
X137488000Y-89100800D03*
%TD*%
D13*
%TO.C,J312*%
X111180000Y-118960000D03*
D12*
X111180000Y-121500000D03*
X108640000Y-118960000D03*
X108640000Y-121500000D03*
X106100000Y-118960000D03*
X106100000Y-121500000D03*
X103560000Y-118960000D03*
X103560000Y-121500000D03*
%TD*%
D11*
%TO.C,C418*%
X178100000Y-129800000D03*
D10*
X178100000Y-134800000D03*
%TD*%
D14*
%TO.C,REF\u002A\u002A*%
X180000000Y-101500000D03*
%TD*%
%TO.C,REF\u002A\u002A*%
X170000000Y-101500000D03*
%TD*%
%TO.C,REF\u002A\u002A*%
X109000000Y-72500000D03*
%TD*%
%TO.C,REF\u002A\u002A*%
X191000000Y-72500000D03*
%TD*%
%TO.C,REF\u002A\u002A*%
X191000000Y-130500000D03*
%TD*%
%TO.C,REF\u002A\u002A*%
X109000000Y-130500000D03*
%TD*%
D13*
%TO.C,K606*%
X151880000Y-114800000D03*
D15*
X154420000Y-114800000D03*
X156960000Y-114800000D03*
X159500000Y-114800000D03*
X159500000Y-109720000D03*
X156960000Y-109720000D03*
X154420000Y-109720000D03*
X151880000Y-109720000D03*
%TD*%
D13*
%TO.C,K605*%
X151880000Y-136680000D03*
D15*
X154420000Y-136680000D03*
X156960000Y-136680000D03*
X159500000Y-136680000D03*
X159500000Y-131600000D03*
X156960000Y-131600000D03*
X154420000Y-131600000D03*
X151880000Y-131600000D03*
%TD*%
D13*
%TO.C,K604*%
X151880000Y-129380000D03*
D15*
X154420000Y-129380000D03*
X156960000Y-129380000D03*
X159500000Y-129380000D03*
X159500000Y-124300000D03*
X156960000Y-124300000D03*
X154420000Y-124300000D03*
X151880000Y-124300000D03*
%TD*%
D13*
%TO.C,K603*%
X151880000Y-85800000D03*
D15*
X154420000Y-85800000D03*
X156960000Y-85800000D03*
X159500000Y-85800000D03*
X159500000Y-80720000D03*
X156960000Y-80720000D03*
X154420000Y-80720000D03*
X151880000Y-80720000D03*
%TD*%
D13*
%TO.C,K602*%
X151880000Y-122080000D03*
D15*
X154420000Y-122080000D03*
X156960000Y-122080000D03*
X159500000Y-122080000D03*
X159500000Y-117000000D03*
X156960000Y-117000000D03*
X154420000Y-117000000D03*
X151880000Y-117000000D03*
%TD*%
D13*
%TO.C,K601*%
X151880000Y-93300000D03*
D15*
X154420000Y-93300000D03*
X156960000Y-93300000D03*
X159500000Y-93300000D03*
X159500000Y-88220000D03*
X156960000Y-88220000D03*
X154420000Y-88220000D03*
X151880000Y-88220000D03*
%TD*%
D13*
%TO.C,J306*%
X179500000Y-109000000D03*
D12*
X182040000Y-109000000D03*
%TD*%
D16*
%TO.C,J313*%
X148960000Y-65630000D03*
X157600000Y-65630000D03*
D17*
X156170000Y-65100000D03*
D18*
X157600000Y-61450000D03*
D17*
X150390000Y-65100000D03*
D18*
X148960000Y-61450000D03*
%TD*%
D19*
%TO.C,U401*%
X164220000Y-71000000D03*
X166760000Y-71000000D03*
X176920000Y-71000000D03*
X169300000Y-71000000D03*
X171840000Y-71000000D03*
X179460000Y-71000000D03*
D20*
X182000000Y-71000000D03*
%TD*%
%TO.C,U301*%
G36*
G01*
X102049200Y-125860000D02*
X102950800Y-125860000D01*
G75*
G02*
X103200000Y-126109200I0J-249200D01*
G01*
X103200000Y-127010800D01*
G75*
G02*
X102950800Y-127260000I-249200J0D01*
G01*
X102049200Y-127260000D01*
G75*
G02*
X101800000Y-127010800I0J249200D01*
G01*
X101800000Y-126109200D01*
G75*
G02*
X102049200Y-125860000I249200J0D01*
G01*
G37*
D21*
X102500000Y-129100000D03*
X102500000Y-134180000D03*
%TD*%
D22*
%TO.C,R618*%
X152900000Y-104500000D03*
D23*
X145280000Y-104500000D03*
%TD*%
%TO.C,R617*%
X164250000Y-101000000D03*
D22*
X156630000Y-101000000D03*
%TD*%
D23*
%TO.C,R603*%
X152870000Y-97000000D03*
D22*
X145250000Y-97000000D03*
%TD*%
%TO.C,R208*%
G36*
G01*
X132675000Y-117475000D02*
X132125000Y-117475000D01*
G75*
G02*
X131925000Y-117275000I0J200000D01*
G01*
X131925000Y-116875000D01*
G75*
G02*
X132125000Y-116675000I200000J0D01*
G01*
X132675000Y-116675000D01*
G75*
G02*
X132875000Y-116875000I0J-200000D01*
G01*
X132875000Y-117275000D01*
G75*
G02*
X132675000Y-117475000I-200000J0D01*
G01*
G37*
G36*
G01*
X132675000Y-119125000D02*
X132125000Y-119125000D01*
G75*
G02*
X131925000Y-118925000I0J200000D01*
G01*
X131925000Y-118525000D01*
G75*
G02*
X132125000Y-118325000I200000J0D01*
G01*
X132675000Y-118325000D01*
G75*
G02*
X132875000Y-118525000I0J-200000D01*
G01*
X132875000Y-118925000D01*
G75*
G02*
X132675000Y-119125000I-200000J0D01*
G01*
G37*
%TD*%
%TO.C,R207*%
G36*
G01*
X127675000Y-117475000D02*
X127125000Y-117475000D01*
G75*
G02*
X126925000Y-117275000I0J200000D01*
G01*
X126925000Y-116875000D01*
G75*
G02*
X127125000Y-116675000I200000J0D01*
G01*
X127675000Y-116675000D01*
G75*
G02*
X127875000Y-116875000I0J-200000D01*
G01*
X127875000Y-117275000D01*
G75*
G02*
X127675000Y-117475000I-200000J0D01*
G01*
G37*
G36*
G01*
X127675000Y-119125000D02*
X127125000Y-119125000D01*
G75*
G02*
X126925000Y-118925000I0J200000D01*
G01*
X126925000Y-118525000D01*
G75*
G02*
X127125000Y-118325000I200000J0D01*
G01*
X127675000Y-118325000D01*
G75*
G02*
X127875000Y-118525000I0J-200000D01*
G01*
X127875000Y-118925000D01*
G75*
G02*
X127675000Y-119125000I-200000J0D01*
G01*
G37*
%TD*%
%TO.C,R206*%
G36*
G01*
X132675000Y-91500000D02*
X132125000Y-91500000D01*
G75*
G02*
X131925000Y-91300000I0J200000D01*
G01*
X131925000Y-90900000D01*
G75*
G02*
X132125000Y-90700000I200000J0D01*
G01*
X132675000Y-90700000D01*
G75*
G02*
X132875000Y-90900000I0J-200000D01*
G01*
X132875000Y-91300000D01*
G75*
G02*
X132675000Y-91500000I-200000J0D01*
G01*
G37*
G36*
G01*
X132675000Y-93150000D02*
X132125000Y-93150000D01*
G75*
G02*
X131925000Y-92950000I0J200000D01*
G01*
X131925000Y-92550000D01*
G75*
G02*
X132125000Y-92350000I200000J0D01*
G01*
X132675000Y-92350000D01*
G75*
G02*
X132875000Y-92550000I0J-200000D01*
G01*
X132875000Y-92950000D01*
G75*
G02*
X132675000Y-93150000I-200000J0D01*
G01*
G37*
%TD*%
%TO.C,R205*%
G36*
G01*
X130175000Y-117475000D02*
X129625000Y-117475000D01*
G75*
G02*
X129425000Y-117275000I0J200000D01*
G01*
X129425000Y-116875000D01*
G75*
G02*
X129625000Y-116675000I200000J0D01*
G01*
X130175000Y-116675000D01*
G75*
G02*
X130375000Y-116875000I0J-200000D01*
G01*
X130375000Y-117275000D01*
G75*
G02*
X130175000Y-117475000I-200000J0D01*
G01*
G37*
G36*
G01*
X130175000Y-119125000D02*
X129625000Y-119125000D01*
G75*
G02*
X129425000Y-118925000I0J200000D01*
G01*
X129425000Y-118525000D01*
G75*
G02*
X129625000Y-118325000I200000J0D01*
G01*
X130175000Y-118325000D01*
G75*
G02*
X130375000Y-118525000I0J-200000D01*
G01*
X130375000Y-118925000D01*
G75*
G02*
X130175000Y-119125000I-200000J0D01*
G01*
G37*
%TD*%
D24*
%TO.C,K607*%
X192580000Y-94800000D03*
X192580000Y-99880000D03*
X192580000Y-102420000D03*
X192580000Y-104960000D03*
X192580000Y-107500000D03*
X187500000Y-107500000D03*
X187500000Y-104960000D03*
X187500000Y-102420000D03*
X187500000Y-99880000D03*
G36*
G01*
X186750000Y-95299500D02*
X186750000Y-94300500D01*
G75*
G02*
X187000500Y-94050000I250500J0D01*
G01*
X187999500Y-94050000D01*
G75*
G02*
X188250000Y-94300500I0J-250500D01*
G01*
X188250000Y-95299500D01*
G75*
G02*
X187999500Y-95550000I-250500J0D01*
G01*
X187000500Y-95550000D01*
G75*
G02*
X186750000Y-95299500I0J250500D01*
G01*
G37*
%TD*%
D12*
%TO.C,J311*%
X162900000Y-117220000D03*
X162900000Y-114680000D03*
X162900000Y-112140000D03*
D13*
X162900000Y-109600000D03*
%TD*%
%TO.C,J310*%
X145000000Y-69750000D03*
%TD*%
%TO.C,J309*%
X137750000Y-67250000D03*
%TD*%
%TO.C,J308*%
X137750000Y-70750000D03*
%TD*%
%TO.C,J307*%
X174400000Y-94000000D03*
D12*
X176940000Y-94000000D03*
X179480000Y-94000000D03*
X182020000Y-94000000D03*
%TD*%
D15*
%TO.C,J305*%
X141400000Y-72600000D03*
X141400000Y-65600000D03*
%TD*%
D13*
%TO.C,J304*%
X156500000Y-106000000D03*
D12*
X159040000Y-106000000D03*
X161580000Y-106000000D03*
X164120000Y-106000000D03*
%TD*%
D13*
%TO.C,J302*%
X162900000Y-85800000D03*
D12*
X162900000Y-88340000D03*
X162900000Y-90880000D03*
X162900000Y-93420000D03*
%TD*%
D13*
%TO.C,J301*%
X156500000Y-97000000D03*
D12*
X159040000Y-97000000D03*
X161580000Y-97000000D03*
X164120000Y-97000000D03*
%TD*%
D25*
%TO.C,J201*%
X117070000Y-130880000D03*
X115800000Y-130880000D03*
X117070000Y-129610000D03*
X115800000Y-129610000D03*
X117070000Y-128340000D03*
X115800000Y-128340000D03*
X117070000Y-127070000D03*
X115800000Y-127070000D03*
X117070000Y-125800000D03*
D26*
X115800000Y-125800000D03*
%TD*%
D11*
%TO.C,C410*%
X167000000Y-129800000D03*
D10*
X167000000Y-134800000D03*
%TD*%
D11*
%TO.C,C403*%
X185800000Y-87200000D03*
D10*
X185800000Y-82200000D03*
%TD*%
M02*
